<svg width="194" height="232" viewBox="0 0 194 232" fill="none" xmlns="http://www.w3.org/2000/svg">
<g clip-path="url(#clip0_299_20570)">
<mask id="path-1-inside-1_299_20570" fill="white">
<path d="M202.578 172.457C227.765 164.886 215.11 199.317 210.892 210.02C206.674 220.723 185.581 252.204 168.568 262.334C119.997 291.251 84.3392 276.94 84.3392 241.874C84.3392 206.807 114.291 198.761 131.858 192.918C131.858 192.918 177.391 180.028 202.578 172.457ZM185.128 88.2283C202.674 82.8971 221.219 92.7987 226.55 110.344C231.881 127.891 221.979 146.436 204.433 151.767L59.4837 195.806C41.9378 201.138 23.3919 191.235 18.0609 173.689C12.7302 156.143 22.6325 137.599 40.1781 132.267L185.128 88.2283ZM176.692 3.86009C194.237 -1.47048 212.783 8.43167 218.114 25.9773C223.445 43.5231 213.542 62.0681 195.996 67.3992L51.0462 111.439C33.5004 116.77 14.9552 106.868 9.62435 89.322C4.29354 71.7762 14.1958 53.2311 31.7415 47.9001L176.692 3.86009Z"/>
</mask>
<path d="M202.578 172.457C227.765 164.886 215.11 199.317 210.892 210.02C206.674 220.723 185.581 252.204 168.568 262.334C119.997 291.251 84.3392 276.94 84.3392 241.874C84.3392 206.807 114.291 198.761 131.858 192.918C131.858 192.918 177.391 180.028 202.578 172.457ZM185.128 88.2283C202.674 82.8971 221.219 92.7987 226.55 110.344C231.881 127.891 221.979 146.436 204.433 151.767L59.4837 195.806C41.9378 201.138 23.3919 191.235 18.0609 173.689C12.7302 156.143 22.6325 137.599 40.1781 132.267L185.128 88.2283ZM176.692 3.86009C194.237 -1.47048 212.783 8.43167 218.114 25.9773C223.445 43.5231 213.542 62.0681 195.996 67.3992L51.0462 111.439C33.5004 116.77 14.9552 106.868 9.62435 89.322C4.29354 71.7762 14.1958 53.2311 31.7415 47.9001L176.692 3.86009Z" fill="#2BCD00" fill-opacity="0.1"/>
<path d="M202.578 172.457L202.702 172.868L202.578 172.457ZM210.892 210.02L211.291 210.178L210.892 210.02ZM168.568 262.334L168.787 262.703H168.787L168.568 262.334ZM84.3392 241.874H83.9098H84.3392ZM131.858 192.918L131.741 192.505L131.731 192.507L131.722 192.51L131.858 192.918ZM185.128 88.2283L185.253 88.6391L185.128 88.2283ZM226.55 110.344L226.961 110.22L226.961 110.22L226.55 110.344ZM204.433 151.767L204.558 152.178L204.433 151.767ZM59.4837 195.806L59.3589 195.396H59.3589L59.4837 195.806ZM18.0609 173.689L17.65 173.814H17.65L18.0609 173.689ZM40.1781 132.267L40.0532 131.856H40.0532L40.1781 132.267ZM176.692 3.86009L176.567 3.44922V3.44922L176.692 3.86009ZM218.114 25.9773L218.524 25.8524V25.8524L218.114 25.9773ZM195.996 67.3992L196.121 67.81L195.996 67.3992ZM51.0462 111.439L51.1711 111.85H51.1711L51.0462 111.439ZM9.62435 89.322L9.21348 89.4468L9.21348 89.4468L9.62435 89.322ZM31.7415 47.9001L31.6167 47.4893V47.4893L31.7415 47.9001ZM202.578 172.457L202.702 172.868C208.943 170.992 212.668 171.768 214.79 173.928C216.944 176.12 217.603 179.883 217.333 184.36C216.795 193.281 212.604 204.504 210.492 209.863L210.892 210.02L211.291 210.178C213.398 204.833 217.643 193.489 218.191 184.411C218.463 179.888 217.828 175.794 215.402 173.326C212.945 170.824 208.807 170.136 202.455 172.046L202.578 172.457ZM210.892 210.02L210.492 209.863C208.405 215.16 202.105 225.669 194.185 236.133C186.264 246.6 176.779 256.945 168.348 261.965L168.568 262.334L168.787 262.703C177.369 257.593 186.937 247.133 194.87 236.651C202.805 226.167 209.161 215.584 211.291 210.178L210.892 210.02ZM168.568 262.334L168.348 261.965C144.116 276.392 123.186 279.985 108.359 275.685C100.952 273.537 95.0619 269.418 91.0207 263.683C86.9781 257.946 84.7686 250.567 84.7686 241.874H84.3392H83.9098C83.9098 250.713 86.1576 258.273 90.3187 264.178C94.4811 270.085 100.541 274.312 108.12 276.51C123.265 280.902 144.449 277.193 168.787 262.703L168.568 262.334ZM84.3392 241.874H84.7686C84.7686 224.491 92.1799 213.836 101.765 206.783C111.382 199.707 123.184 196.255 131.993 193.325L131.858 192.918L131.722 192.51C122.964 195.423 111.007 198.916 101.256 206.091C91.4741 213.289 83.9098 224.19 83.9098 241.874H84.3392ZM131.858 192.918C131.975 193.331 131.975 193.331 131.975 193.331C131.976 193.331 131.976 193.331 131.977 193.33C131.978 193.33 131.98 193.329 131.983 193.329C131.989 193.327 131.997 193.325 132.008 193.322C132.03 193.315 132.063 193.306 132.106 193.294C132.193 193.269 132.323 193.232 132.492 193.184C132.832 193.088 133.334 192.946 133.981 192.762C135.275 192.395 137.152 191.862 139.483 191.198C144.146 189.872 150.625 188.024 157.891 185.939C172.423 181.77 190.106 176.654 202.702 172.868L202.578 172.457L202.455 172.046C189.864 175.83 172.186 180.945 157.654 185.114C150.389 187.198 143.91 189.046 139.248 190.372C136.917 191.036 135.04 191.569 133.746 191.936C133.099 192.12 132.598 192.262 132.258 192.358C132.088 192.406 131.959 192.443 131.872 192.467C131.829 192.48 131.796 192.489 131.774 192.495C131.763 192.498 131.755 192.501 131.749 192.502C131.746 192.503 131.744 192.504 131.743 192.504C131.742 192.504 131.742 192.504 131.741 192.504C131.741 192.504 131.741 192.505 131.858 192.918ZM185.128 88.2283L185.253 88.6391C202.572 83.3769 220.877 93.1505 226.139 110.469L226.55 110.344L226.961 110.22C221.561 92.447 202.776 82.4173 185.003 87.8174L185.128 88.2283ZM226.55 110.344L226.139 110.469C231.402 127.788 221.627 146.094 204.308 151.356L204.433 151.767L204.558 152.178C222.331 146.778 232.361 127.993 226.961 110.22L226.55 110.344ZM204.433 151.767L204.308 151.356L59.3589 195.396L59.4837 195.806L59.6086 196.217L204.558 152.178L204.433 151.767ZM59.4837 195.806L59.3589 195.396C42.0399 200.658 23.7338 190.883 18.4718 173.564L18.0609 173.689L17.65 173.814C23.0499 191.587 41.8358 201.617 59.6086 196.217L59.4837 195.806ZM18.0609 173.689L18.4718 173.564C13.21 156.245 22.9842 137.941 40.3029 132.678L40.1781 132.267L40.0532 131.856C22.2807 137.257 12.2504 156.041 17.65 173.814L18.0609 173.689ZM40.1781 132.267L40.3029 132.678L185.253 88.6391L185.128 88.2283L185.003 87.8174L40.0532 131.856L40.1781 132.267ZM176.692 3.86009L176.817 4.27097C194.135 -0.990662 212.441 8.78342 217.703 26.1021L218.114 25.9773L218.524 25.8524C213.125 8.07992 194.34 -1.95029 176.567 3.44922L176.692 3.86009ZM218.114 25.9773L217.703 26.1021C222.965 43.421 213.19 61.7262 195.872 66.9883L195.996 67.3992L196.121 67.81C213.894 62.4101 223.924 43.6252 218.524 25.8524L218.114 25.9773ZM195.996 67.3992L195.872 66.9883L50.9214 111.028L51.0462 111.439L51.1711 111.85L196.121 67.81L195.996 67.3992ZM51.0462 111.439L50.9214 111.028C33.6025 116.29 15.2972 106.516 10.0352 89.1972L9.62435 89.322L9.21348 89.4468C14.6133 107.22 33.3984 117.25 51.1711 111.85L51.0462 111.439ZM9.62435 89.322L10.0352 89.1972C4.77336 71.8783 14.5475 53.573 31.8664 48.311L31.7415 47.9001L31.6167 47.4893C13.844 52.8892 3.81372 71.6741 9.21348 89.4468L9.62435 89.322ZM31.7415 47.9001L31.8664 48.311L176.817 4.27097L176.692 3.86009L176.567 3.44922L31.6167 47.4893L31.7415 47.9001Z" fill="#2BCD00" mask="url(#path-1-inside-1_299_20570)"/>
</g>
<defs>
<clipPath id="clip0_299_20570">
<rect width="194.097" height="280.84" fill="white" transform="translate(0 0.217773)"/>
</clipPath>
</defs>
</svg>
