<svg width="338" height="366" viewBox="0 0 338 366" fill="none" xmlns="http://www.w3.org/2000/svg">
<mask id="path-1-inside-1_127_44257" fill="white">
<path d="M353.408 240.783C399.146 227.034 376.164 289.56 368.504 308.997C360.843 328.433 322.54 385.602 291.645 403.997C203.442 456.51 138.687 430.52 138.687 366.841C138.687 303.161 193.079 288.549 224.98 277.938C224.98 277.938 307.668 254.532 353.408 240.783ZM321.717 87.8238C353.58 78.1424 387.258 96.1246 396.939 127.988C406.621 159.851 388.638 193.528 356.774 203.21L93.5487 283.184C61.6857 292.866 28.0079 274.883 18.327 243.02C8.64635 211.157 26.6282 177.48 58.4911 167.798L321.717 87.8238ZM306.395 -65.3861C338.258 -75.0668 371.936 -57.0847 381.617 -25.2221C391.298 6.64087 373.316 40.3197 341.453 50.0006L78.2274 129.975C46.3644 139.656 12.6856 121.674 3.00473 89.8111C-6.6761 57.9482 11.3068 24.2703 43.1698 14.5895L306.395 -65.3861Z"/>
</mask>
<path d="M353.408 240.783C399.146 227.034 376.164 289.56 368.504 308.997C360.843 328.433 322.54 385.602 291.645 403.997C203.442 456.51 138.687 430.52 138.687 366.841C138.687 303.161 193.079 288.549 224.98 277.938C224.98 277.938 307.668 254.532 353.408 240.783ZM321.717 87.8238C353.58 78.1424 387.258 96.1246 396.939 127.988C406.621 159.851 388.638 193.528 356.774 203.21L93.5487 283.184C61.6857 292.866 28.0079 274.883 18.327 243.02C8.64635 211.157 26.6282 177.48 58.4911 167.798L321.717 87.8238ZM306.395 -65.3861C338.258 -75.0668 371.936 -57.0847 381.617 -25.2221C391.298 6.64087 373.316 40.3197 341.453 50.0006L78.2274 129.975C46.3644 139.656 12.6856 121.674 3.00473 89.8111C-6.6761 57.9482 11.3068 24.2703 43.1698 14.5895L306.395 -65.3861Z" fill="#2BCD00" fill-opacity="0.1"/>
<path d="M353.408 240.783L353.633 241.53L353.408 240.783ZM368.504 308.997L369.229 309.283L368.504 308.997ZM291.645 403.997L292.044 404.667H292.044L291.645 403.997ZM138.687 366.841L137.908 366.841V366.841H138.687ZM224.98 277.938L224.768 277.188L224.751 277.193L224.734 277.198L224.98 277.938ZM321.717 87.8238L321.943 88.57H321.943L321.717 87.8238ZM396.939 127.988L397.685 127.761L396.939 127.988ZM356.774 203.21L357.001 203.956H357.001L356.774 203.21ZM93.5487 283.184L93.322 282.438H93.322L93.5487 283.184ZM18.327 243.02L17.5809 243.247H17.5809L18.327 243.02ZM58.4911 167.798L58.2644 167.052H58.2644L58.4911 167.798ZM306.395 -65.3861L306.169 -66.1323V-66.1323L306.395 -65.3861ZM381.617 -25.2221L382.363 -25.4488V-25.4488L381.617 -25.2221ZM341.453 50.0006L341.68 50.7467H341.68L341.453 50.0006ZM78.2274 129.975L78.0007 129.229L78.2274 129.975ZM3.00473 89.8111L2.2586 90.0378H2.2586L3.00473 89.8111ZM43.1698 14.5895L43.3965 15.3356H43.3965L43.1698 14.5895ZM353.408 240.783L353.633 241.53C364.965 238.123 371.731 239.533 375.583 243.454C379.495 247.435 380.692 254.269 380.202 262.398C379.225 278.599 371.614 298.98 367.778 308.711L368.504 308.997L369.229 309.283C373.054 299.577 380.764 278.976 381.759 262.492C382.254 254.279 381.1 246.844 376.696 242.361C372.233 237.818 364.72 236.568 353.184 240.036L353.408 240.783ZM368.504 308.997L367.778 308.711C363.987 318.33 352.547 337.414 338.166 356.417C323.781 375.424 306.557 394.211 291.246 403.327L291.645 403.997L292.044 404.667C307.629 395.388 325.004 376.393 339.409 357.358C353.819 338.318 365.36 319.1 369.229 309.283L368.504 308.997ZM291.645 403.997L291.246 403.327C247.241 429.526 209.232 436.051 182.307 428.242C168.856 424.341 158.16 416.862 150.821 406.447C143.48 396.029 139.467 382.628 139.467 366.841H138.687H137.908C137.908 382.894 141.989 396.622 149.546 407.345C157.105 418.072 168.11 425.748 181.873 429.74C209.376 437.717 247.846 430.981 292.044 404.667L291.645 403.997ZM138.687 366.841H139.467C139.467 335.274 152.926 315.925 170.333 303.117C187.796 290.267 209.23 283.999 225.226 278.678L224.98 277.938L224.734 277.198C208.829 282.488 187.116 288.832 169.409 301.861C151.644 314.932 137.908 334.728 137.908 366.841L138.687 366.841ZM224.98 277.938C225.193 278.688 225.193 278.688 225.194 278.688C225.194 278.688 225.195 278.688 225.197 278.687C225.199 278.687 225.203 278.686 225.208 278.684C225.218 278.681 225.233 278.677 225.253 278.671C225.293 278.66 225.352 278.643 225.431 278.621C225.589 278.576 225.824 278.51 226.133 278.422C226.75 278.247 227.66 277.989 228.836 277.656C231.186 276.989 234.595 276.021 238.828 274.816C247.296 272.407 259.061 269.051 272.257 265.266C298.647 257.696 330.758 248.406 353.633 241.53L353.408 240.783L353.184 240.036C330.319 246.909 298.216 256.197 271.827 263.767C258.633 267.552 246.868 270.907 238.402 273.316C234.168 274.521 230.76 275.488 228.41 276.155C227.235 276.489 226.324 276.747 225.708 276.922C225.399 277.009 225.164 277.076 225.006 277.12C224.928 277.143 224.868 277.159 224.828 277.171C224.808 277.176 224.793 277.181 224.783 277.184C224.778 277.185 224.774 277.186 224.772 277.187C224.77 277.187 224.77 277.187 224.769 277.188C224.768 277.188 224.768 277.188 224.98 277.938ZM321.717 87.8238L321.943 88.57C353.395 79.0138 386.637 96.7634 396.193 128.215L396.939 127.988L397.685 127.761C387.879 95.4858 353.765 77.2711 321.49 87.0777L321.717 87.8238ZM396.939 127.988L396.193 128.215C405.749 159.666 387.999 192.907 356.548 202.463L356.774 203.21L357.001 203.956C389.276 194.149 407.492 160.037 397.685 127.761L396.939 127.988ZM356.774 203.21L356.548 202.463L93.322 282.438L93.5487 283.184L93.7754 283.93L357.001 203.956L356.774 203.21ZM93.5487 283.184L93.322 282.438C61.8711 291.994 28.6289 274.245 19.0731 242.793L18.327 243.02L17.5809 243.247C27.387 275.522 61.5003 293.737 93.7754 283.93L93.5487 283.184ZM18.327 243.02L19.0731 242.793C9.51769 211.342 27.267 178.101 58.7178 168.545L58.4911 167.798L58.2644 167.052C25.9894 176.859 7.77501 210.972 17.5809 243.247L18.327 243.02ZM58.4911 167.798L58.7178 168.545L321.943 88.57L321.717 87.8238L321.49 87.0777L58.2644 167.052L58.4911 167.798ZM306.395 -65.3861L306.622 -64.64C338.073 -74.1955 371.315 -56.446 380.871 -24.9954L381.617 -25.2221L382.363 -25.4488C372.557 -57.7235 338.444 -75.9382 306.169 -66.1323L306.395 -65.3861ZM381.617 -25.2221L380.871 -24.9954C390.427 6.4555 372.677 39.6988 341.226 49.2545L341.453 50.0006L341.68 50.7467C373.955 40.9406 392.169 6.82624 382.363 -25.4488L381.617 -25.2221ZM341.453 50.0006L341.226 49.2545L78.0007 129.229L78.2274 129.975L78.4541 130.721L341.68 50.7467L341.453 50.0006ZM78.2274 129.975L78.0007 129.229C46.5498 138.785 13.3065 121.035 3.75087 89.5844L3.00473 89.8111L2.2586 90.0378C12.0647 122.313 46.1791 140.527 78.4541 130.721L78.2274 129.975ZM3.00473 89.8111L3.75087 89.5844C-5.80476 58.1336 11.9456 24.8912 43.3965 15.3356L43.1698 14.5895L42.9431 13.8433C10.668 23.6494 -7.54744 57.7628 2.2586 90.0378L3.00473 89.8111ZM43.1698 14.5895L43.3965 15.3356L306.622 -64.64L306.395 -65.3861L306.169 -66.1323L42.9431 13.8433L43.1698 14.5895Z" fill="#2BCD00" mask="url(#path-1-inside-1_127_44257)"/>
</svg>
