<svg width="353" height="366" viewBox="0 0 353 366" fill="none" xmlns="http://www.w3.org/2000/svg">
<g clip-path="url(#clip0_127_44256)">
<mask id="path-1-inside-1_127_44256" fill="white">
<path d="M368.408 240.783C414.146 227.034 391.164 289.56 383.504 308.997C375.843 328.433 337.54 385.602 306.645 403.997C218.442 456.51 153.687 430.52 153.687 366.841C153.687 303.161 208.079 288.549 239.98 277.938C239.98 277.938 322.668 254.532 368.408 240.783ZM336.717 87.8238C368.58 78.1424 402.258 96.1246 411.939 127.988C421.621 159.851 403.638 193.528 371.774 203.21L108.549 283.184C76.6857 292.866 43.0079 274.883 33.327 243.02C23.6463 211.157 41.6282 177.48 73.4911 167.798L336.717 87.8238ZM321.395 -65.3861C353.258 -75.0668 386.936 -57.0847 396.617 -25.2221C406.298 6.64087 388.316 40.3197 356.453 50.0006L93.2274 129.975C61.3644 139.656 27.6856 121.674 18.0047 89.8111C8.3239 57.9482 26.3068 24.2703 58.1698 14.5895L321.395 -65.3861Z"/>
</mask>
<path d="M368.408 240.783C414.146 227.034 391.164 289.56 383.504 308.997C375.843 328.433 337.54 385.602 306.645 403.997C218.442 456.51 153.687 430.52 153.687 366.841C153.687 303.161 208.079 288.549 239.98 277.938C239.98 277.938 322.668 254.532 368.408 240.783ZM336.717 87.8238C368.58 78.1424 402.258 96.1246 411.939 127.988C421.621 159.851 403.638 193.528 371.774 203.21L108.549 283.184C76.6857 292.866 43.0079 274.883 33.327 243.02C23.6463 211.157 41.6282 177.48 73.4911 167.798L336.717 87.8238ZM321.395 -65.3861C353.258 -75.0668 386.936 -57.0847 396.617 -25.2221C406.298 6.64087 388.316 40.3197 356.453 50.0006L93.2274 129.975C61.3644 139.656 27.6856 121.674 18.0047 89.8111C8.3239 57.9482 26.3068 24.2703 58.1698 14.5895L321.395 -65.3861Z" fill="#2BCD00" fill-opacity="0.1"/>
<path d="M368.408 240.783L368.633 241.53L368.408 240.783ZM383.504 308.997L384.229 309.283L383.504 308.997ZM306.645 403.997L307.044 404.667H307.044L306.645 403.997ZM153.687 366.841L152.908 366.841V366.841H153.687ZM239.98 277.938L239.768 277.188L239.751 277.193L239.734 277.198L239.98 277.938ZM336.717 87.8238L336.943 88.57H336.943L336.717 87.8238ZM411.939 127.988L412.685 127.761L411.939 127.988ZM371.774 203.21L372.001 203.956H372.001L371.774 203.21ZM108.549 283.184L108.322 282.438H108.322L108.549 283.184ZM33.327 243.02L32.5809 243.247H32.5809L33.327 243.02ZM73.4911 167.798L73.2644 167.052H73.2644L73.4911 167.798ZM321.395 -65.3861L321.169 -66.1323V-66.1323L321.395 -65.3861ZM396.617 -25.2221L397.363 -25.4488V-25.4488L396.617 -25.2221ZM356.453 50.0006L356.68 50.7467H356.68L356.453 50.0006ZM93.2274 129.975L93.0007 129.229L93.2274 129.975ZM18.0047 89.8111L17.2586 90.0378H17.2586L18.0047 89.8111ZM58.1698 14.5895L58.3965 15.3356H58.3965L58.1698 14.5895ZM368.408 240.783L368.633 241.53C379.965 238.123 386.731 239.533 390.583 243.454C394.495 247.435 395.692 254.269 395.202 262.398C394.225 278.599 386.614 298.98 382.778 308.711L383.504 308.997L384.229 309.283C388.054 299.577 395.764 278.976 396.759 262.492C397.254 254.279 396.1 246.844 391.696 242.361C387.233 237.818 379.72 236.568 368.184 240.036L368.408 240.783ZM383.504 308.997L382.778 308.711C378.987 318.33 367.547 337.414 353.166 356.417C338.781 375.424 321.557 394.211 306.246 403.327L306.645 403.997L307.044 404.667C322.629 395.388 340.004 376.393 354.409 357.358C368.819 338.318 380.36 319.1 384.229 309.283L383.504 308.997ZM306.645 403.997L306.246 403.327C262.241 429.526 224.232 436.051 197.307 428.242C183.856 424.341 173.16 416.862 165.821 406.447C158.48 396.029 154.467 382.628 154.467 366.841H153.687H152.908C152.908 382.894 156.989 396.622 164.546 407.345C172.105 418.072 183.11 425.748 196.873 429.74C224.376 437.717 262.846 430.981 307.044 404.667L306.645 403.997ZM153.687 366.841H154.467C154.467 335.274 167.926 315.925 185.333 303.117C202.796 290.267 224.23 283.999 240.226 278.678L239.98 277.938L239.734 277.198C223.829 282.488 202.116 288.832 184.409 301.861C166.644 314.932 152.908 334.728 152.908 366.841L153.687 366.841ZM239.98 277.938C240.193 278.688 240.193 278.688 240.194 278.688C240.194 278.688 240.195 278.688 240.197 278.687C240.199 278.687 240.203 278.686 240.208 278.684C240.218 278.681 240.233 278.677 240.253 278.671C240.293 278.66 240.352 278.643 240.431 278.621C240.589 278.576 240.824 278.51 241.133 278.422C241.75 278.247 242.66 277.989 243.836 277.656C246.186 276.989 249.595 276.021 253.828 274.816C262.296 272.407 274.061 269.051 287.257 265.266C313.647 257.696 345.758 248.406 368.633 241.53L368.408 240.783L368.184 240.036C345.319 246.909 313.216 256.197 286.827 263.767C273.633 267.552 261.868 270.907 253.402 273.316C249.168 274.521 245.76 275.488 243.41 276.155C242.235 276.489 241.324 276.747 240.708 276.922C240.399 277.009 240.164 277.076 240.006 277.12C239.928 277.143 239.868 277.159 239.828 277.171C239.808 277.176 239.793 277.181 239.783 277.184C239.778 277.185 239.774 277.186 239.772 277.187C239.77 277.187 239.77 277.187 239.769 277.188C239.768 277.188 239.768 277.188 239.98 277.938ZM336.717 87.8238L336.943 88.57C368.395 79.0138 401.637 96.7634 411.193 128.215L411.939 127.988L412.685 127.761C402.879 95.4858 368.765 77.2711 336.49 87.0777L336.717 87.8238ZM411.939 127.988L411.193 128.215C420.749 159.666 402.999 192.907 371.548 202.463L371.774 203.21L372.001 203.956C404.276 194.149 422.492 160.037 412.685 127.761L411.939 127.988ZM371.774 203.21L371.548 202.463L108.322 282.438L108.549 283.184L108.775 283.93L372.001 203.956L371.774 203.21ZM108.549 283.184L108.322 282.438C76.8711 291.994 43.6289 274.245 34.0731 242.793L33.327 243.02L32.5809 243.247C42.387 275.522 76.5003 293.737 108.775 283.93L108.549 283.184ZM33.327 243.02L34.0731 242.793C24.5177 211.342 42.267 178.101 73.7178 168.545L73.4911 167.798L73.2644 167.052C40.9894 176.859 22.775 210.972 32.5809 243.247L33.327 243.02ZM73.4911 167.798L73.7178 168.545L336.943 88.57L336.717 87.8238L336.49 87.0777L73.2644 167.052L73.4911 167.798ZM321.395 -65.3861L321.622 -64.64C353.073 -74.1955 386.315 -56.446 395.871 -24.9954L396.617 -25.2221L397.363 -25.4488C387.557 -57.7235 353.444 -75.9382 321.169 -66.1323L321.395 -65.3861ZM396.617 -25.2221L395.871 -24.9954C405.427 6.4555 387.677 39.6988 356.226 49.2545L356.453 50.0006L356.68 50.7467C388.955 40.9406 407.169 6.82624 397.363 -25.4488L396.617 -25.2221ZM356.453 50.0006L356.226 49.2545L93.0007 129.229L93.2274 129.975L93.4541 130.721L356.68 50.7467L356.453 50.0006ZM93.2274 129.975L93.0007 129.229C61.5498 138.785 28.3065 121.035 18.7509 89.5844L18.0047 89.8111L17.2586 90.0378C27.0647 122.313 61.1791 140.527 93.4541 130.721L93.2274 129.975ZM18.0047 89.8111L18.7509 89.5844C9.19524 58.1336 26.9456 24.8912 58.3965 15.3356L58.1698 14.5895L57.9431 13.8433C25.668 23.6494 7.45256 57.7628 17.2586 90.0378L18.0047 89.8111ZM58.1698 14.5895L58.3965 15.3356L321.622 -64.64L321.395 -65.3861L321.169 -66.1323L57.9431 13.8433L58.1698 14.5895Z" fill="#2BCD00" mask="url(#path-1-inside-1_127_44256)"/>
</g>
<defs>
<clipPath id="clip0_127_44256">
<rect width="352.477" height="510" fill="white" transform="translate(0.523438 -72)"/>
</clipPath>
</defs>
</svg>
