<svg width="24" height="25" viewBox="0 0 24 25" fill="none" xmlns="http://www.w3.org/2000/svg">
<path d="M3.75 4.55029C1.26488 4.55029 0 6.39717 0 8.67529V16.9253C0 19.2034 1.26488 21.0503 3.75 21.0503H7.5V4.55029H3.75Z" fill="#E6E7E8"/>
<path d="M20.25 4.55029H7.5V21.0503H20.25C22.7351 21.0503 24 19.2034 24 16.9253V8.67529C24 6.39717 22.7351 4.55029 20.25 4.55029Z" fill="#006838"/>
<path d="M16.689 8.87354L17.538 9.66141L18.6667 9.40979L18.18 10.462L18.7687 11.4595L17.6164 11.3193L16.8499 12.1889L16.6275 11.0527L15.5625 10.591L16.575 10.0263L16.689 8.87354Z" fill="#E6E7E8"/>
<path d="M19.6377 14.0489C18.0248 15.6621 15.4107 15.6621 13.7974 14.0489C12.1842 12.4356 12.1842 9.82152 13.7974 8.20864C13.9088 8.09764 14.0251 7.99602 14.1451 7.90039C13.3179 8.11009 12.5627 8.53918 11.9592 9.14239C10.0969 11.005 10.0969 14.0249 11.9592 15.8875C13.8226 17.7498 16.8417 17.7498 18.7043 15.8875C19.3075 15.284 19.7366 14.5288 19.9463 13.7016C19.8495 13.8226 19.7465 13.9385 19.6377 14.0489Z" fill="#E6E7E8"/>
</svg>
