<svg width="19" height="19" viewBox="0 0 19 19" fill="none" xmlns="http://www.w3.org/2000/svg">
<path d="M17.8472 12.6557L13.4306 10.6767L13.4184 10.671C13.1892 10.573 12.939 10.5336 12.6907 10.5565C12.4424 10.5795 12.2037 10.6639 11.9963 10.8023C11.9718 10.8184 11.9483 10.8359 11.9259 10.8548L9.64407 12.8001C8.19845 12.0979 6.70595 10.6167 6.00376 9.18979L7.95188 6.87323C7.97063 6.84979 7.98845 6.82635 8.00532 6.80104C8.14072 6.59414 8.22287 6.35697 8.24446 6.11064C8.26605 5.86431 8.22641 5.61647 8.12907 5.38917V5.37792L6.14438 0.953853C6.0157 0.656914 5.79444 0.409555 5.51362 0.248702C5.2328 0.0878488 4.9075 0.0221291 4.58626 0.0613533C3.31592 0.228516 2.14986 0.852386 1.30588 1.81644C0.461903 2.7805 -0.00228837 4.01881 8.4831e-06 5.3001C8.4831e-06 12.7439 6.05626 18.8001 13.5 18.8001C14.7813 18.8024 16.0196 18.3382 16.9837 17.4942C17.9477 16.6502 18.5716 15.4842 18.7388 14.2139C18.7781 13.8927 18.7125 13.5675 18.5518 13.2867C18.3911 13.0059 18.144 12.7846 17.8472 12.6557ZM13.5 17.3001C10.3185 17.2966 7.26825 16.0312 5.01856 13.7815C2.76888 11.5319 1.50348 8.48163 1.50001 5.3001C1.49648 4.38462 1.82631 3.49916 2.42789 2.80908C3.02947 2.11899 3.86167 1.67148 4.76907 1.5501C4.7687 1.55384 4.7687 1.55761 4.76907 1.56135L6.73782 5.9676L4.80001 8.28698C4.7803 8.30958 4.76243 8.33372 4.74657 8.35917C4.60549 8.57565 4.52273 8.82491 4.5063 9.08279C4.48988 9.34066 4.54035 9.59841 4.65282 9.83104C5.5022 11.5682 7.25251 13.3054 9.00845 14.1539C9.24279 14.2653 9.50203 14.314 9.76083 14.2953C10.0196 14.2765 10.2692 14.191 10.485 14.047C10.5091 14.0308 10.5323 14.0133 10.5544 13.9945L12.8334 12.0501L17.2397 14.0235H17.25C17.1301 14.9322 16.6833 15.7661 15.9931 16.3692C15.3028 16.9722 14.4166 17.3032 13.5 17.3001Z" fill="white" fill-opacity="0.6"/>
</svg>
