<svg width="18" height="19" viewBox="0 0 18 19" fill="none" xmlns="http://www.w3.org/2000/svg">
<path d="M9.27102 7.7168H8.58268C7.79685 7.7168 7.40435 7.7168 7.16018 7.96096C6.91602 8.20513 6.91602 8.59763 6.91602 9.38346V16.4668C6.91602 17.2526 6.91602 17.6451 7.16018 17.8893C7.40435 18.1335 7.79685 18.1335 8.58268 18.1335H8.99935C9.78518 18.1335 10.1777 18.1335 10.4218 17.8893C10.666 17.6451 10.666 17.2526 10.666 16.4668V13.5501C10.666 12.1693 11.106 11.0501 12.406 11.0501C13.056 11.0501 13.5827 11.6101 13.5827 12.3001V16.0501C13.5827 16.836 13.5827 17.2285 13.8268 17.4726C14.071 17.7168 14.4635 17.7168 15.2493 17.7168H15.6652C16.4502 17.7168 16.8435 17.7168 17.0877 17.4726C17.331 17.2285 17.3318 16.836 17.3318 16.051L17.3327 11.4668C17.3327 9.39513 15.3627 7.7168 13.4135 7.7168C12.3035 7.7168 11.3135 8.26013 10.666 9.11096C10.666 8.58596 10.666 8.32346 10.5518 8.12846C10.4796 8.00508 10.3769 7.90234 10.2535 7.83013C10.0585 7.71596 9.79602 7.71596 9.27102 7.71596M2.74935 7.7168H2.33268C1.54685 7.7168 1.15435 7.7168 0.910182 7.96096C0.666016 8.20513 0.666016 8.59763 0.666016 9.38346V16.4668C0.666016 17.2526 0.666016 17.6451 0.910182 17.8893C1.15435 18.1335 1.54685 18.1335 2.33268 18.1335H2.74935C3.53518 18.1335 3.92768 18.1335 4.17185 17.8893C4.41602 17.6451 4.41602 17.2526 4.41602 16.4668V9.38346C4.41602 8.59763 4.41602 8.20513 4.17185 7.96096C3.92768 7.7168 3.53518 7.7168 2.74935 7.7168ZM4.41602 3.3418C4.41602 3.83908 4.21847 4.31599 3.86684 4.66762C3.51521 5.01925 3.0383 5.2168 2.54102 5.2168C2.04373 5.2168 1.56682 5.01925 1.21519 4.66762C0.86356 4.31599 0.666016 3.83908 0.666016 3.3418C0.666016 2.84452 0.86356 2.3676 1.21519 2.01597C1.56682 1.66434 2.04373 1.4668 2.54102 1.4668C3.0383 1.4668 3.51521 1.66434 3.86684 2.01597C4.21847 2.3676 4.41602 2.84452 4.41602 3.3418Z" stroke="white" stroke-opacity="0.6" stroke-width="1.25" stroke-linecap="round" stroke-linejoin="round"/>
</svg>
