<svg width="17" height="19" viewBox="0 0 17 19" fill="none" xmlns="http://www.w3.org/2000/svg">
<path d="M6.53159 15.4367C6.70027 15.3837 6.84097 15.2658 6.92273 15.109C7.0045 14.9522 7.02064 14.7694 6.96759 14.6007C6.91455 14.432 6.79667 14.2913 6.63989 14.2096C6.48311 14.1278 6.30027 14.1117 6.13159 14.1647L6.53159 15.4367ZM1.66759 11.49L1.02226 11.3194L0.683594 12.61L1.32893 12.7794L1.66759 11.49ZM10.9983 18.134V18.8007H12.3316V18.134H10.9983ZM11.0823 11.718L11.0103 11.054C10.885 11.0675 10.766 11.1161 10.6673 11.1944C10.5685 11.2726 10.4939 11.3773 10.4522 11.4962C10.4105 11.6151 10.4033 11.7434 10.4315 11.8662C10.4597 11.989 10.5222 12.1013 10.6116 12.19L11.0823 11.718ZM15.6649 6.68338H16.3316V6.68205L15.6649 6.68338ZM14.5543 4.00871L13.9329 3.76871C13.8865 3.88893 13.8758 4.02004 13.9023 4.14616C13.9288 4.27229 13.9913 4.38803 14.0823 4.47938L14.5543 4.00871ZM14.4876 1.31938L15.0956 1.04738C15.0558 0.958754 14.9971 0.879897 14.9236 0.81633C14.8502 0.752763 14.7637 0.706023 14.6703 0.67938L14.4876 1.31938ZM11.5903 2.37538L11.4223 3.02071C11.5118 3.0441 11.6052 3.04859 11.6966 3.0339C11.7879 3.0192 11.8752 2.98565 11.9529 2.93538L11.5903 2.37538ZM6.40626 2.37538L6.04359 2.93538C6.12128 2.98565 6.20858 3.0192 6.29995 3.0339C6.39131 3.04859 6.48473 3.0441 6.57426 3.02071L6.40626 2.37538ZM3.50893 1.32071L3.32626 0.680713C3.23259 0.707184 3.14585 0.753847 3.07214 0.817423C2.99843 0.880998 2.93953 0.959944 2.89959 1.04871L3.50893 1.32071ZM3.44226 4.01005L3.91426 4.48071C4.00544 4.38925 4.06809 4.27328 4.0946 4.14688C4.12112 4.02048 4.11034 3.8891 4.06359 3.76871L3.44226 4.01005ZM2.33159 6.70738H2.99826V6.70471L2.33159 6.70738ZM6.91559 11.718L7.38493 12.1914C7.47374 12.1031 7.53588 11.9915 7.56423 11.8695C7.59258 11.7475 7.58599 11.62 7.54522 11.5016C7.50444 11.3832 7.43114 11.2786 7.33369 11.2C7.23625 11.1213 7.11861 11.0716 6.99426 11.0567L6.91559 11.718ZM6.33159 13.4674H6.99826L6.99693 13.418L6.33159 13.4674ZM5.66493 18.134V18.8007H6.99826V18.134H5.66493ZM6.13159 14.1647C5.32759 14.418 4.81693 14.39 4.47826 14.278C4.14359 14.1674 3.88626 13.9447 3.63959 13.6247C3.51101 13.452 3.39087 13.2731 3.27959 13.0887C3.16626 12.9034 3.03693 12.686 2.90626 12.4927C2.65159 12.118 2.27559 11.6487 1.66759 11.4887L1.32893 12.7794C1.43559 12.806 1.57426 12.906 1.80226 13.2407C1.91159 13.4034 2.01559 13.5767 2.14626 13.79C2.27159 13.9927 2.41559 14.2167 2.58226 14.4354C2.91959 14.8754 3.37959 15.3194 4.06226 15.5447C4.74226 15.7687 5.55026 15.7447 6.53159 15.4367L6.13159 14.1647ZM12.3316 13.3847C12.3316 12.9607 12.3129 12.574 12.1929 12.214C12.0649 11.83 11.8436 11.534 11.5516 11.2447L10.6116 12.1914C10.8183 12.3954 10.8889 12.518 10.9276 12.6354C10.9743 12.7754 10.9983 12.974 10.9983 13.3847H12.3316ZM11.1529 12.3807C12.3569 12.2514 13.6703 11.9474 14.6823 11.0714C15.7223 10.1714 16.3316 8.76471 16.3316 6.68338L14.9983 6.68471C14.9983 8.49671 14.4783 9.48471 13.8089 10.0634C13.1103 10.6687 12.1316 10.934 11.0103 11.054L11.1529 12.3807ZM16.3316 6.68205C16.3282 5.50264 15.8585 4.3711 15.0249 3.53671L14.0823 4.47938C14.6663 5.06605 14.9956 5.85671 14.9983 6.68471L16.3316 6.68205ZM15.1756 4.24871C15.3756 3.73671 15.4689 3.19005 15.4556 2.63938L14.1223 2.67271C14.1327 3.04614 14.0683 3.41788 13.9329 3.76605L15.1756 4.24871ZM15.4556 2.63938C15.4428 2.08961 15.3204 1.54925 15.0956 1.04738L13.8783 1.59005C14.0316 1.93138 14.1129 2.29938 14.1223 2.67271L15.4556 2.63938ZM14.4876 1.31938C14.6703 0.678047 14.6703 0.676713 14.6689 0.676713H14.6649L14.6596 0.674046L14.6196 0.664713L14.5476 0.65138C14.4779 0.640036 14.4075 0.63424 14.3369 0.634047C14.1083 0.631017 13.8801 0.654734 13.6569 0.704713C13.0903 0.826046 12.2916 1.12738 11.2303 1.81405L11.9529 2.93405C12.9116 2.31538 13.5609 2.08871 13.9369 2.00871C14.0562 1.9806 14.1784 1.96628 14.3009 1.96605L14.3449 1.96871L14.3343 1.96738L14.3209 1.96471L14.3129 1.96205H14.3089L14.3063 1.96071C14.3049 1.96071 14.3036 1.96071 14.4876 1.31805M11.7583 1.72738C9.94855 1.25525 8.04797 1.25525 6.23826 1.72738L6.57426 3.01805C8.16365 2.60329 9.83287 2.60329 11.4223 3.01805L11.7583 1.72738ZM6.76759 1.81271C5.70493 1.12871 4.90493 0.82738 4.33826 0.70738C4.11512 0.6574 3.88691 0.633684 3.65826 0.636713C3.55014 0.63999 3.44255 0.653382 3.33693 0.676713L3.33159 0.67938H3.32759L3.50893 1.32071L3.69159 1.96205L3.68759 1.96338L3.68359 1.96471L3.66226 1.97005L3.69559 1.96871C3.81816 1.96895 3.94029 1.98326 4.05959 2.01138C4.43559 2.09138 5.08493 2.31671 6.04359 2.93538L6.76759 1.81271ZM2.90093 1.04471C2.67613 1.54659 2.55374 2.08828 2.54093 2.63805L3.87426 2.67138C3.88254 2.29783 3.9655 1.92971 4.11826 1.58871L2.90093 1.04471ZM2.54093 2.63805C2.52759 3.18871 2.62093 3.73538 2.82093 4.24738L4.06359 3.76471C3.92772 3.41664 3.86289 3.0449 3.87293 2.67138L2.54093 2.63805ZM2.97026 3.53538C2.55632 3.95291 2.22754 4.44697 2.00226 4.99005L3.23426 5.49671C3.39159 5.11671 3.62359 4.77005 3.91426 4.47671L2.97026 3.53538ZM2.00226 4.99005C1.77933 5.53515 1.66476 6.11846 1.66493 6.70738L2.99826 6.70471C2.99826 6.29138 3.07826 5.88205 3.23426 5.50071L2.00226 4.99005ZM1.66493 6.70738C1.66493 8.77805 2.27559 10.17 3.31693 11.0647C4.32626 11.9314 5.63693 12.238 6.83693 12.3807L6.99426 11.0567C5.86493 10.9207 4.88626 10.654 4.18493 10.0514C3.51559 9.47671 2.99826 8.50205 2.99826 6.70471L1.66493 6.70738ZM6.44493 11.246C5.77826 11.91 5.60626 12.6994 5.66626 13.518L6.99693 13.418C6.95693 12.874 7.06759 12.5074 7.38626 12.19L6.44493 11.246ZM5.66493 13.4674V18.134H6.99826V13.4674H5.66493ZM12.3316 18.134V16.134H10.9983V18.134H12.3316ZM12.3316 16.134V13.3847H10.9983V16.134H12.3316Z" fill="white" fill-opacity="0.6"/>
</svg>
