<svg width="20" height="21" viewBox="0 0 20 21" fill="none" xmlns="http://www.w3.org/2000/svg">
<path d="M5.875 10.0859C5.875 10.2753 5.95026 10.457 6.08421 10.5909C6.21816 10.7249 6.39985 10.8002 6.58929 10.8002C6.77873 10.8002 6.96041 10.7249 7.09436 10.5909C7.22832 10.457 7.30357 10.2753 7.30357 10.0859C7.30357 9.89643 7.22832 9.71475 7.09436 9.58079C6.96041 9.44684 6.77873 9.37158 6.58929 9.37158C6.39985 9.37158 6.21816 9.44684 6.08421 9.58079C5.95026 9.71475 5.875 9.89643 5.875 10.0859ZM12.3036 10.0859C12.3036 10.2753 12.3788 10.457 12.5128 10.5909C12.6467 10.7249 12.8284 10.8002 13.0179 10.8002C13.2073 10.8002 13.389 10.7249 13.5229 10.5909C13.6569 10.457 13.7321 10.2753 13.7321 10.0859C13.7321 9.89643 13.6569 9.71475 13.5229 9.58079C13.389 9.44684 13.2073 9.37158 13.0179 9.37158C12.8284 9.37158 12.6467 9.44684 12.5128 9.58079C12.3788 9.71475 12.3036 9.89643 12.3036 10.0859Z" stroke="white" stroke-opacity="0.6" stroke-width="1.42857"/>
<path d="M1.22656 14.8918C1.22656 11.4618 2.45228 6.92897 3.67656 5.09182C3.67656 5.09182 4.90228 4.47754 9.80371 4.47754C14.7051 4.47754 15.9294 5.09182 15.9294 5.09182C17.1551 6.92897 18.3794 11.4618 18.3794 14.8918C17.9723 15.5061 16.5423 16.8533 14.0923 17.3433L11.9351 14.649C10.5324 14.9746 9.07363 14.9746 7.67085 14.649L5.51513 17.3433C3.06513 16.8533 1.63513 15.5047 1.22656 14.8918Z" stroke="white" stroke-opacity="0.6" stroke-width="1.42857" stroke-linecap="round" stroke-linejoin="round"/>
<path d="M5.51562 13.668C5.88848 14.0408 6.67277 14.4151 7.67134 14.6494C9.07457 14.9753 10.5338 14.9753 11.9371 14.6494C12.9356 14.4151 13.7185 14.0408 14.0928 13.668" stroke="white" stroke-opacity="0.6" stroke-width="1.42857" stroke-linecap="round" stroke-linejoin="round"/>
</svg>
