<svg width="18" height="17" viewBox="0 0 18 17" fill="none" xmlns="http://www.w3.org/2000/svg">
<path d="M8.98859 11.64L11.6903 14.7117C12.6903 15.8492 13.1911 16.4184 13.7153 16.2792C14.2386 16.1409 14.4186 15.3925 14.7778 13.895L16.7694 5.58837C17.3236 3.28171 17.6003 2.12921 16.9853 1.56004C16.3703 0.990874 15.3044 1.41421 13.1728 2.26004L3.28442 6.18754C1.57942 6.86504 0.72692 7.20337 0.672753 7.78504C0.666374 7.84431 0.666374 7.9041 0.672753 7.96337C0.725253 8.54587 1.57609 8.88671 3.27942 9.56921C4.05025 9.87837 4.43609 10.0334 4.71275 10.3292C4.74386 10.3625 4.77386 10.397 4.80275 10.4325C5.05775 10.7492 5.16609 11.1659 5.38359 11.9959L5.79109 13.5517C6.00192 14.36 6.10775 14.765 6.38525 14.82C6.66275 14.875 6.90359 14.54 7.38609 13.8692L8.98859 11.64ZM8.98859 11.64L8.72442 11.365C8.42275 11.05 8.27192 10.8934 8.27192 10.6984C8.27192 10.5034 8.42192 10.3459 8.72442 10.0317L11.7019 6.92837" stroke="white" stroke-opacity="0.6" stroke-width="1.25" stroke-linecap="round" stroke-linejoin="round"/>
</svg>
