<svg width="386" height="260" viewBox="0 0 386 260" fill="none" xmlns="http://www.w3.org/2000/svg">
<g clip-path="url(#clip0_127_44128)">
<g filter="url(#filter0_d_127_44128)">
<rect x="14" y="14" width="148.5" height="64" rx="10" fill="white" shape-rendering="crispEdges"/>
<rect x="14.5" y="14.5" width="147.5" height="63" rx="9.5" stroke="#2BCD00" stroke-opacity="0.4" shape-rendering="crispEdges"/>
<rect x="30" y="30" width="50" height="6" rx="3" fill="#D9D9D9" fill-opacity="0.4"/>
<path d="M35.2955 43.3636V55H33.8864V44.8409H33.8182L30.9773 46.7273V45.2955L33.8864 43.3636H35.2955ZM42.5739 55.1591C41.8239 55.1591 41.1553 55.0303 40.5682 54.7727C39.9848 54.5152 39.5208 54.1572 39.1761 53.6989C38.8352 53.2367 38.6496 52.7008 38.6193 52.0909H40.0511C40.0814 52.4659 40.2102 52.7898 40.4375 53.0625C40.6648 53.3314 40.9621 53.5398 41.3295 53.6875C41.697 53.8352 42.1042 53.9091 42.5511 53.9091C43.0511 53.9091 43.4943 53.822 43.8807 53.6477C44.267 53.4735 44.5701 53.2311 44.7898 52.9205C45.0095 52.6098 45.1193 52.25 45.1193 51.8409C45.1193 51.4129 45.0133 51.036 44.8011 50.7102C44.589 50.3807 44.2784 50.1231 43.8693 49.9375C43.4602 49.7519 42.9602 49.6591 42.3693 49.6591H41.4375V48.4091H42.3693C42.8314 48.4091 43.2367 48.3258 43.5852 48.1591C43.9375 47.9924 44.2121 47.7576 44.4091 47.4545C44.6098 47.1515 44.7102 46.7955 44.7102 46.3864C44.7102 45.9924 44.6231 45.6496 44.4489 45.358C44.2746 45.0663 44.0284 44.839 43.7102 44.6761C43.3958 44.5133 43.0246 44.4318 42.5966 44.4318C42.1951 44.4318 41.8163 44.5057 41.4602 44.6534C41.108 44.7973 40.8201 45.0076 40.5966 45.2841C40.3731 45.5568 40.2519 45.8864 40.233 46.2727H38.8693C38.892 45.6629 39.0758 45.1288 39.4205 44.6705C39.7652 44.2083 40.2159 43.8485 40.7727 43.5909C41.3333 43.3333 41.9489 43.2045 42.6193 43.2045C43.339 43.2045 43.9564 43.3504 44.4716 43.642C44.9867 43.9299 45.3826 44.3106 45.6591 44.7841C45.9356 45.2576 46.0739 45.7689 46.0739 46.3182C46.0739 46.9735 45.9015 47.5322 45.5568 47.9943C45.2159 48.4564 44.7519 48.7765 44.1648 48.9545V49.0455C44.8996 49.1667 45.4735 49.4792 45.8864 49.983C46.2992 50.483 46.5057 51.1023 46.5057 51.8409C46.5057 52.4735 46.3333 53.0417 45.9886 53.5455C45.6477 54.0455 45.1818 54.4394 44.5909 54.7273C44 55.0152 43.3277 55.1591 42.5739 55.1591ZM48.5568 52.6136V51.4545L53.6705 43.3636H54.5114V45.1591H53.9432L50.0795 51.2727V51.3636H56.9659V52.6136H48.5568ZM54.0341 55V52.2614V51.7216V43.3636H55.375V55H54.0341ZM59.2997 55V43.3636H60.7088V49.1364H60.8452L66.0724 43.3636H67.9134L63.027 48.6136L67.9134 55H66.2088L62.1634 49.5909L60.7088 51.2273V55H59.2997Z" fill="black"/>
<path d="M146.5 34.25L137.966 41.4185C135.519 43.474 132.148 44.0379 129.166 42.8906V42.8906C124.651 41.1542 119.582 43.3957 117.829 47.9039L116.85 50.4223C115.132 54.84 110.878 57.75 106.138 57.75H100" stroke="#2BCD00" stroke-width="2" stroke-linecap="round"/>
</g>
<rect x="167" y="14" width="146.5" height="64" rx="10" fill="white"/>
<rect x="167.5" y="14.5" width="145.5" height="63" rx="9.5" stroke="#CDB900" stroke-opacity="0.4"/>
<rect x="183" y="30" width="50" height="6" rx="3" fill="#D9D9D9" fill-opacity="0.4"/>
<path d="M188.136 55.1591C187.386 55.1591 186.718 55.0303 186.131 54.7727C185.547 54.5152 185.083 54.1572 184.739 53.6989C184.398 53.2367 184.212 52.7008 184.182 52.0909H185.614C185.644 52.4659 185.773 52.7898 186 53.0625C186.227 53.3314 186.525 53.5398 186.892 53.6875C187.259 53.8352 187.667 53.9091 188.114 53.9091C188.614 53.9091 189.057 53.822 189.443 53.6477C189.83 53.4735 190.133 53.2311 190.352 52.9205C190.572 52.6098 190.682 52.25 190.682 51.8409C190.682 51.4129 190.576 51.036 190.364 50.7102C190.152 50.3807 189.841 50.1231 189.432 49.9375C189.023 49.7519 188.523 49.6591 187.932 49.6591H187V48.4091H187.932C188.394 48.4091 188.799 48.3258 189.148 48.1591C189.5 47.9924 189.775 47.7576 189.972 47.4545C190.172 47.1515 190.273 46.7955 190.273 46.3864C190.273 45.9924 190.186 45.6496 190.011 45.358C189.837 45.0663 189.591 44.839 189.273 44.6761C188.958 44.5133 188.587 44.4318 188.159 44.4318C187.758 44.4318 187.379 44.5057 187.023 44.6534C186.67 44.7973 186.383 45.0076 186.159 45.2841C185.936 45.5568 185.814 45.8864 185.795 46.2727H184.432C184.455 45.6629 184.638 45.1288 184.983 44.6705C185.328 44.2083 185.778 43.8485 186.335 43.5909C186.896 43.3333 187.511 43.2045 188.182 43.2045C188.902 43.2045 189.519 43.3504 190.034 43.642C190.549 43.9299 190.945 44.3106 191.222 44.7841C191.498 45.2576 191.636 45.7689 191.636 46.3182C191.636 46.9735 191.464 47.5322 191.119 47.9943C190.778 48.4564 190.314 48.7765 189.727 48.9545V49.0455C190.462 49.1667 191.036 49.4792 191.449 49.983C191.862 50.483 192.068 51.1023 192.068 51.8409C192.068 52.4735 191.896 53.0417 191.551 53.5455C191.21 54.0455 190.744 54.4394 190.153 54.7273C189.563 55.0152 188.89 55.1591 188.136 55.1591ZM194.119 52.6136V51.4545L199.233 43.3636H200.074V45.1591H199.506L195.642 51.2727V51.3636H202.528V52.6136H194.119ZM199.597 55V52.2614V51.7216V43.3636H200.938V55H199.597ZM204.862 55V43.3636H206.271V49.1364H206.408L211.635 43.3636H213.476L208.589 48.6136L213.476 55H211.771L207.726 49.5909L206.271 51.2273V55H204.862Z" fill="black"/>
<path d="M297.5 39L294.564 37.9658C290.158 36.4136 285.343 38.8268 283.95 43.2858V43.2858C282.595 47.6208 277.991 50.0453 273.65 48.7097L272.6 48.3865C269.997 47.5856 267.174 47.9589 264.869 49.4089L253 56.875" stroke="#CDC300" stroke-width="2" stroke-linecap="round"/>
<rect x="320" y="14" width="148.5" height="64" rx="10" fill="white"/>
<rect x="320.5" y="14.5" width="147.5" height="63" rx="9.5" stroke="#CD5500" stroke-opacity="0.3"/>
<rect x="336" y="30" width="50" height="6" rx="3" fill="#D9D9D9" fill-opacity="0.4"/>
<path d="M341.136 55.1591C340.386 55.1591 339.718 55.0303 339.131 54.7727C338.547 54.5152 338.083 54.1572 337.739 53.6989C337.398 53.2367 337.212 52.7008 337.182 52.0909H338.614C338.644 52.4659 338.773 52.7898 339 53.0625C339.227 53.3314 339.525 53.5398 339.892 53.6875C340.259 53.8352 340.667 53.9091 341.114 53.9091C341.614 53.9091 342.057 53.822 342.443 53.6477C342.83 53.4735 343.133 53.2311 343.352 52.9205C343.572 52.6098 343.682 52.25 343.682 51.8409C343.682 51.4129 343.576 51.036 343.364 50.7102C343.152 50.3807 342.841 50.1231 342.432 49.9375C342.023 49.7519 341.523 49.6591 340.932 49.6591H340V48.4091H340.932C341.394 48.4091 341.799 48.3258 342.148 48.1591C342.5 47.9924 342.775 47.7576 342.972 47.4545C343.172 47.1515 343.273 46.7955 343.273 46.3864C343.273 45.9924 343.186 45.6496 343.011 45.358C342.837 45.0663 342.591 44.839 342.273 44.6761C341.958 44.5133 341.587 44.4318 341.159 44.4318C340.758 44.4318 340.379 44.5057 340.023 44.6534C339.67 44.7973 339.383 45.0076 339.159 45.2841C338.936 45.5568 338.814 45.8864 338.795 46.2727H337.432C337.455 45.6629 337.638 45.1288 337.983 44.6705C338.328 44.2083 338.778 43.8485 339.335 43.5909C339.896 43.3333 340.511 43.2045 341.182 43.2045C341.902 43.2045 342.519 43.3504 343.034 43.642C343.549 43.9299 343.945 44.3106 344.222 44.7841C344.498 45.2576 344.636 45.7689 344.636 46.3182C344.636 46.9735 344.464 47.5322 344.119 47.9943C343.778 48.4564 343.314 48.7765 342.727 48.9545V49.0455C343.462 49.1667 344.036 49.4792 344.449 49.983C344.862 50.483 345.068 51.1023 345.068 51.8409C345.068 52.4735 344.896 53.0417 344.551 53.5455C344.21 54.0455 343.744 54.4394 343.153 54.7273C342.563 55.0152 341.89 55.1591 341.136 55.1591ZM347.119 52.6136V51.4545L352.233 43.3636H353.074V45.1591H352.506L348.642 51.2727V51.3636H355.528V52.6136H347.119ZM352.597 55V52.2614V51.7216V43.3636H353.938V55H352.597ZM357.862 55V43.3636H359.271V49.1364H359.408L364.635 43.3636H366.476L361.589 48.6136L366.476 55H364.771L360.726 49.5909L359.271 51.2273V55H357.862Z" fill="black"/>
<g opacity="0.3" filter="url(#filter1_i_127_44128)">
<rect x="170" y="240" width="45" height="45" rx="10" fill="#B1EC02"/>
</g>
<g filter="url(#filter2_d_127_44128)">
<rect x="34" y="92" width="358" height="223" rx="10" fill="white" shape-rendering="crispEdges"/>
<rect x="34.5" y="92.5" width="357" height="222" rx="9.5" stroke="#EDF2EC" shape-rendering="crispEdges"/>
<rect x="44" y="102" width="20" height="20" rx="3" fill="url(#paint0_linear_127_44128)"/>
<rect x="74" y="109" width="308" height="6" rx="3" fill="#111111" fill-opacity="0.05"/>
<mask id="path-20-inside-1_127_44128" fill="white">
<path d="M34 132H66V164H34V132Z"/>
</mask>
<path d="M66 132H67V131H66V132ZM34 132V133H66V132V131H34V132ZM66 132H65V164H66H67V132H66Z" fill="#D9D9D9" fill-opacity="0.4" mask="url(#path-20-inside-1_127_44128)"/>
<mask id="path-22-inside-2_127_44128" fill="white">
<path d="M66 132H146V164H66V132Z"/>
</mask>
<path d="M146 132H147V131H146V132ZM66 132V133H146V132V131H66V132ZM146 132H145V164H146H147V132H146Z" fill="#D9D9D9" fill-opacity="0.4" mask="url(#path-22-inside-2_127_44128)"/>
<mask id="path-24-inside-3_127_44128" fill="white">
<path d="M146 132H392V164H146V132Z"/>
</mask>
<path d="M146 132V133H392V132V131H146V132Z" fill="#D9D9D9" fill-opacity="0.4" mask="url(#path-24-inside-3_127_44128)"/>
<mask id="path-26-inside-4_127_44128" fill="white">
<path d="M34 164H66V196H34V164Z"/>
</mask>
<path d="M66 164H67V163H66V164ZM34 164V165H66V164V163H34V164ZM66 164H65V196H66H67V164H66Z" fill="#D9D9D9" fill-opacity="0.4" mask="url(#path-26-inside-4_127_44128)"/>
<mask id="path-28-inside-5_127_44128" fill="white">
<path d="M66 164H146V196H66V164Z"/>
</mask>
<path d="M146 164H147V163H146V164ZM66 164V165H146V164V163H66V164ZM146 164H145V196H146H147V164H146Z" fill="#D9D9D9" fill-opacity="0.4" mask="url(#path-28-inside-5_127_44128)"/>
<mask id="path-30-inside-6_127_44128" fill="white">
<path d="M146 164H392V196H146V164Z"/>
</mask>
<path d="M146 164V165H392V164V163H146V164Z" fill="#D9D9D9" fill-opacity="0.4" mask="url(#path-30-inside-6_127_44128)"/>
<mask id="path-32-inside-7_127_44128" fill="white">
<path d="M34 196H66V228H34V196Z"/>
</mask>
<path d="M66 196H67V195H66V196ZM34 196V197H66V196V195H34V196ZM66 196H65V228H66H67V196H66Z" fill="#D9D9D9" fill-opacity="0.4" mask="url(#path-32-inside-7_127_44128)"/>
<mask id="path-34-inside-8_127_44128" fill="white">
<path d="M66 196H146V228H66V196Z"/>
</mask>
<path d="M146 196H147V195H146V196ZM66 196V197H146V196V195H66V196ZM146 196H145V228H146H147V196H146Z" fill="#D9D9D9" fill-opacity="0.4" mask="url(#path-34-inside-8_127_44128)"/>
<mask id="path-36-inside-9_127_44128" fill="white">
<path d="M146 196H392V228H146V196Z"/>
</mask>
<path d="M146 196V197H392V196V195H146V196Z" fill="#D9D9D9" fill-opacity="0.4" mask="url(#path-36-inside-9_127_44128)"/>
<mask id="path-38-inside-10_127_44128" fill="white">
<path d="M34 228H66V260H34V228Z"/>
</mask>
<path d="M66 228H67V227H66V228ZM34 228V229H66V228V227H34V228ZM66 228H65V260H66H67V228H66Z" fill="#D9D9D9" fill-opacity="0.4" mask="url(#path-38-inside-10_127_44128)"/>
<mask id="path-40-inside-11_127_44128" fill="white">
<path d="M66 228H146V260H66V228Z"/>
</mask>
<path d="M146 228H147V227H146V228ZM66 228V229H146V228V227H66V228ZM146 228H145V260H146H147V228H146Z" fill="#D9D9D9" fill-opacity="0.4" mask="url(#path-40-inside-11_127_44128)"/>
<mask id="path-42-inside-12_127_44128" fill="white">
<path d="M146 228H392V260H146V228Z"/>
</mask>
<path d="M146 228V229H392V228V227H146V228Z" fill="#D9D9D9" fill-opacity="0.4" mask="url(#path-42-inside-12_127_44128)"/>
</g>
<g filter="url(#filter3_d_127_44128)">
<rect x="351" y="134" width="50" height="50" rx="10" fill="white" shape-rendering="crispEdges"/>
<rect x="351.5" y="134.5" width="49" height="49" rx="9.5" stroke="#F6F6F6" shape-rendering="crispEdges"/>
<g filter="url(#filter4_d_127_44128)">
<path d="M391 159C391 156.533 390.392 154.105 389.229 151.929C388.066 149.754 386.385 147.898 384.334 146.528C382.283 145.157 379.925 144.314 377.47 144.072C375.015 143.83 372.539 144.198 370.26 145.142C367.981 146.086 365.97 147.577 364.405 149.484C362.84 151.391 361.769 153.654 361.288 156.074C360.807 158.493 360.93 160.994 361.646 163.354C362.362 165.715 363.649 167.862 365.393 169.607L368.358 166.642C367.101 165.385 366.174 163.838 365.658 162.137C365.142 160.437 365.053 158.635 365.4 156.892C365.747 155.148 366.518 153.518 367.646 152.144C368.773 150.77 370.222 149.695 371.864 149.015C373.506 148.335 375.291 148.07 377.059 148.244C378.828 148.419 380.527 149.026 382.004 150.014C383.482 151.001 384.694 152.338 385.532 153.905C386.369 155.473 386.808 157.223 386.808 159H391Z" fill="#2BCD00"/>
<path d="M391 159C391 161.967 390.12 164.867 388.472 167.334C386.824 169.8 384.481 171.723 381.74 172.858C378.999 173.994 375.983 174.291 373.074 173.712C370.164 173.133 367.491 171.704 365.393 169.607L366.715 168.285C368.551 170.122 370.891 171.372 373.438 171.879C375.985 172.386 378.626 172.126 381.025 171.132C383.425 170.138 385.475 168.455 386.918 166.295C388.361 164.136 389.131 161.597 389.131 159H391Z" fill="#F2F2F2"/>
</g>
</g>
</g>
<defs>
<filter id="filter0_d_127_44128" x="-100.889" y="-64.2222" width="378.278" height="293.778" filterUnits="userSpaceOnUse" color-interpolation-filters="sRGB">
<feFlood flood-opacity="0" result="BackgroundImageFix"/>
<feColorMatrix in="SourceAlpha" type="matrix" values="0 0 0 0 0 0 0 0 0 0 0 0 0 0 0 0 0 0 127 0" result="hardAlpha"/>
<feOffset dy="36.6667"/>
<feGaussianBlur stdDeviation="57.4444"/>
<feComposite in2="hardAlpha" operator="out"/>
<feColorMatrix type="matrix" values="0 0 0 0 0.027451 0 0 0 0 0.768627 0 0 0 0 0.305882 0 0 0 0.1 0"/>
<feBlend mode="normal" in2="BackgroundImageFix" result="effect1_dropShadow_127_44128"/>
<feBlend mode="normal" in="SourceGraphic" in2="effect1_dropShadow_127_44128" result="shape"/>
</filter>
<filter id="filter1_i_127_44128" x="170" y="240" width="45" height="52" filterUnits="userSpaceOnUse" color-interpolation-filters="sRGB">
<feFlood flood-opacity="0" result="BackgroundImageFix"/>
<feBlend mode="normal" in="SourceGraphic" in2="BackgroundImageFix" result="shape"/>
<feColorMatrix in="SourceAlpha" type="matrix" values="0 0 0 0 0 0 0 0 0 0 0 0 0 0 0 0 0 0 127 0" result="hardAlpha"/>
<feOffset dy="7"/>
<feGaussianBlur stdDeviation="5"/>
<feComposite in2="hardAlpha" operator="arithmetic" k2="-1" k3="1"/>
<feColorMatrix type="matrix" values="0 0 0 0 0.976471 0 0 0 0 1 0 0 0 0 0.980392 0 0 0 0.6 0"/>
<feBlend mode="normal" in2="shape" result="effect1_innerShadow_127_44128"/>
</filter>
<filter id="filter2_d_127_44128" x="10" y="72" width="406" height="271" filterUnits="userSpaceOnUse" color-interpolation-filters="sRGB">
<feFlood flood-opacity="0" result="BackgroundImageFix"/>
<feColorMatrix in="SourceAlpha" type="matrix" values="0 0 0 0 0 0 0 0 0 0 0 0 0 0 0 0 0 0 127 0" result="hardAlpha"/>
<feOffset dy="4"/>
<feGaussianBlur stdDeviation="12"/>
<feComposite in2="hardAlpha" operator="out"/>
<feColorMatrix type="matrix" values="0 0 0 0 0 0 0 0 0 0 0 0 0 0 0 0 0 0 0.14 0"/>
<feBlend mode="normal" in2="BackgroundImageFix" result="effect1_dropShadow_127_44128"/>
<feBlend mode="normal" in="SourceGraphic" in2="effect1_dropShadow_127_44128" result="shape"/>
</filter>
<filter id="filter3_d_127_44128" x="347" y="134" width="58" height="58" filterUnits="userSpaceOnUse" color-interpolation-filters="sRGB">
<feFlood flood-opacity="0" result="BackgroundImageFix"/>
<feColorMatrix in="SourceAlpha" type="matrix" values="0 0 0 0 0 0 0 0 0 0 0 0 0 0 0 0 0 0 127 0" result="hardAlpha"/>
<feOffset dy="4"/>
<feGaussianBlur stdDeviation="2"/>
<feComposite in2="hardAlpha" operator="out"/>
<feColorMatrix type="matrix" values="0 0 0 0 0 0 0 0 0 0 0 0 0 0 0 0 0 0 0.04 0"/>
<feBlend mode="normal" in2="BackgroundImageFix" result="effect1_dropShadow_127_44128"/>
<feBlend mode="normal" in="SourceGraphic" in2="effect1_dropShadow_127_44128" result="shape"/>
</filter>
<filter id="filter4_d_127_44128" x="284.407" y="91.8519" width="183.185" height="183.185" filterUnits="userSpaceOnUse" color-interpolation-filters="sRGB">
<feFlood flood-opacity="0" result="BackgroundImageFix"/>
<feColorMatrix in="SourceAlpha" type="matrix" values="0 0 0 0 0 0 0 0 0 0 0 0 0 0 0 0 0 0 127 0" result="hardAlpha"/>
<feOffset dy="24.4444"/>
<feGaussianBlur stdDeviation="38.2963"/>
<feComposite in2="hardAlpha" operator="out"/>
<feColorMatrix type="matrix" values="0 0 0 0 0.027451 0 0 0 0 0.768627 0 0 0 0 0.305882 0 0 0 1 0"/>
<feBlend mode="normal" in2="BackgroundImageFix" result="effect1_dropShadow_127_44128"/>
<feBlend mode="normal" in="SourceGraphic" in2="effect1_dropShadow_127_44128" result="shape"/>
</filter>
<linearGradient id="paint0_linear_127_44128" x1="44.0287" y1="102.03" x2="63.972" y2="121.97" gradientUnits="userSpaceOnUse">
<stop stop-color="#5EDD4D"/>
<stop offset="1" stop-color="#05CE6C"/>
</linearGradient>
<clipPath id="clip0_127_44128">
<rect width="386" height="260" fill="white"/>
</clipPath>
</defs>
</svg>
