<svg width="386" height="260" viewBox="0 0 386 260" fill="none" xmlns="http://www.w3.org/2000/svg" xmlns:xlink="http://www.w3.org/1999/xlink">
<g clip-path="url(#clip0_127_34093)">
<rect x="4" y="4" width="378" height="252" rx="16" fill="url(#pattern0_127_34093)" fill-opacity="0.22"/>
<g opacity="0.3" filter="url(#filter0_i_127_34093)">
<rect x="213" y="241" width="45" height="45" rx="10" fill="#B1EC02"/>
</g>
<g opacity="0.3" filter="url(#filter1_i_127_34093)">
<rect x="345" y="19" width="45" height="45" rx="10" fill="#B1EC02"/>
</g>
<g opacity="0.3" filter="url(#filter2_i_127_34093)">
<rect x="-5" y="64" width="45" height="45" rx="10" fill="#B1EC02"/>
</g>
<g filter="url(#filter3_d_127_34093)">
<rect x="55" y="90" width="276" height="80" rx="10" fill="white" shape-rendering="crispEdges"/>
<rect x="54.5" y="89.5" width="277" height="81" rx="10.5" stroke="url(#paint0_linear_127_34093)" shape-rendering="crispEdges"/>
<g filter="url(#filter4_d_127_34093)">
<path d="M120.896 118.199C122.24 117.979 123.607 117.941 124.961 118.087L125.288 118.128C126.152 118.247 127.296 118.407 127.944 119.056C128.474 119.585 128.678 120.447 128.8 121.217L128.872 121.712C129.034 122.879 129.076 124.407 128.8 126.104C128.256 129.455 126.473 133.453 121.994 136.548C121.97 136.789 121.969 137.033 121.974 137.276L121.987 137.641C122.007 138.201 122.028 138.76 121.871 139.305C121.628 140.151 120.76 140.708 119.948 141.108L119.551 141.297L119.038 141.522C118.079 141.93 116.783 142.348 115.972 141.535C115.485 141.049 115.285 140.337 115.122 139.628L115.062 139.362C114.993 139.027 114.908 138.696 114.806 138.37C114.742 138.182 114.672 137.991 114.598 137.799C114.516 137.899 114.429 137.996 114.337 138.088C113.895 138.53 113.235 138.839 112.692 139.056C112.098 139.29 111.426 139.496 110.804 139.665L110.485 139.749L109.873 139.902L109.32 140.03L108.656 140.171L108.242 140.252C108.036 140.29 107.823 140.278 107.622 140.216C107.422 140.153 107.24 140.043 107.091 139.894C106.943 139.746 106.832 139.564 106.77 139.363C106.707 139.163 106.694 138.95 106.733 138.743L106.843 138.19L107.041 137.295L107.199 136.642L107.321 136.18C107.49 135.559 107.695 134.887 107.931 134.295C108.146 133.75 108.455 133.09 108.898 132.647L109 132.549L108.918 132.516C108.699 132.432 108.476 132.356 108.252 132.288L107.898 132.18C107.008 131.91 106.056 131.62 105.465 131.028C104.747 130.312 104.989 129.22 105.335 128.312L105.477 127.961L105.703 127.448L105.892 127.051C106.292 126.241 106.85 125.373 107.696 125.129C108.144 125.001 108.611 124.993 109.08 125.006L109.362 125.015C109.729 125.027 110.095 125.041 110.452 125.007C113.547 120.527 117.545 118.743 120.896 118.199ZM111.494 133.876C111.248 133.862 111.002 133.921 110.788 134.046L110.65 134.14L110.532 134.244L110.374 134.443C110.046 134.918 109.86 135.575 109.715 136.188L109.578 136.778L109.514 137.048L109.755 136.989L110.282 136.868C111.012 136.698 111.821 136.477 112.319 136.029C112.535 135.813 112.665 135.526 112.686 135.221C112.706 134.916 112.614 134.613 112.429 134.37L112.326 134.252L112.295 134.223L112.177 134.122C111.978 133.975 111.741 133.889 111.494 133.876ZM121.242 125.319C119.869 123.945 117.522 124.574 117.02 126.45C116.905 126.878 116.905 127.329 117.02 127.757C117.134 128.185 117.359 128.575 117.672 128.889C119.045 130.263 121.393 129.635 121.896 127.758C122.01 127.33 122.01 126.879 121.896 126.451C121.781 126.023 121.556 125.633 121.242 125.319Z" fill="url(#paint1_linear_127_34093)"/>
</g>
<mask id="path-9-outside-1_127_34093" maskUnits="userSpaceOnUse" x="140" y="118" width="142" height="31" fill="black">
<rect fill="white" x="140" y="118" width="142" height="31"/>
<path d="M145.807 119.182V141H141.194V119.182H145.807ZM155.555 131.54V141H151.017V124.636H155.342V127.523H155.534C155.896 126.572 156.504 125.819 157.356 125.265C158.208 124.704 159.242 124.423 160.456 124.423C161.592 124.423 162.583 124.672 163.428 125.169C164.274 125.666 164.93 126.376 165.399 127.3C165.868 128.216 166.102 129.31 166.102 130.581V141H161.564V131.391C161.571 130.389 161.315 129.608 160.797 129.047C160.278 128.479 159.565 128.195 158.656 128.195C158.045 128.195 157.505 128.326 157.036 128.589C156.575 128.852 156.212 129.235 155.95 129.739C155.694 130.237 155.563 130.837 155.555 131.54ZM184.794 129.303L180.639 129.558C180.568 129.203 180.416 128.884 180.181 128.599C179.947 128.308 179.638 128.077 179.255 127.907C178.878 127.729 178.427 127.641 177.902 127.641C177.198 127.641 176.605 127.79 176.122 128.088C175.639 128.379 175.398 128.77 175.398 129.26C175.398 129.651 175.554 129.981 175.867 130.251C176.179 130.521 176.715 130.737 177.475 130.901L180.437 131.497C182.028 131.824 183.214 132.349 183.995 133.074C184.777 133.798 185.167 134.75 185.167 135.929C185.167 137.001 184.851 137.942 184.219 138.752C183.594 139.562 182.735 140.194 181.641 140.648C180.554 141.096 179.301 141.32 177.88 141.32C175.714 141.32 173.988 140.869 172.703 139.967C171.424 139.058 170.675 137.822 170.455 136.259L174.919 136.025C175.054 136.685 175.38 137.19 175.899 137.538C176.417 137.879 177.081 138.049 177.891 138.049C178.686 138.049 179.326 137.896 179.809 137.591C180.299 137.278 180.547 136.877 180.554 136.387C180.547 135.975 180.373 135.638 180.032 135.375C179.691 135.105 179.166 134.899 178.456 134.757L175.622 134.192C174.024 133.873 172.834 133.319 172.053 132.531C171.279 131.742 170.892 130.737 170.892 129.516C170.892 128.464 171.176 127.559 171.744 126.799C172.319 126.039 173.125 125.453 174.162 125.041C175.206 124.629 176.428 124.423 177.827 124.423C179.894 124.423 181.52 124.86 182.706 125.734C183.899 126.607 184.595 127.797 184.794 129.303ZM198.229 124.636V128.045H188.374V124.636H198.229ZM190.612 120.716H195.15V135.972C195.15 136.391 195.214 136.717 195.342 136.952C195.47 137.179 195.647 137.339 195.874 137.431C196.109 137.523 196.379 137.57 196.684 137.57C196.897 137.57 197.11 137.552 197.323 137.516C197.536 137.474 197.7 137.442 197.813 137.42L198.527 140.798C198.3 140.869 197.98 140.95 197.568 141.043C197.156 141.142 196.656 141.202 196.066 141.224C194.972 141.266 194.014 141.121 193.19 140.787C192.373 140.453 191.737 139.935 191.283 139.232C190.828 138.528 190.604 137.641 190.612 136.568V120.716ZM207.351 141.309C206.307 141.309 205.377 141.128 204.56 140.766C203.743 140.396 203.097 139.853 202.621 139.136C202.152 138.411 201.918 137.509 201.918 136.43C201.918 135.521 202.085 134.757 202.419 134.139C202.753 133.521 203.207 133.024 203.782 132.648C204.358 132.271 205.011 131.987 205.743 131.795C206.481 131.604 207.255 131.469 208.065 131.391C209.017 131.291 209.784 131.199 210.366 131.114C210.949 131.021 211.371 130.886 211.634 130.709C211.897 130.531 212.028 130.268 212.028 129.92V129.857C212.028 129.182 211.815 128.66 211.389 128.29C210.97 127.921 210.373 127.737 209.599 127.737C208.782 127.737 208.133 127.918 207.65 128.28C207.167 128.635 206.847 129.082 206.691 129.622L202.493 129.281C202.706 128.287 203.125 127.428 203.75 126.703C204.375 125.972 205.182 125.411 206.169 125.02C207.163 124.622 208.314 124.423 209.62 124.423C210.53 124.423 211.4 124.53 212.231 124.743C213.069 124.956 213.811 125.286 214.457 125.734C215.111 126.181 215.625 126.756 216.002 127.46C216.378 128.156 216.566 128.99 216.566 129.963V141H212.263V138.731H212.135C211.872 139.242 211.52 139.693 211.08 140.084C210.64 140.467 210.111 140.769 209.493 140.989C208.875 141.202 208.161 141.309 207.351 141.309ZM208.651 138.177C209.319 138.177 209.908 138.045 210.419 137.783C210.931 137.513 211.332 137.151 211.623 136.696C211.915 136.241 212.06 135.727 212.06 135.151V133.415C211.918 133.507 211.723 133.592 211.474 133.67C211.233 133.741 210.959 133.809 210.654 133.873C210.348 133.93 210.043 133.983 209.738 134.033C209.432 134.075 209.155 134.114 208.907 134.15C208.374 134.228 207.909 134.352 207.511 134.523C207.113 134.693 206.804 134.924 206.584 135.215C206.364 135.499 206.254 135.854 206.254 136.281C206.254 136.898 206.478 137.371 206.925 137.697C207.38 138.017 207.955 138.177 208.651 138.177ZM226.126 131.54V141H221.587V124.636H225.913V127.523H226.104C226.467 126.572 227.074 125.819 227.926 125.265C228.778 124.704 229.812 124.423 231.026 124.423C232.163 124.423 233.153 124.672 233.999 125.169C234.844 125.666 235.501 126.376 235.97 127.3C236.438 128.216 236.673 129.31 236.673 130.581V141H232.134V131.391C232.141 130.389 231.886 129.608 231.367 129.047C230.849 128.479 230.135 128.195 229.226 128.195C228.615 128.195 228.075 128.326 227.607 128.589C227.145 128.852 226.783 129.235 226.52 129.739C226.264 130.237 226.133 130.837 226.126 131.54ZM250.453 124.636V128.045H240.599V124.636H250.453ZM242.836 120.716H247.375V135.972C247.375 136.391 247.438 136.717 247.566 136.952C247.694 137.179 247.872 137.339 248.099 137.431C248.333 137.523 248.603 137.57 248.909 137.57C249.122 137.57 249.335 137.552 249.548 137.516C249.761 137.474 249.924 137.442 250.038 137.42L250.752 140.798C250.524 140.869 250.205 140.95 249.793 141.043C249.381 141.142 248.88 141.202 248.291 141.224C247.197 141.266 246.238 141.121 245.414 140.787C244.598 140.453 243.962 139.935 243.507 139.232C243.053 138.528 242.829 137.641 242.836 136.568V120.716ZM259.8 119.182V141H255.261V119.182H259.8ZM267.737 147.136C267.162 147.136 266.622 147.09 266.118 146.998C265.62 146.913 265.209 146.803 264.882 146.668L265.905 143.28C266.437 143.443 266.917 143.532 267.343 143.546C267.776 143.56 268.149 143.461 268.461 143.248C268.781 143.035 269.04 142.673 269.239 142.161L269.505 141.469L263.635 124.636H268.408L271.796 136.653H271.966L275.386 124.636H280.191L273.831 142.768C273.525 143.649 273.11 144.416 272.584 145.07C272.066 145.73 271.409 146.238 270.613 146.593C269.818 146.955 268.859 147.136 267.737 147.136Z"/>
</mask>
<g filter="url(#filter5_i_127_34093)">
<path d="M145.807 119.182V141H141.194V119.182H145.807ZM155.555 131.54V141H151.017V124.636H155.342V127.523H155.534C155.896 126.572 156.504 125.819 157.356 125.265C158.208 124.704 159.242 124.423 160.456 124.423C161.592 124.423 162.583 124.672 163.428 125.169C164.274 125.666 164.93 126.376 165.399 127.3C165.868 128.216 166.102 129.31 166.102 130.581V141H161.564V131.391C161.571 130.389 161.315 129.608 160.797 129.047C160.278 128.479 159.565 128.195 158.656 128.195C158.045 128.195 157.505 128.326 157.036 128.589C156.575 128.852 156.212 129.235 155.95 129.739C155.694 130.237 155.563 130.837 155.555 131.54ZM184.794 129.303L180.639 129.558C180.568 129.203 180.416 128.884 180.181 128.599C179.947 128.308 179.638 128.077 179.255 127.907C178.878 127.729 178.427 127.641 177.902 127.641C177.198 127.641 176.605 127.79 176.122 128.088C175.639 128.379 175.398 128.77 175.398 129.26C175.398 129.651 175.554 129.981 175.867 130.251C176.179 130.521 176.715 130.737 177.475 130.901L180.437 131.497C182.028 131.824 183.214 132.349 183.995 133.074C184.777 133.798 185.167 134.75 185.167 135.929C185.167 137.001 184.851 137.942 184.219 138.752C183.594 139.562 182.735 140.194 181.641 140.648C180.554 141.096 179.301 141.32 177.88 141.32C175.714 141.32 173.988 140.869 172.703 139.967C171.424 139.058 170.675 137.822 170.455 136.259L174.919 136.025C175.054 136.685 175.38 137.19 175.899 137.538C176.417 137.879 177.081 138.049 177.891 138.049C178.686 138.049 179.326 137.896 179.809 137.591C180.299 137.278 180.547 136.877 180.554 136.387C180.547 135.975 180.373 135.638 180.032 135.375C179.691 135.105 179.166 134.899 178.456 134.757L175.622 134.192C174.024 133.873 172.834 133.319 172.053 132.531C171.279 131.742 170.892 130.737 170.892 129.516C170.892 128.464 171.176 127.559 171.744 126.799C172.319 126.039 173.125 125.453 174.162 125.041C175.206 124.629 176.428 124.423 177.827 124.423C179.894 124.423 181.52 124.86 182.706 125.734C183.899 126.607 184.595 127.797 184.794 129.303ZM198.229 124.636V128.045H188.374V124.636H198.229ZM190.612 120.716H195.15V135.972C195.15 136.391 195.214 136.717 195.342 136.952C195.47 137.179 195.647 137.339 195.874 137.431C196.109 137.523 196.379 137.57 196.684 137.57C196.897 137.57 197.11 137.552 197.323 137.516C197.536 137.474 197.7 137.442 197.813 137.42L198.527 140.798C198.3 140.869 197.98 140.95 197.568 141.043C197.156 141.142 196.656 141.202 196.066 141.224C194.972 141.266 194.014 141.121 193.19 140.787C192.373 140.453 191.737 139.935 191.283 139.232C190.828 138.528 190.604 137.641 190.612 136.568V120.716ZM207.351 141.309C206.307 141.309 205.377 141.128 204.56 140.766C203.743 140.396 203.097 139.853 202.621 139.136C202.152 138.411 201.918 137.509 201.918 136.43C201.918 135.521 202.085 134.757 202.419 134.139C202.753 133.521 203.207 133.024 203.782 132.648C204.358 132.271 205.011 131.987 205.743 131.795C206.481 131.604 207.255 131.469 208.065 131.391C209.017 131.291 209.784 131.199 210.366 131.114C210.949 131.021 211.371 130.886 211.634 130.709C211.897 130.531 212.028 130.268 212.028 129.92V129.857C212.028 129.182 211.815 128.66 211.389 128.29C210.97 127.921 210.373 127.737 209.599 127.737C208.782 127.737 208.133 127.918 207.65 128.28C207.167 128.635 206.847 129.082 206.691 129.622L202.493 129.281C202.706 128.287 203.125 127.428 203.75 126.703C204.375 125.972 205.182 125.411 206.169 125.02C207.163 124.622 208.314 124.423 209.62 124.423C210.53 124.423 211.4 124.53 212.231 124.743C213.069 124.956 213.811 125.286 214.457 125.734C215.111 126.181 215.625 126.756 216.002 127.46C216.378 128.156 216.566 128.99 216.566 129.963V141H212.263V138.731H212.135C211.872 139.242 211.52 139.693 211.08 140.084C210.64 140.467 210.111 140.769 209.493 140.989C208.875 141.202 208.161 141.309 207.351 141.309ZM208.651 138.177C209.319 138.177 209.908 138.045 210.419 137.783C210.931 137.513 211.332 137.151 211.623 136.696C211.915 136.241 212.06 135.727 212.06 135.151V133.415C211.918 133.507 211.723 133.592 211.474 133.67C211.233 133.741 210.959 133.809 210.654 133.873C210.348 133.93 210.043 133.983 209.738 134.033C209.432 134.075 209.155 134.114 208.907 134.15C208.374 134.228 207.909 134.352 207.511 134.523C207.113 134.693 206.804 134.924 206.584 135.215C206.364 135.499 206.254 135.854 206.254 136.281C206.254 136.898 206.478 137.371 206.925 137.697C207.38 138.017 207.955 138.177 208.651 138.177ZM226.126 131.54V141H221.587V124.636H225.913V127.523H226.104C226.467 126.572 227.074 125.819 227.926 125.265C228.778 124.704 229.812 124.423 231.026 124.423C232.163 124.423 233.153 124.672 233.999 125.169C234.844 125.666 235.501 126.376 235.97 127.3C236.438 128.216 236.673 129.31 236.673 130.581V141H232.134V131.391C232.141 130.389 231.886 129.608 231.367 129.047C230.849 128.479 230.135 128.195 229.226 128.195C228.615 128.195 228.075 128.326 227.607 128.589C227.145 128.852 226.783 129.235 226.52 129.739C226.264 130.237 226.133 130.837 226.126 131.54ZM250.453 124.636V128.045H240.599V124.636H250.453ZM242.836 120.716H247.375V135.972C247.375 136.391 247.438 136.717 247.566 136.952C247.694 137.179 247.872 137.339 248.099 137.431C248.333 137.523 248.603 137.57 248.909 137.57C249.122 137.57 249.335 137.552 249.548 137.516C249.761 137.474 249.924 137.442 250.038 137.42L250.752 140.798C250.524 140.869 250.205 140.95 249.793 141.043C249.381 141.142 248.88 141.202 248.291 141.224C247.197 141.266 246.238 141.121 245.414 140.787C244.598 140.453 243.962 139.935 243.507 139.232C243.053 138.528 242.829 137.641 242.836 136.568V120.716ZM259.8 119.182V141H255.261V119.182H259.8ZM267.737 147.136C267.162 147.136 266.622 147.09 266.118 146.998C265.62 146.913 265.209 146.803 264.882 146.668L265.905 143.28C266.437 143.443 266.917 143.532 267.343 143.546C267.776 143.56 268.149 143.461 268.461 143.248C268.781 143.035 269.04 142.673 269.239 142.161L269.505 141.469L263.635 124.636H268.408L271.796 136.653H271.966L275.386 124.636H280.191L273.831 142.768C273.525 143.649 273.11 144.416 272.584 145.07C272.066 145.73 271.409 146.238 270.613 146.593C269.818 146.955 268.859 147.136 267.737 147.136Z" fill="url(#paint2_linear_127_34093)" fill-opacity="0.3"/>
</g>
<path d="M145.807 119.182H146.807V118.182H145.807V119.182ZM145.807 141V142H146.807V141H145.807ZM141.194 141H140.194V142H141.194V141ZM141.194 119.182V118.182H140.194V119.182H141.194ZM145.807 119.182H144.807V141H145.807H146.807V119.182H145.807ZM145.807 141V140H141.194V141V142H145.807V141ZM141.194 141H142.194V119.182H141.194H140.194V141H141.194ZM141.194 119.182V120.182H145.807V119.182V118.182H141.194V119.182ZM155.555 131.54L154.555 131.53V131.54H155.555ZM155.555 141V142H156.555V141H155.555ZM151.017 141H150.017V142H151.017V141ZM151.017 124.636V123.636H150.017V124.636H151.017ZM155.342 124.636H156.342V123.636H155.342V124.636ZM155.342 127.523H154.342V128.523H155.342V127.523ZM155.534 127.523V128.523H156.224L156.469 127.879L155.534 127.523ZM157.356 125.265L157.901 126.103L157.906 126.1L157.356 125.265ZM163.428 125.169L163.935 124.307L163.428 125.169ZM165.399 127.3L164.508 127.752L164.509 127.755L165.399 127.3ZM166.102 141V142H167.102V141H166.102ZM161.564 141H160.564V142H161.564V141ZM161.564 131.391L160.564 131.384V131.391H161.564ZM160.797 129.047L160.058 129.721L160.063 129.726L160.797 129.047ZM157.036 128.589L156.547 127.716L156.542 127.72L157.036 128.589ZM155.95 129.739L155.063 129.277L155.06 129.282L155.95 129.739ZM155.555 131.54H154.555V141H155.555H156.555V131.54H155.555ZM155.555 141V140H151.017V141V142H155.555V141ZM151.017 141H152.017V124.636H151.017H150.017V141H151.017ZM151.017 124.636V125.636H155.342V124.636V123.636H151.017V124.636ZM155.342 124.636H154.342V127.523H155.342H156.342V124.636H155.342ZM155.342 127.523V128.523H155.534V127.523V126.523H155.342V127.523ZM155.534 127.523L156.469 127.879C156.756 127.125 157.227 126.542 157.901 126.103L157.356 125.265L156.811 124.426C155.781 125.096 155.037 126.018 154.6 127.168L155.534 127.523ZM157.356 125.265L157.906 126.1C158.566 125.666 159.399 125.423 160.456 125.423V124.423V123.423C159.084 123.423 157.85 123.742 156.806 124.43L157.356 125.265ZM160.456 124.423V125.423C161.443 125.423 162.253 125.638 162.921 126.031L163.428 125.169L163.935 124.307C162.914 123.706 161.742 123.423 160.456 123.423V124.423ZM163.428 125.169L162.921 126.031C163.592 126.426 164.12 126.989 164.508 127.752L165.399 127.3L166.291 126.847C165.741 125.763 164.955 124.907 163.935 124.307L163.428 125.169ZM165.399 127.3L164.509 127.755C164.891 128.501 165.102 129.431 165.102 130.581H166.102H167.102C167.102 129.188 166.845 127.931 166.289 126.844L165.399 127.3ZM166.102 130.581H165.102V141H166.102H167.102V130.581H166.102ZM166.102 141V140H161.564V141V142H166.102V141ZM161.564 141H162.564V131.391H161.564H160.564V141H161.564ZM161.564 131.391L162.564 131.398C162.572 130.224 162.27 129.168 161.531 128.368L160.797 129.047L160.063 129.726C160.36 130.048 160.57 130.555 160.564 131.384L161.564 131.391ZM160.797 129.047L161.536 128.373C160.793 127.559 159.79 127.195 158.656 127.195V128.195V129.195C159.339 129.195 159.764 129.398 160.058 129.721L160.797 129.047ZM158.656 128.195V127.195C157.897 127.195 157.185 127.359 156.547 127.716L157.036 128.589L157.525 129.461C157.825 129.293 158.192 129.195 158.656 129.195V128.195ZM157.036 128.589L156.542 127.72C155.901 128.084 155.408 128.615 155.063 129.277L155.95 129.739L156.836 130.201C157.017 129.855 157.248 129.619 157.531 129.458L157.036 128.589ZM155.95 129.739L155.06 129.282C154.718 129.949 154.564 130.71 154.556 131.53L155.555 131.54L156.555 131.55C156.561 130.963 156.67 130.524 156.839 130.197L155.95 129.739ZM184.794 129.303L184.856 130.301L185.926 130.235L185.786 129.172L184.794 129.303ZM180.639 129.558L179.659 129.754L179.83 130.61L180.701 130.556L180.639 129.558ZM180.181 128.599L179.402 129.226L179.41 129.236L180.181 128.599ZM179.255 127.907L178.828 128.811L178.838 128.816L178.848 128.821L179.255 127.907ZM176.122 128.088L176.639 128.944L176.648 128.939L176.122 128.088ZM175.867 130.251L175.213 131.008V131.008L175.867 130.251ZM177.475 130.901L177.265 131.878L177.278 131.881L177.475 130.901ZM180.437 131.497L180.638 130.518L180.635 130.517L180.437 131.497ZM183.995 133.074L183.315 133.807L183.995 133.074ZM184.219 138.752L183.431 138.137L183.427 138.141L184.219 138.752ZM181.641 140.648L182.022 141.573L182.025 141.572L181.641 140.648ZM172.703 139.967L172.123 140.782L172.128 140.785L172.703 139.967ZM170.455 136.259L170.402 135.261L169.312 135.318L169.465 136.399L170.455 136.259ZM174.919 136.025L175.898 135.825L175.726 134.981L174.866 135.026L174.919 136.025ZM175.899 137.538L175.341 138.368L175.349 138.373L175.899 137.538ZM179.809 137.591L180.343 138.436L180.346 138.434L179.809 137.591ZM180.554 136.387L181.554 136.402L181.554 136.386L181.554 136.37L180.554 136.387ZM180.032 135.375L179.411 136.159L179.422 136.167L180.032 135.375ZM178.456 134.757L178.652 133.777L178.651 133.776L178.456 134.757ZM175.622 134.192L175.426 135.173L175.426 135.173L175.622 134.192ZM172.053 132.531L171.339 133.231L171.343 133.234L172.053 132.531ZM171.744 126.799L170.947 126.195L170.943 126.2L171.744 126.799ZM174.162 125.041L173.795 124.111L173.793 124.112L174.162 125.041ZM182.706 125.734L182.113 126.539L182.115 126.541L182.706 125.734ZM184.794 129.303L184.733 128.304L180.578 128.56L180.639 129.558L180.701 130.556L184.856 130.301L184.794 129.303ZM180.639 129.558L181.62 129.362C181.516 128.842 181.29 128.372 180.953 127.963L180.181 128.599L179.41 129.236C179.541 129.395 179.621 129.564 179.659 129.754L180.639 129.558ZM180.181 128.599L180.96 127.972C180.615 127.543 180.171 127.22 179.661 126.993L179.255 127.907L178.848 128.821C179.105 128.935 179.279 129.074 179.402 129.226L180.181 128.599ZM179.255 127.907L179.681 127.003C179.141 126.748 178.537 126.641 177.902 126.641V127.641V128.641C178.317 128.641 178.615 128.711 178.828 128.811L179.255 127.907ZM177.902 127.641V126.641C177.057 126.641 176.272 126.821 175.597 127.237L176.122 128.088L176.648 128.939C176.939 128.759 177.34 128.641 177.902 128.641V127.641ZM176.122 128.088L175.606 127.232C174.877 127.671 174.398 128.361 174.398 129.26H175.398H176.398C176.398 129.179 176.402 129.087 176.639 128.944L176.122 128.088ZM175.398 129.26H174.398C174.398 129.96 174.695 130.56 175.213 131.008L175.867 130.251L176.52 129.494C176.414 129.402 176.398 129.342 176.398 129.26H175.398ZM175.867 130.251L175.213 131.008C175.721 131.447 176.462 131.706 177.265 131.878L177.475 130.901L177.686 129.923C176.969 129.769 176.637 129.595 176.52 129.494L175.867 130.251ZM177.475 130.901L177.278 131.881L180.24 132.477L180.437 131.497L180.635 130.517L177.673 129.92L177.475 130.901ZM180.437 131.497L180.236 132.477C181.734 132.784 182.721 133.256 183.315 133.807L183.995 133.074L184.675 132.341C183.707 131.443 182.321 130.863 180.638 130.518L180.437 131.497ZM183.995 133.074L183.315 133.807C183.87 134.321 184.167 134.995 184.167 135.929H185.167H186.167C186.167 134.505 185.684 133.276 184.675 132.341L183.995 133.074ZM185.167 135.929H184.167C184.167 136.789 183.919 137.511 183.431 138.137L184.219 138.752L185.007 139.368C185.783 138.374 186.167 137.214 186.167 135.929H185.167ZM184.219 138.752L183.427 138.141C182.925 138.792 182.216 139.327 181.257 139.725L181.641 140.648L182.025 141.572C183.254 141.061 184.263 140.331 185.011 139.363L184.219 138.752ZM181.641 140.648L181.26 139.724C180.317 140.112 179.197 140.32 177.88 140.32V141.32V142.32C179.405 142.32 180.792 142.08 182.022 141.573L181.641 140.648ZM177.88 141.32V140.32C175.844 140.32 174.341 139.895 173.277 139.148L172.703 139.967L172.128 140.785C173.635 141.842 175.584 142.32 177.88 142.32V141.32ZM172.703 139.967L173.282 139.152C172.229 138.403 171.627 137.412 171.445 136.12L170.455 136.259L169.465 136.399C169.723 138.231 170.619 139.712 172.123 140.782L172.703 139.967ZM170.455 136.259L170.507 137.258L174.971 137.023L174.919 136.025L174.866 135.026L170.402 135.261L170.455 136.259ZM174.919 136.025L173.939 136.225C174.122 137.12 174.586 137.861 175.341 138.368L175.899 137.538L176.456 136.707C176.174 136.518 175.985 136.25 175.898 135.825L174.919 136.025ZM175.899 137.538L175.349 138.373C176.074 138.85 176.945 139.049 177.891 139.049V138.049V137.049C177.218 137.049 176.76 136.907 176.448 136.702L175.899 137.538ZM177.891 138.049V139.049C178.804 139.049 179.649 138.875 180.343 138.436L179.809 137.591L179.274 136.746C179.002 136.918 178.568 137.049 177.891 137.049V138.049ZM179.809 137.591L180.346 138.434C181.059 137.98 181.541 137.294 181.554 136.402L180.554 136.387L179.554 136.373C179.553 136.46 179.538 136.577 179.271 136.748L179.809 137.591ZM180.554 136.387L181.554 136.37C181.541 135.638 181.212 135.022 180.643 134.583L180.032 135.375L179.422 136.167C179.534 136.254 179.553 136.312 179.554 136.404L180.554 136.387ZM180.032 135.375L180.653 134.591C180.132 134.178 179.426 133.931 178.652 133.777L178.456 134.757L178.259 135.738C178.905 135.867 179.251 136.032 179.412 136.159L180.032 135.375ZM178.456 134.757L178.651 133.776L175.817 133.212L175.622 134.192L175.426 135.173L178.26 135.738L178.456 134.757ZM175.622 134.192L175.818 133.212C174.328 132.914 173.353 132.422 172.763 131.827L172.053 132.531L171.343 133.234C172.315 134.216 173.719 134.832 175.426 135.173L175.622 134.192ZM172.053 132.531L172.766 131.83C172.196 131.249 171.892 130.505 171.892 129.516H170.892H169.892C169.892 130.969 170.361 132.235 171.339 133.231L172.053 132.531ZM170.892 129.516H171.892C171.892 128.656 172.12 127.966 172.545 127.398L171.744 126.799L170.943 126.2C170.232 127.152 169.892 128.273 169.892 129.516H170.892ZM171.744 126.799L172.541 127.403C172.989 126.812 173.635 126.327 174.531 125.971L174.162 125.041L173.793 124.112C172.616 124.58 171.65 125.267 170.947 126.195L171.744 126.799ZM174.162 125.041L174.529 125.971C175.431 125.615 176.524 125.423 177.827 125.423V124.423V123.423C176.332 123.423 174.981 123.643 173.795 124.111L174.162 125.041ZM177.827 124.423V125.423C179.764 125.423 181.156 125.834 182.113 126.539L182.706 125.734L183.299 124.928C181.884 123.886 180.023 123.423 177.827 123.423V124.423ZM182.706 125.734L182.115 126.541C183.082 127.248 183.639 128.19 183.803 129.433L184.794 129.303L185.786 129.172C185.552 127.404 184.717 125.966 183.297 124.927L182.706 125.734ZM198.229 124.636H199.229V123.636H198.229V124.636ZM198.229 128.045V129.045H199.229V128.045H198.229ZM188.374 128.045H187.374V129.045H188.374V128.045ZM188.374 124.636V123.636H187.374V124.636H188.374ZM190.612 120.716V119.716H189.612V120.716H190.612ZM195.15 120.716H196.15V119.716H195.15V120.716ZM195.342 136.952L194.464 137.431L194.47 137.442L195.342 136.952ZM195.874 137.431L195.498 138.358L195.508 138.362L195.874 137.431ZM197.323 137.516L197.488 138.503L197.504 138.5L197.519 138.497L197.323 137.516ZM197.813 137.42L198.792 137.214L198.59 136.257L197.629 136.438L197.813 137.42ZM198.527 140.798L198.825 141.752L199.694 141.481L199.505 140.591L198.527 140.798ZM197.568 141.043L197.35 140.067L197.342 140.069L197.334 140.071L197.568 141.043ZM196.066 141.224L196.03 140.224L196.027 140.224L196.066 141.224ZM193.19 140.787L192.811 141.713L192.814 141.714L193.19 140.787ZM191.283 139.232L192.123 138.689L191.283 139.232ZM190.612 136.568L191.612 136.575V136.568H190.612ZM198.229 124.636H197.229V128.045H198.229H199.229V124.636H198.229ZM198.229 128.045V127.045H188.374V128.045V129.045H198.229V128.045ZM188.374 128.045H189.374V124.636H188.374H187.374V128.045H188.374ZM188.374 124.636V125.636H198.229V124.636V123.636H188.374V124.636ZM190.612 120.716V121.716H195.15V120.716V119.716H190.612V120.716ZM195.15 120.716H194.15V135.972H195.15H196.15V120.716H195.15ZM195.15 135.972H194.15C194.15 136.472 194.223 136.989 194.464 137.431L195.342 136.952L196.22 136.473C196.205 136.446 196.15 136.31 196.15 135.972H195.15ZM195.342 136.952L194.47 137.442C194.701 137.853 195.047 138.174 195.498 138.358L195.874 137.431L196.251 136.505C196.245 136.502 196.243 136.501 196.242 136.5C196.241 136.5 196.241 136.5 196.24 136.499C196.239 136.498 196.229 136.489 196.213 136.461L195.342 136.952ZM195.874 137.431L195.508 138.362C195.881 138.508 196.279 138.57 196.684 138.57V137.57V136.57C196.478 136.57 196.337 136.538 196.241 136.501L195.874 137.431ZM196.684 137.57V138.57C196.953 138.57 197.221 138.547 197.488 138.503L197.323 137.516L197.159 136.53C196.999 136.557 196.841 136.57 196.684 136.57V137.57ZM197.323 137.516L197.519 138.497C197.731 138.455 197.89 138.424 197.998 138.403L197.813 137.42L197.629 136.438C197.509 136.46 197.341 136.493 197.127 136.536L197.323 137.516ZM197.813 137.42L196.835 137.627L197.549 141.004L198.527 140.798L199.505 140.591L198.792 137.214L197.813 137.42ZM198.527 140.798L198.229 139.843C198.04 139.902 197.752 139.977 197.35 140.067L197.568 141.043L197.787 142.018C198.209 141.924 198.559 141.835 198.825 141.752L198.527 140.798ZM197.568 141.043L197.334 140.071C197.007 140.149 196.576 140.205 196.03 140.224L196.066 141.224L196.102 142.223C196.735 142.2 197.306 142.135 197.803 142.015L197.568 141.043ZM196.066 141.224L196.027 140.224C195.043 140.263 194.231 140.13 193.565 139.86L193.19 140.787L192.814 141.714C193.796 142.112 194.902 142.27 196.105 142.223L196.066 141.224ZM193.19 140.787L193.568 139.861C192.93 139.6 192.46 139.21 192.123 138.689L191.283 139.232L190.443 139.774C191.015 140.659 191.816 141.306 192.811 141.713L193.19 140.787ZM191.283 139.232L192.123 138.689C191.8 138.189 191.605 137.507 191.612 136.575L190.612 136.568L189.612 136.562C189.604 137.775 189.857 138.867 190.443 139.774L191.283 139.232ZM190.612 136.568H191.612V120.716H190.612H189.612V136.568H190.612ZM204.56 140.766L204.148 141.677L204.155 141.68L204.56 140.766ZM202.621 139.136L201.782 139.679L201.788 139.688L202.621 139.136ZM202.419 134.139L201.539 133.664L202.419 134.139ZM203.782 132.648L203.235 131.811L203.782 132.648ZM205.743 131.795L205.491 130.828L205.489 130.828L205.743 131.795ZM208.065 131.391L208.161 132.386L208.169 132.385L208.065 131.391ZM210.366 131.114L210.511 132.103L210.523 132.101L210.366 131.114ZM211.634 130.709L211.074 129.88V129.88L211.634 130.709ZM211.389 128.29L210.728 129.041L210.734 129.046L211.389 128.29ZM207.65 128.28L208.242 129.086L208.25 129.08L207.65 128.28ZM206.691 129.622L206.61 130.619L207.424 130.685L207.651 129.9L206.691 129.622ZM202.493 129.281L201.516 129.072L201.277 130.186L202.412 130.278L202.493 129.281ZM203.75 126.703L204.508 127.356L204.511 127.353L203.75 126.703ZM206.169 125.02L206.537 125.95L206.54 125.948L206.169 125.02ZM212.231 124.743L211.982 125.712L211.984 125.712L212.231 124.743ZM214.457 125.734L213.888 126.556L213.892 126.559L214.457 125.734ZM216.002 127.46L215.12 127.931L215.122 127.935L216.002 127.46ZM216.566 141V142H217.566V141H216.566ZM212.263 141H211.263V142H212.263V141ZM212.263 138.731H213.263V137.731H212.263V138.731ZM212.135 138.731V137.731H211.524L211.245 138.274L212.135 138.731ZM211.08 140.084L211.737 140.838L211.744 140.832L211.08 140.084ZM209.493 140.989L209.819 141.935L209.828 141.931L209.493 140.989ZM210.419 137.783L210.877 138.672L210.886 138.667L210.419 137.783ZM211.623 136.696L210.781 136.157L211.623 136.696ZM212.06 133.415H213.06V131.572L211.515 132.576L212.06 133.415ZM211.474 133.67L211.756 134.63L211.765 134.627L211.774 134.624L211.474 133.67ZM210.654 133.873L210.837 134.856L210.848 134.854L210.859 134.852L210.654 133.873ZM209.738 134.033L209.876 135.023L209.887 135.022L209.898 135.02L209.738 134.033ZM208.907 134.15L208.765 133.16L208.762 133.16L208.907 134.15ZM207.511 134.523L207.905 135.442L207.511 134.523ZM206.584 135.215L207.375 135.828L207.382 135.818L206.584 135.215ZM206.925 137.697L206.335 138.505L206.343 138.51L206.35 138.515L206.925 137.697ZM207.351 141.309V140.309C206.424 140.309 205.635 140.148 204.966 139.851L204.56 140.766L204.155 141.68C205.119 142.107 206.191 142.309 207.351 142.309V141.309ZM204.56 140.766L204.972 139.854C204.319 139.559 203.822 139.137 203.454 138.583L202.621 139.136L201.788 139.688C202.372 140.569 203.167 141.233 204.148 141.677L204.56 140.766ZM202.621 139.136L203.461 138.592C203.12 138.066 202.918 137.365 202.918 136.43H201.918H200.918C200.918 137.654 201.185 138.756 201.782 139.679L202.621 139.136ZM201.918 136.43H202.918C202.918 135.639 203.063 135.05 203.299 134.615L202.419 134.139L201.539 133.664C201.106 134.465 200.918 135.402 200.918 136.43H201.918ZM202.419 134.139L203.299 134.615C203.555 134.14 203.897 133.768 204.33 133.485L203.782 132.648L203.235 131.811C202.517 132.28 201.95 132.903 201.539 133.664L202.419 134.139ZM203.782 132.648L204.33 133.485C204.806 133.173 205.359 132.93 205.996 132.763L205.743 131.795L205.489 130.828C204.664 131.045 203.909 131.37 203.235 131.811L203.782 132.648ZM205.743 131.795L205.994 132.763C206.678 132.586 207.4 132.459 208.161 132.386L208.065 131.391L207.969 130.395C207.11 130.478 206.284 130.622 205.491 130.828L205.743 131.795ZM208.065 131.391L208.169 132.385C209.127 132.285 209.909 132.191 210.511 132.103L210.366 131.114L210.221 130.124C209.658 130.207 208.906 130.297 207.961 130.396L208.065 131.391ZM210.366 131.114L210.523 132.101C211.146 132.002 211.746 131.84 212.194 131.537L211.634 130.709L211.074 129.88C210.997 129.933 210.751 130.04 210.21 130.126L210.366 131.114ZM211.634 130.709L212.194 131.537C212.762 131.154 213.028 130.563 213.028 129.92H212.028H211.028C211.028 129.945 211.026 129.955 211.026 129.955C211.026 129.955 211.028 129.945 211.035 129.931C211.042 129.917 211.052 129.904 211.061 129.893C211.071 129.882 211.077 129.879 211.074 129.88L211.634 130.709ZM212.028 129.92H213.028V129.857H212.028H211.028V129.92H212.028ZM212.028 129.857H213.028C213.028 128.954 212.732 128.131 212.044 127.535L211.389 128.29L210.734 129.046C210.898 129.188 211.028 129.409 211.028 129.857H212.028ZM211.389 128.29L212.05 127.54C211.389 126.957 210.523 126.737 209.599 126.737V127.737V128.737C210.224 128.737 210.551 128.885 210.728 129.041L211.389 128.29ZM209.599 127.737V126.737C208.641 126.737 207.758 126.949 207.05 127.48L207.65 128.28L208.25 129.08C208.508 128.886 208.923 128.737 209.599 128.737V127.737ZM207.65 128.28L207.057 127.474C206.409 127.95 205.952 128.578 205.73 129.344L206.691 129.622L207.651 129.9C207.742 129.587 207.924 129.319 208.242 129.085L207.65 128.28ZM206.691 129.622L206.772 128.625L202.574 128.285L202.493 129.281L202.412 130.278L206.61 130.619L206.691 129.622ZM202.493 129.281L203.471 129.491C203.651 128.65 203.999 127.946 204.508 127.356L203.75 126.703L202.993 126.05C202.252 126.909 201.761 127.924 201.516 129.072L202.493 129.281ZM203.75 126.703L204.511 127.353C205.019 126.758 205.685 126.287 206.537 125.95L206.169 125.02L205.801 124.09C204.678 124.534 203.732 125.186 202.99 126.054L203.75 126.703ZM206.169 125.02L206.54 125.948C207.393 125.607 208.414 125.423 209.62 125.423V124.423V123.423C208.214 123.423 206.933 123.637 205.797 124.091L206.169 125.02ZM209.62 124.423V125.423C210.451 125.423 211.237 125.521 211.982 125.712L212.231 124.743L212.479 123.774C211.562 123.539 210.608 123.423 209.62 123.423V124.423ZM212.231 124.743L211.984 125.712C212.718 125.899 213.349 126.183 213.888 126.556L214.457 125.734L215.026 124.911C214.273 124.39 213.419 124.013 212.477 123.774L212.231 124.743ZM214.457 125.734L213.892 126.559C214.412 126.915 214.819 127.369 215.12 127.931L216.002 127.46L216.883 126.988C216.432 126.144 215.809 125.447 215.022 124.909L214.457 125.734ZM216.002 127.46L215.122 127.935C215.403 128.455 215.566 129.118 215.566 129.963H216.566H217.566C217.566 128.862 217.353 127.856 216.881 126.984L216.002 127.46ZM216.566 129.963H215.566V141H216.566H217.566V129.963H216.566ZM216.566 141V140H212.263V141V142H216.566V141ZM212.263 141H213.263V138.731H212.263H211.263V141H212.263ZM212.263 138.731V137.731H212.135V138.731V139.731H212.263V138.731ZM212.135 138.731L211.245 138.274C211.04 138.672 210.766 139.025 210.416 139.336L211.08 140.084L211.744 140.832C212.274 140.361 212.703 139.812 213.024 139.188L212.135 138.731ZM211.08 140.084L210.423 139.33C210.088 139.622 209.671 139.864 209.157 140.047L209.493 140.989L209.828 141.931C210.55 141.674 211.191 141.313 211.737 140.838L211.08 140.084ZM209.493 140.989L209.167 140.044C208.675 140.213 208.075 140.309 207.351 140.309V141.309V142.309C208.246 142.309 209.074 142.191 209.819 141.935L209.493 140.989ZM208.651 138.177V139.177C209.452 139.177 210.203 139.018 210.877 138.672L210.419 137.783L209.962 136.893C209.614 137.072 209.185 137.177 208.651 137.177V138.177ZM210.419 137.783L210.886 138.667C211.539 138.322 212.074 137.846 212.465 137.235L211.623 136.696L210.781 136.157C210.59 136.455 210.323 136.703 209.953 136.898L210.419 137.783ZM211.623 136.696L212.465 137.235C212.867 136.609 213.06 135.905 213.06 135.151H212.06H211.06C211.06 135.548 210.962 135.874 210.781 136.157L211.623 136.696ZM212.06 135.151H213.06V133.415H212.06H211.06V135.151H212.06ZM212.06 133.415L211.515 132.576C211.478 132.6 211.377 132.653 211.174 132.716L211.474 133.67L211.774 134.624C212.068 134.532 212.358 134.414 212.605 134.253L212.06 133.415ZM211.474 133.67L211.192 132.711C210.981 132.773 210.734 132.834 210.449 132.894L210.654 133.873L210.859 134.852C211.184 134.784 211.484 134.71 211.756 134.63L211.474 133.67ZM210.654 133.873L210.471 132.89C210.173 132.945 209.875 132.997 209.577 133.046L209.738 134.033L209.898 135.02C210.211 134.969 210.524 134.914 210.837 134.856L210.654 133.873ZM209.738 134.033L209.599 133.042C209.293 133.085 209.015 133.124 208.765 133.16L208.907 134.15L209.048 135.14C209.295 135.104 209.571 135.066 209.876 135.023L209.738 134.033ZM208.907 134.15L208.762 133.16C208.163 133.248 207.611 133.392 207.117 133.604L207.511 134.523L207.905 135.442C208.207 135.313 208.585 135.208 209.052 135.139L208.907 134.15ZM207.511 134.523L207.117 133.604C206.589 133.83 206.13 134.159 205.787 134.612L206.584 135.215L207.382 135.818C207.479 135.689 207.637 135.557 207.905 135.442L207.511 134.523ZM206.584 135.215L205.794 134.603C205.414 135.093 205.254 135.675 205.254 136.281H206.254H207.254C207.254 136.034 207.314 135.906 207.375 135.828L206.584 135.215ZM206.254 136.281H205.254C205.254 137.175 205.598 137.966 206.335 138.505L206.925 137.697L207.515 136.89C207.358 136.775 207.254 136.622 207.254 136.281H206.254ZM206.925 137.697L206.35 138.515C207.011 138.98 207.801 139.177 208.651 139.177V138.177V137.177C208.109 137.177 207.748 137.054 207.5 136.879L206.925 137.697ZM226.126 131.54L225.126 131.53V131.54H226.126ZM226.126 141V142H227.126V141H226.126ZM221.587 141H220.587V142H221.587V141ZM221.587 124.636V123.636H220.587V124.636H221.587ZM225.913 124.636H226.913V123.636H225.913V124.636ZM225.913 127.523H224.913V128.523H225.913V127.523ZM226.104 127.523V128.523H226.794L227.039 127.879L226.104 127.523ZM227.926 125.265L228.471 126.103L228.476 126.1L227.926 125.265ZM233.999 125.169L234.506 124.307L233.999 125.169ZM235.97 127.3L235.078 127.752L235.079 127.755L235.97 127.3ZM236.673 141V142H237.673V141H236.673ZM232.134 141H231.134V142H232.134V141ZM232.134 131.391L231.134 131.384V131.391H232.134ZM231.367 129.047L230.629 129.721L230.633 129.726L231.367 129.047ZM227.607 128.589L227.118 127.716L227.112 127.72L227.607 128.589ZM226.52 129.739L225.633 129.277L225.631 129.282L226.52 129.739ZM226.126 131.54H225.126V141H226.126H227.126V131.54H226.126ZM226.126 141V140H221.587V141V142H226.126V141ZM221.587 141H222.587V124.636H221.587H220.587V141H221.587ZM221.587 124.636V125.636H225.913V124.636V123.636H221.587V124.636ZM225.913 124.636H224.913V127.523H225.913H226.913V124.636H225.913ZM225.913 127.523V128.523H226.104V127.523V126.523H225.913V127.523ZM226.104 127.523L227.039 127.879C227.326 127.125 227.797 126.542 228.471 126.103L227.926 125.265L227.381 124.426C226.351 125.096 225.607 126.018 225.17 127.168L226.104 127.523ZM227.926 125.265L228.476 126.1C229.136 125.666 229.97 125.423 231.026 125.423V124.423V123.423C229.654 123.423 228.421 123.742 227.376 124.43L227.926 125.265ZM231.026 124.423V125.423C232.013 125.423 232.823 125.638 233.492 126.031L233.999 125.169L234.506 124.307C233.484 123.706 232.312 123.423 231.026 123.423V124.423ZM233.999 125.169L233.492 126.031C234.163 126.426 234.691 126.989 235.078 127.752L235.97 127.3L236.861 126.847C236.311 125.763 235.525 124.907 234.506 124.307L233.999 125.169ZM235.97 127.3L235.079 127.755C235.461 128.501 235.673 129.431 235.673 130.581H236.673H237.673C237.673 129.188 237.416 127.931 236.86 126.844L235.97 127.3ZM236.673 130.581H235.673V141H236.673H237.673V130.581H236.673ZM236.673 141V140H232.134V141V142H236.673V141ZM232.134 141H233.134V131.391H232.134H231.134V141H232.134ZM232.134 131.391L233.134 131.398C233.143 130.224 232.841 129.168 232.102 128.368L231.367 129.047L230.633 129.726C230.931 130.048 231.14 130.555 231.134 131.384L232.134 131.391ZM231.367 129.047L232.106 128.373C231.363 127.559 230.36 127.195 229.226 127.195V128.195V129.195C229.91 129.195 230.334 129.398 230.629 129.721L231.367 129.047ZM229.226 128.195V127.195C228.468 127.195 227.755 127.359 227.118 127.716L227.607 128.589L228.096 129.461C228.396 129.293 228.763 129.195 229.226 129.195V128.195ZM227.607 128.589L227.112 127.72C226.471 128.084 225.978 128.615 225.633 129.277L226.52 129.739L227.407 130.201C227.587 129.855 227.819 129.619 228.101 129.458L227.607 128.589ZM226.52 129.739L225.631 129.282C225.288 129.949 225.134 130.71 225.126 131.53L226.126 131.54L227.126 131.55C227.132 130.963 227.241 130.524 227.409 130.197L226.52 129.739ZM250.453 124.636H251.453V123.636H250.453V124.636ZM250.453 128.045V129.045H251.453V128.045H250.453ZM240.599 128.045H239.599V129.045H240.599V128.045ZM240.599 124.636V123.636H239.599V124.636H240.599ZM242.836 120.716V119.716H241.836V120.716H242.836ZM247.375 120.716H248.375V119.716H247.375V120.716ZM247.566 136.952L246.688 137.431L246.695 137.442L247.566 136.952ZM248.099 137.431L247.723 138.358L247.732 138.362L248.099 137.431ZM249.548 137.516L249.712 138.503L249.728 138.5L249.744 138.497L249.548 137.516ZM250.038 137.42L251.016 137.214L250.814 136.257L249.854 136.438L250.038 137.42ZM250.752 140.798L251.05 141.752L251.918 141.481L251.73 140.591L250.752 140.798ZM249.793 141.043L249.574 140.067L249.566 140.069L249.558 140.071L249.793 141.043ZM248.291 141.224L248.255 140.224L248.252 140.224L248.291 141.224ZM245.414 140.787L245.036 141.713L245.039 141.714L245.414 140.787ZM243.507 139.232L244.347 138.689L243.507 139.232ZM242.836 136.568L243.836 136.575V136.568H242.836ZM250.453 124.636H249.453V128.045H250.453H251.453V124.636H250.453ZM250.453 128.045V127.045H240.599V128.045V129.045H250.453V128.045ZM240.599 128.045H241.599V124.636H240.599H239.599V128.045H240.599ZM240.599 124.636V125.636H250.453V124.636V123.636H240.599V124.636ZM242.836 120.716V121.716H247.375V120.716V119.716H242.836V120.716ZM247.375 120.716H246.375V135.972H247.375H248.375V120.716H247.375ZM247.375 135.972H246.375C246.375 136.472 246.447 136.989 246.688 137.431L247.566 136.952L248.444 136.473C248.43 136.446 248.375 136.31 248.375 135.972H247.375ZM247.566 136.952L246.695 137.442C246.926 137.853 247.272 138.174 247.723 138.358L248.099 137.431L248.475 136.505C248.47 136.502 248.467 136.501 248.467 136.5C248.466 136.5 248.465 136.5 248.464 136.499C248.463 136.498 248.453 136.489 248.438 136.461L247.566 136.952ZM248.099 137.431L247.732 138.362C248.105 138.508 248.504 138.57 248.909 138.57V137.57V136.57C248.703 136.57 248.561 136.538 248.466 136.501L248.099 137.431ZM248.909 137.57V138.57C249.178 138.57 249.446 138.547 249.712 138.503L249.548 137.516L249.383 136.53C249.224 136.557 249.066 136.57 248.909 136.57V137.57ZM249.548 137.516L249.744 138.497C249.956 138.455 250.115 138.424 250.222 138.403L250.038 137.42L249.854 136.438C249.734 136.46 249.566 136.493 249.352 136.536L249.548 137.516ZM250.038 137.42L249.06 137.627L249.773 141.004L250.752 140.798L251.73 140.591L251.016 137.214L250.038 137.42ZM250.752 140.798L250.453 139.843C250.265 139.902 249.976 139.977 249.574 140.067L249.793 141.043L250.012 142.018C250.433 141.924 250.784 141.835 251.05 141.752L250.752 140.798ZM249.793 141.043L249.558 140.071C249.231 140.149 248.801 140.205 248.255 140.224L248.291 141.224L248.327 142.223C248.959 142.2 249.531 142.135 250.028 142.015L249.793 141.043ZM248.291 141.224L248.252 140.224C247.268 140.263 246.456 140.13 245.79 139.86L245.414 140.787L245.039 141.714C246.021 142.112 247.126 142.27 248.33 142.223L248.291 141.224ZM245.414 140.787L245.793 139.861C245.154 139.6 244.684 139.21 244.347 138.689L243.507 139.232L242.668 139.774C243.239 140.659 244.041 141.306 245.036 141.713L245.414 140.787ZM243.507 139.232L244.347 138.689C244.024 138.189 243.83 137.507 243.836 136.575L242.836 136.568L241.836 136.562C241.828 137.775 242.081 138.867 242.668 139.774L243.507 139.232ZM242.836 136.568H243.836V120.716H242.836H241.836V136.568H242.836ZM259.8 119.182H260.8V118.182H259.8V119.182ZM259.8 141V142H260.8V141H259.8ZM255.261 141H254.261V142H255.261V141ZM255.261 119.182V118.182H254.261V119.182H255.261ZM259.8 119.182H258.8V141H259.8H260.8V119.182H259.8ZM259.8 141V140H255.261V141V142H259.8V141ZM255.261 141H256.261V119.182H255.261H254.261V141H255.261ZM255.261 119.182V120.182H259.8V119.182V118.182H255.261V119.182ZM266.118 146.998L266.298 146.014L266.287 146.012L266.118 146.998ZM264.882 146.668L263.925 146.379L263.663 147.246L264.5 147.592L264.882 146.668ZM265.905 143.28L266.198 142.324L265.238 142.029L264.947 142.991L265.905 143.28ZM267.343 143.546L267.309 144.546L267.31 144.546L267.343 143.546ZM268.461 143.248L267.907 142.416L267.898 142.422L268.461 143.248ZM269.239 142.161L270.171 142.524L270.172 142.52L269.239 142.161ZM269.505 141.469L270.439 141.828L270.57 141.486L270.45 141.139L269.505 141.469ZM263.635 124.636V123.636H262.228L262.691 124.966L263.635 124.636ZM268.408 124.636L269.371 124.365L269.165 123.636H268.408V124.636ZM271.796 136.653L270.833 136.925L271.039 137.653H271.796V136.653ZM271.966 136.653V137.653H272.721L272.928 136.927L271.966 136.653ZM275.386 124.636V123.636H274.631L274.424 124.363L275.386 124.636ZM280.191 124.636L281.134 124.967L281.601 123.636H280.191V124.636ZM273.831 142.768L272.887 142.437L272.886 142.441L273.831 142.768ZM272.584 145.07L271.805 144.443L271.798 144.452L272.584 145.07ZM270.613 146.593L270.206 145.68L270.199 145.683L270.613 146.593ZM267.737 147.136V146.136C267.215 146.136 266.736 146.094 266.298 146.014L266.118 146.998L265.938 147.982C266.508 148.086 267.108 148.136 267.737 148.136V147.136ZM266.118 146.998L266.287 146.012C265.834 145.935 265.5 145.841 265.264 145.743L264.882 146.668L264.5 147.592C264.917 147.764 265.407 147.891 265.949 147.983L266.118 146.998ZM264.882 146.668L265.839 146.957L266.862 143.569L265.905 143.28L264.947 142.991L263.925 146.379L264.882 146.668ZM265.905 143.28L265.611 144.236C266.204 144.418 266.773 144.528 267.309 144.546L267.343 143.546L267.376 142.547C267.06 142.536 266.67 142.469 266.198 142.324L265.905 143.28ZM267.343 143.546L267.31 144.546C267.923 144.566 268.512 144.424 269.025 144.074L268.461 143.248L267.898 142.422C267.786 142.498 267.629 142.555 267.376 142.547L267.343 143.546ZM268.461 143.248L269.016 144.08C269.566 143.713 269.928 143.148 270.171 142.524L269.239 142.161L268.307 141.799C268.152 142.197 267.996 142.356 267.907 142.416L268.461 143.248ZM269.239 142.161L270.172 142.52L270.439 141.828L269.505 141.469L268.572 141.11L268.306 141.802L269.239 142.161ZM269.505 141.469L270.45 141.139L264.58 124.307L263.635 124.636L262.691 124.966L268.561 141.798L269.505 141.469ZM263.635 124.636V125.636H268.408V124.636V123.636H263.635V124.636ZM268.408 124.636L267.446 124.908L270.833 136.925L271.796 136.653L272.758 136.382L269.371 124.365L268.408 124.636ZM271.796 136.653V137.653H271.966V136.653V135.653H271.796V136.653ZM271.966 136.653L272.928 136.927L276.348 124.91L275.386 124.636L274.424 124.363L271.005 136.38L271.966 136.653ZM275.386 124.636V125.636H280.191V124.636V123.636H275.386V124.636ZM280.191 124.636L279.247 124.305L272.887 142.437L273.831 142.768L274.774 143.099L281.134 124.967L280.191 124.636ZM273.831 142.768L272.886 142.441C272.614 143.225 272.251 143.888 271.805 144.443L272.584 145.07L273.363 145.696C273.969 144.944 274.437 144.073 274.775 143.096L273.831 142.768ZM272.584 145.07L271.798 144.452C271.383 144.98 270.858 145.389 270.206 145.68L270.613 146.593L271.021 147.506C271.959 147.087 272.748 146.48 273.371 145.687L272.584 145.07ZM270.613 146.593L270.199 145.683C269.565 145.972 268.755 146.136 267.737 146.136V147.136V148.136C268.963 148.136 270.071 147.939 271.028 147.503L270.613 146.593Z" fill="url(#paint3_linear_127_34093)" mask="url(#path-9-outside-1_127_34093)"/>
</g>
</g>
<defs>
<filter id="filter0_i_127_34093" x="213" y="241" width="45" height="52" filterUnits="userSpaceOnUse" color-interpolation-filters="sRGB">
<feFlood flood-opacity="0" result="BackgroundImageFix"/>
<feBlend mode="normal" in="SourceGraphic" in2="BackgroundImageFix" result="shape"/>
<feColorMatrix in="SourceAlpha" type="matrix" values="0 0 0 0 0 0 0 0 0 0 0 0 0 0 0 0 0 0 127 0" result="hardAlpha"/>
<feOffset dy="7"/>
<feGaussianBlur stdDeviation="5"/>
<feComposite in2="hardAlpha" operator="arithmetic" k2="-1" k3="1"/>
<feColorMatrix type="matrix" values="0 0 0 0 0.976471 0 0 0 0 1 0 0 0 0 0.980392 0 0 0 0.6 0"/>
<feBlend mode="normal" in2="shape" result="effect1_innerShadow_127_34093"/>
</filter>
<filter id="filter1_i_127_34093" x="345" y="19" width="45" height="52" filterUnits="userSpaceOnUse" color-interpolation-filters="sRGB">
<feFlood flood-opacity="0" result="BackgroundImageFix"/>
<feBlend mode="normal" in="SourceGraphic" in2="BackgroundImageFix" result="shape"/>
<feColorMatrix in="SourceAlpha" type="matrix" values="0 0 0 0 0 0 0 0 0 0 0 0 0 0 0 0 0 0 127 0" result="hardAlpha"/>
<feOffset dy="7"/>
<feGaussianBlur stdDeviation="5"/>
<feComposite in2="hardAlpha" operator="arithmetic" k2="-1" k3="1"/>
<feColorMatrix type="matrix" values="0 0 0 0 0.976471 0 0 0 0 1 0 0 0 0 0.980392 0 0 0 0.6 0"/>
<feBlend mode="normal" in2="shape" result="effect1_innerShadow_127_34093"/>
</filter>
<filter id="filter2_i_127_34093" x="-5" y="64" width="45" height="52" filterUnits="userSpaceOnUse" color-interpolation-filters="sRGB">
<feFlood flood-opacity="0" result="BackgroundImageFix"/>
<feBlend mode="normal" in="SourceGraphic" in2="BackgroundImageFix" result="shape"/>
<feColorMatrix in="SourceAlpha" type="matrix" values="0 0 0 0 0 0 0 0 0 0 0 0 0 0 0 0 0 0 127 0" result="hardAlpha"/>
<feOffset dy="7"/>
<feGaussianBlur stdDeviation="5"/>
<feComposite in2="hardAlpha" operator="arithmetic" k2="-1" k3="1"/>
<feColorMatrix type="matrix" values="0 0 0 0 0.976471 0 0 0 0 1 0 0 0 0 0.980392 0 0 0 0.6 0"/>
<feBlend mode="normal" in2="shape" result="effect1_innerShadow_127_34093"/>
</filter>
<filter id="filter3_d_127_34093" x="-60.8889" y="10.7778" width="507.778" height="311.778" filterUnits="userSpaceOnUse" color-interpolation-filters="sRGB">
<feFlood flood-opacity="0" result="BackgroundImageFix"/>
<feColorMatrix in="SourceAlpha" type="matrix" values="0 0 0 0 0 0 0 0 0 0 0 0 0 0 0 0 0 0 127 0" result="hardAlpha"/>
<feOffset dy="36.6667"/>
<feGaussianBlur stdDeviation="57.4444"/>
<feComposite in2="hardAlpha" operator="out"/>
<feColorMatrix type="matrix" values="0 0 0 0 0.027451 0 0 0 0 0.768627 0 0 0 0 0.305882 0 0 0 0.32 0"/>
<feBlend mode="normal" in2="BackgroundImageFix" result="effect1_dropShadow_127_34093"/>
<feBlend mode="normal" in="SourceGraphic" in2="effect1_dropShadow_127_34093" result="shape"/>
</filter>
<filter id="filter4_d_127_34093" x="102.273" y="117.455" width="29.4546" height="29.4546" filterUnits="userSpaceOnUse" color-interpolation-filters="sRGB">
<feFlood flood-opacity="0" result="BackgroundImageFix"/>
<feColorMatrix in="SourceAlpha" type="matrix" values="0 0 0 0 0 0 0 0 0 0 0 0 0 0 0 0 0 0 127 0" result="hardAlpha"/>
<feOffset dy="2.18185"/>
<feGaussianBlur stdDeviation="1.36366"/>
<feComposite in2="hardAlpha" operator="out"/>
<feColorMatrix type="matrix" values="0 0 0 0 0.184314 0 0 0 0 0.427451 0 0 0 0 0.117647 0 0 0 0.13 0"/>
<feBlend mode="normal" in2="BackgroundImageFix" result="effect1_dropShadow_127_34093"/>
<feBlend mode="normal" in="SourceGraphic" in2="effect1_dropShadow_127_34093" result="shape"/>
</filter>
<filter id="filter5_i_127_34093" x="140.193" y="118.182" width="141.408" height="32.9546" filterUnits="userSpaceOnUse" color-interpolation-filters="sRGB">
<feFlood flood-opacity="0" result="BackgroundImageFix"/>
<feBlend mode="normal" in="SourceGraphic" in2="BackgroundImageFix" result="shape"/>
<feColorMatrix in="SourceAlpha" type="matrix" values="0 0 0 0 0 0 0 0 0 0 0 0 0 0 0 0 0 0 127 0" result="hardAlpha"/>
<feOffset dy="4"/>
<feGaussianBlur stdDeviation="1.5"/>
<feComposite in2="hardAlpha" operator="arithmetic" k2="-1" k3="1"/>
<feColorMatrix type="matrix" values="0 0 0 0 0.168627 0 0 0 0 0.803922 0 0 0 0 0 0 0 0 0.2 0"/>
<feBlend mode="normal" in2="shape" result="effect1_innerShadow_127_34093"/>
</filter>
<linearGradient id="paint0_linear_127_34093" x1="55.3964" y1="90.1192" x2="98.0629" y2="237.296" gradientUnits="userSpaceOnUse">
<stop stop-color="#5EDD4D"/>
<stop offset="1" stop-color="#05CE6C"/>
</linearGradient>
<linearGradient id="paint1_linear_127_34093" x1="105.034" y1="118.036" x2="128.966" y2="141.964" gradientUnits="userSpaceOnUse">
<stop stop-color="#5EDD4D"/>
<stop offset="1" stop-color="#05CE6C"/>
</linearGradient>
<linearGradient id="paint2_linear_127_34093" x1="139.204" y1="110.06" x2="160.026" y2="183.966" gradientUnits="userSpaceOnUse">
<stop stop-color="#5EDD4D"/>
<stop offset="1" stop-color="#05CE6C"/>
</linearGradient>
<linearGradient id="paint3_linear_127_34093" x1="139.204" y1="110.06" x2="160.026" y2="183.966" gradientUnits="userSpaceOnUse">
<stop stop-color="#5EDD4D"/>
<stop offset="1" stop-color="#05CE6C"/>
</linearGradient>
<clipPath id="clip0_127_34093">
<rect width="386" height="260" fill="white"/>
</clipPath>
<pattern id="pattern0_127_34093" patternUnits="userSpaceOnUse" viewBox="-19995.3 795.1 43.65 44.1" width="11.547619055601812%" height="17.500000007982766%" x="166.5" y="103.5" patternContentUnits="objectBoundingBox">
<g id="pattern0_127_34093_inner">
<rect x="-20038.5" y="751.5" width="44" height="44" rx="9.5" stroke="#D9D9D9"/>
</g>
<use xlink:href="#pattern0_127_34093_inner" transform="translate(43.65 0)"/>
<use xlink:href="#pattern0_127_34093_inner" transform="translate(0 44.1)"/>
<use xlink:href="#pattern0_127_34093_inner" transform="translate(43.65 44.1)"/>
</pattern></defs>
</svg>
