<svg width="386" height="260" viewBox="0 0 386 260" fill="none" xmlns="http://www.w3.org/2000/svg" xmlns:xlink="http://www.w3.org/1999/xlink">
<g clip-path="url(#clip0_127_44161)">
<rect x="4" y="4" width="378" height="252" rx="16" fill="url(#pattern0_127_44161)" fill-opacity="0.22"/>
<g filter="url(#filter0_f_127_44161)">
<ellipse cx="210.5" cy="130.5" rx="133.5" ry="182.5" fill="white"/>
</g>
<g filter="url(#filter1_d_127_44161)">
<circle cx="58" cy="130" r="45" fill="white"/>
<circle cx="58" cy="130" r="44.625" stroke="#0B2404" stroke-opacity="0.1" stroke-width="0.75"/>
</g>
<path d="M33.2032 126.077C31.8848 126.077 30.5837 126.477 29.4735 127.206C28.3633 127.952 27.5132 128.993 27.0102 130.226C26.5071 131.458 26.3683 132.794 26.6285 134.096C26.8887 135.398 27.5306 136.595 28.4673 137.533C29.4041 138.47 30.6011 139.112 31.9021 139.372C33.2032 139.633 34.5563 139.494 35.7706 138.991C37.0023 138.487 38.0431 137.619 38.7891 136.526C39.5177 135.415 39.9167 134.131 39.9167 132.794C39.9167 131.007 39.2054 129.306 37.9564 128.056C36.69 126.789 34.99 126.077 33.2032 126.077ZM33.2032 138.574C32.0583 138.574 30.948 138.227 29.9939 137.602C29.0398 136.96 28.3112 136.057 27.8602 135.016C27.4265 133.957 27.3051 132.794 27.5306 131.684C27.7561 130.555 28.3112 129.531 29.1092 128.733C29.9245 127.917 30.948 127.379 32.0583 127.154C33.1858 126.928 34.3308 127.049 35.389 127.483C36.4472 127.917 37.3492 128.664 37.9737 129.618C38.6156 130.573 38.9452 131.684 38.9452 132.829C38.9452 134.356 38.338 135.832 37.2451 136.908C36.2043 137.949 34.7298 138.557 33.2032 138.574ZM36.4472 129.826C36.3951 129.792 36.3431 129.774 36.2737 129.757C36.2216 129.74 36.1523 129.74 36.0829 129.757C36.0308 129.774 35.9614 129.792 35.9094 129.826C35.8574 129.861 35.8227 129.896 35.788 129.948L31.9889 135.537L30.2541 133.662C30.1674 133.575 30.046 133.523 29.9245 133.523C29.8031 133.523 29.6817 133.558 29.5949 133.645C29.5082 133.732 29.4561 133.836 29.4388 133.957C29.4388 134.079 29.4735 134.2 29.5602 134.287L31.694 136.595C31.746 136.647 31.798 136.682 31.8501 136.7C31.9021 136.734 31.9715 136.734 32.0409 136.734C32.0583 136.734 32.0583 136.734 32.0756 136.734C32.145 136.734 32.2144 136.7 32.2664 136.665C32.3358 136.63 32.3879 136.578 32.4226 136.526L36.5512 130.451C36.5859 130.399 36.6033 130.347 36.6206 130.278C36.638 130.226 36.638 130.156 36.6206 130.087C36.6033 130.035 36.5859 129.965 36.5512 129.913C36.5512 129.896 36.4992 129.861 36.4472 129.826ZM51.9384 128.872C52.0772 128.577 52.1466 128.282 52.1813 127.952H51.019C50.9843 128.108 50.9323 128.264 50.8629 128.421C50.7935 128.559 50.6894 128.664 50.568 128.768C50.4466 128.872 50.3251 128.941 50.169 128.993C50.0129 129.045 49.8567 129.08 49.6833 129.08C49.4751 129.08 49.2669 129.028 49.0761 128.941C48.8853 128.837 48.7292 128.698 48.6077 128.525C48.4689 128.316 48.3649 128.091 48.3128 127.865C48.174 127.292 48.174 126.685 48.3128 126.112C48.3649 125.869 48.4689 125.661 48.6077 125.453C48.7292 125.279 48.8853 125.14 49.0761 125.036C49.2669 124.932 49.4751 124.88 49.6833 124.897C49.8394 124.897 50.0129 124.932 50.1516 124.984C50.2904 125.036 50.4292 125.123 50.5506 125.227C50.6721 125.331 50.7588 125.453 50.8455 125.592C50.9323 125.748 50.9843 125.904 51.0017 126.077H52.164C52.1466 125.765 52.0599 125.435 51.9384 125.158C51.6782 124.602 51.2098 124.168 50.6374 123.943C50.3425 123.821 50.0129 123.769 49.6833 123.769C49.3016 123.769 48.92 123.839 48.5557 123.995C48.2261 124.134 47.9312 124.359 47.7057 124.637C47.4628 124.932 47.2893 125.279 47.1679 125.661C46.925 126.546 46.925 127.483 47.1679 128.369C47.272 128.733 47.4628 129.08 47.7057 129.393C47.9312 129.67 48.2261 129.896 48.5557 130.035C49.2149 130.312 49.9608 130.33 50.6374 130.087C50.9149 129.983 51.1751 129.826 51.4007 129.618C51.6262 129.375 51.817 129.132 51.9384 128.872ZM57.2641 129.583C57.4896 129.375 57.6631 129.15 57.7845 128.872C57.9233 128.577 57.9927 128.282 58.0274 127.952H56.8651C56.8304 128.108 56.7784 128.264 56.709 128.421C56.6396 128.559 56.5355 128.664 56.4314 128.768C56.31 128.872 56.1886 128.941 56.0324 128.993C55.8763 129.045 55.7202 129.08 55.5467 129.08C55.3385 129.08 55.1304 129.028 54.9395 128.941C54.7487 128.837 54.5926 128.698 54.4712 128.525C54.3324 128.316 54.2456 128.091 54.1763 127.865C54.0375 127.292 54.0375 126.685 54.1763 126.112C54.2283 125.869 54.3324 125.661 54.4712 125.453C54.5926 125.279 54.7487 125.14 54.9395 125.036C55.1304 124.932 55.3385 124.88 55.5467 124.897C55.7028 124.897 55.8763 124.932 56.0151 124.984C56.1539 125.036 56.2926 125.123 56.4141 125.227C56.5355 125.331 56.6222 125.453 56.709 125.592C56.7957 125.748 56.8478 125.904 56.8651 126.077H58.0274C58.01 125.765 57.9233 125.435 57.8019 125.158C57.5417 124.602 57.0733 124.168 56.5008 123.943C56.2059 123.821 55.8763 123.769 55.5467 123.769C55.1651 123.769 54.7834 123.839 54.4191 123.995C54.0895 124.134 53.7946 124.359 53.5691 124.637C53.3262 124.932 53.1528 125.279 53.0313 125.661C52.7885 126.546 52.7885 127.483 53.0313 128.369C53.1354 128.733 53.3262 129.08 53.5691 129.393C53.7946 129.67 54.0895 129.896 54.4191 130.035C55.0783 130.312 55.8243 130.33 56.5008 130.087C56.7957 129.948 57.0559 129.792 57.2641 129.583ZM62.7979 124.481C62.6245 124.29 62.4163 124.151 62.1734 124.047C61.9132 123.943 61.653 123.891 61.3754 123.891H58.9815V130.052H60.1785V128.143H61.3061C61.5836 128.143 61.8785 128.091 62.1387 127.987C62.3816 127.883 62.6071 127.744 62.7806 127.553C62.9714 127.362 63.1102 127.136 63.1969 126.876C63.301 126.598 63.3531 126.303 63.3531 126.008C63.3531 125.713 63.301 125.418 63.2143 125.14C63.1102 124.897 62.9714 124.672 62.7979 124.481ZM61.8438 126.824C61.6183 127.015 61.3408 127.119 61.0458 127.102H60.1785V124.967H61.0458C61.1846 124.949 61.3408 124.984 61.4795 125.019C61.6183 125.071 61.7397 125.14 61.8612 125.227C61.9653 125.331 62.0347 125.453 62.0867 125.592C62.1387 125.73 62.1561 125.869 62.1387 126.025C62.1561 126.164 62.1214 126.32 62.0867 126.459C62.0173 126.581 61.9479 126.72 61.8438 126.824ZM66.9613 123.891H65.5562L63.5612 130.052H64.8276L65.1572 128.889H67.343L67.6726 130.052H68.9389L66.9613 123.891ZM65.5041 127.778L66.2674 125.158L67.0307 127.778H65.5041ZM48.9026 140.292C48.6945 140.292 48.4863 140.24 48.2955 140.136C48.122 140.032 47.9832 139.876 47.8965 139.702C47.8097 139.494 47.7577 139.268 47.7577 139.043V138.296C47.7404 137.949 47.8444 137.619 48.0526 137.342C48.1567 137.22 48.2955 137.133 48.4342 137.064C48.573 137.012 48.7465 136.977 48.9026 136.995C49.0588 136.995 49.2149 137.012 49.3537 137.064C49.4751 137.099 49.5618 137.168 49.6486 137.255C49.718 137.324 49.77 137.394 49.8047 137.481C49.8394 137.55 49.8567 137.619 49.8741 137.689H50.5333C50.5159 137.515 50.4812 137.342 50.3945 137.203C50.3251 137.047 50.2037 136.908 50.0823 136.804C49.718 136.526 49.2669 136.387 48.8159 136.422C48.3649 136.439 47.9312 136.63 47.5842 136.925C47.2546 137.29 47.0812 137.793 47.0985 138.279V139.043C47.0812 139.546 47.2373 140.032 47.5842 140.414C47.7577 140.587 47.9485 140.726 48.174 140.813C48.3996 140.9 48.6424 140.934 48.8853 140.934C49.319 140.969 49.7527 140.83 50.0996 140.57C50.2384 140.466 50.3425 140.344 50.4119 140.188C50.4812 140.032 50.5333 139.876 50.5506 139.719H49.8914C49.8047 140.101 49.4751 140.292 48.9026 140.292ZM53.2568 136.422C53.014 136.422 52.7711 136.457 52.5456 136.543C52.3201 136.63 52.1119 136.769 51.9384 136.942C51.765 137.116 51.6262 137.342 51.5394 137.585C51.4527 137.828 51.418 138.071 51.418 138.331V139.025C51.4007 139.286 51.4354 139.529 51.5221 139.772C51.6088 140.015 51.7476 140.24 51.9211 140.414C52.2854 140.744 52.7538 140.917 53.2568 140.917C53.7426 140.917 54.2283 140.744 54.5926 140.414C54.7661 140.223 54.9048 140.015 54.9916 139.772C55.0783 139.529 55.113 139.268 55.113 139.025V138.331C55.1304 138.071 55.0957 137.828 55.0089 137.585C54.9222 137.342 54.7834 137.133 54.6099 136.942C54.4365 136.769 54.2283 136.647 54.0028 136.561C53.7426 136.439 53.4997 136.404 53.2568 136.422ZM54.4538 138.938C54.4712 139.303 54.3671 139.667 54.1416 139.962C54.0375 140.084 53.8987 140.188 53.7426 140.258C53.5864 140.327 53.4303 140.344 53.2568 140.344C53.0313 140.344 52.8058 140.292 52.615 140.171C52.4242 140.049 52.2854 139.893 52.1986 139.685C52.0946 139.459 52.0425 139.199 52.0599 138.938V138.4C52.0425 138.036 52.1639 137.671 52.3895 137.394C52.4936 137.272 52.6323 137.168 52.7885 137.099C52.9446 137.029 53.1007 136.995 53.2742 137.012C53.4303 137.012 53.6038 137.029 53.7426 137.099C53.8987 137.168 54.0201 137.255 54.1242 137.394C54.3497 137.689 54.4712 138.036 54.4538 138.418V138.938ZM60.6815 136.422C60.3866 136.404 60.0917 136.491 59.8489 136.647C59.6407 136.786 59.4672 136.995 59.3631 137.238H59.3284C59.2938 137.116 59.2417 137.012 59.1723 136.908C59.0162 136.7 58.808 136.543 58.5652 136.474C58.4264 136.422 58.2703 136.404 58.1141 136.404C57.507 136.404 57.108 136.665 56.9345 137.168H56.8998V136.474H56.2579V140.83H56.8998V138.019C56.8998 137.88 56.9172 137.741 56.9692 137.619C57.0212 137.498 57.0906 137.376 57.1774 137.272C57.3682 137.081 57.6284 136.977 57.8886 136.977C58.1488 136.977 58.409 137.064 58.5999 137.255C58.6866 137.359 58.756 137.463 58.808 137.585C58.8601 137.706 58.8774 137.845 58.8601 137.967V140.83H59.5019V138.019C59.5019 137.88 59.5193 137.741 59.5713 137.619C59.6234 137.498 59.6927 137.376 59.7968 137.272C59.8836 137.168 60.005 137.099 60.1264 137.047C60.2479 136.995 60.3866 136.977 60.5254 136.977C60.6469 136.977 60.7856 136.995 60.9071 137.029C61.0285 137.081 61.1326 137.151 61.2367 137.238C61.4101 137.428 61.4969 137.671 61.4795 137.932V140.848H62.1387V137.776C62.1561 137.585 62.1214 137.411 62.052 137.238C61.9826 137.064 61.8785 136.908 61.7571 136.769C61.4448 136.526 61.0805 136.387 60.6815 136.422ZM79.0351 136.422C78.3412 136.422 77.9076 136.717 77.7167 137.29H77.682V136.491H77.0402V140.848H77.682V138.4C77.6647 138.036 77.7688 137.671 77.9943 137.376C78.0984 137.238 78.2372 137.133 78.3933 137.064C78.5494 136.995 78.7229 136.96 78.8964 136.977C79.0351 136.977 79.1566 136.995 79.2954 137.029C79.4168 137.081 79.5382 137.151 79.625 137.238C79.8158 137.463 79.9025 137.741 79.8852 138.036V140.813H80.5444V137.828C80.5617 137.637 80.527 137.428 80.4576 137.255C80.3882 137.064 80.2842 136.908 80.1454 136.769C79.8158 136.526 79.4341 136.387 79.0351 136.422ZM74.0911 136.422C73.6921 136.404 73.3105 136.509 72.9809 136.7C72.8421 136.786 72.738 136.908 72.6513 137.064C72.5645 137.203 72.5299 137.376 72.5125 137.533H73.137C73.2411 137.185 73.5534 137.012 74.0564 137.012C74.3166 136.995 74.5595 137.064 74.7677 137.22C74.8544 137.307 74.9238 137.394 74.9758 137.515C75.0279 137.619 75.0452 137.741 75.0279 137.862V138.314H73.8656C73.5707 138.314 73.2931 138.366 73.0329 138.47C72.8248 138.557 72.6339 138.713 72.5125 138.921C72.3911 139.129 72.339 139.355 72.339 139.581C72.339 139.772 72.3737 139.962 72.4431 140.136C72.5125 140.292 72.5992 140.431 72.738 140.553C72.8768 140.674 73.0156 140.761 73.1891 140.83C73.3799 140.9 73.5707 140.934 73.7615 140.934C74.0044 140.952 74.2646 140.9 74.4901 140.778C74.7156 140.657 74.9065 140.483 75.0279 140.275H75.0452V140.865H75.6871V137.88C75.7044 137.671 75.6697 137.481 75.6004 137.29C75.531 137.099 75.4095 136.925 75.2534 136.804C74.9065 136.526 74.5075 136.404 74.0911 136.422ZM75.0279 139.355C75.0279 139.494 75.0105 139.615 74.9411 139.754C74.8891 139.876 74.8024 139.98 74.6983 140.084C74.4901 140.275 74.1952 140.379 73.9176 140.362C73.6921 140.362 73.4666 140.292 73.2758 140.153C73.1891 140.084 73.137 139.997 73.085 139.91C73.0329 139.824 73.0156 139.719 73.0156 139.615C73.0156 139.511 73.0329 139.407 73.0676 139.32C73.1023 139.216 73.1544 139.129 73.2238 139.06C73.4146 138.921 73.6401 138.834 73.883 138.869H75.0279V139.355ZM83.4414 140.292C83.2332 140.292 83.0251 140.24 82.8342 140.136C82.6608 140.032 82.522 139.876 82.4352 139.702C82.3485 139.494 82.2965 139.268 82.2965 139.043V138.296C82.2791 137.949 82.3832 137.619 82.5914 137.342C82.6955 137.22 82.8342 137.133 82.973 137.064C83.1118 137.012 83.2853 136.977 83.4414 136.995C83.5975 136.995 83.7537 137.012 83.8924 137.064C84.0139 137.099 84.1006 137.168 84.1873 137.255C84.2394 137.324 84.2914 137.394 84.3435 137.481C84.3782 137.55 84.3955 137.619 84.4129 137.689H85.0721C85.0547 137.515 85.02 137.342 84.9333 137.203C84.8639 137.047 84.7425 136.908 84.621 136.804C84.2567 136.526 83.8057 136.387 83.3547 136.422C82.9036 136.439 82.4699 136.63 82.123 136.925C81.7934 137.29 81.6199 137.793 81.6373 138.279V139.043C81.6199 139.546 81.776 140.032 82.123 140.414C82.2965 140.587 82.4873 140.726 82.7128 140.813C82.9383 140.9 83.1812 140.934 83.4241 140.934C83.8577 140.969 84.2914 140.83 84.6384 140.57C84.7772 140.466 84.8812 140.344 84.9506 140.188C85.02 140.032 85.0721 139.876 85.0894 139.719H84.4302C84.3435 140.101 83.9965 140.292 83.4414 140.292ZM89.4957 138.834V138.296C89.513 138.053 89.4783 137.793 89.3916 137.567C89.3048 137.324 89.1834 137.116 89.0099 136.925C88.663 136.595 88.2119 136.404 87.7262 136.404C87.2578 136.404 86.7895 136.595 86.4425 136.925C86.269 137.116 86.1476 137.324 86.0609 137.567C85.9741 137.81 85.9394 138.053 85.9568 138.296V139.008C85.9221 139.511 86.0956 140.015 86.4425 140.396C86.616 140.57 86.8242 140.709 87.0497 140.796C87.2752 140.882 87.518 140.917 87.7783 140.917C88.0211 140.917 88.2466 140.882 88.4722 140.813C88.663 140.761 88.8365 140.657 88.9752 140.535C89.0967 140.431 89.2008 140.31 89.2875 140.188C89.3569 140.084 89.4089 139.945 89.4263 139.824H88.7324C88.6803 139.98 88.5589 140.119 88.4028 140.188C88.2119 140.292 87.9864 140.344 87.7609 140.344C87.6048 140.344 87.4487 140.327 87.2925 140.258C87.1364 140.188 87.015 140.101 86.9109 139.98C86.7027 139.719 86.5986 139.407 86.5986 139.077V138.852H89.4957V138.834ZM86.5986 138.262C86.5813 137.932 86.6854 137.602 86.9109 137.342C87.015 137.22 87.1364 137.133 87.2752 137.081C87.414 137.029 87.5701 136.995 87.7089 136.995C87.917 136.995 88.1252 137.047 88.2987 137.151C88.4722 137.255 88.6109 137.411 88.6977 137.602C88.8018 137.81 88.8365 138.036 88.8365 138.279V138.348H86.5986V138.262ZM70.4655 140.848H71.1247V136.491H70.4655V140.848ZM68.3144 140.848H68.9736V134.877H68.3144V140.848ZM70.7778 134.634C70.7084 134.634 70.6563 134.651 70.5869 134.669C70.5349 134.686 70.4655 134.721 70.4308 134.773C70.3788 134.825 70.3441 134.877 70.3267 134.929C70.3094 134.981 70.292 135.051 70.292 135.12C70.292 135.19 70.3094 135.242 70.3267 135.311C70.3441 135.363 70.3961 135.433 70.4308 135.467C70.4829 135.519 70.5349 135.554 70.5869 135.571C70.639 135.589 70.7084 135.606 70.7778 135.606C70.8645 135.606 70.9512 135.589 71.0206 135.554C71.09 135.519 71.1594 135.45 71.1941 135.38C71.2461 135.294 71.2635 135.207 71.2635 135.12C71.2635 135.051 71.2461 134.999 71.2288 134.929C71.2114 134.877 71.1768 134.808 71.1247 134.773C71.0727 134.721 71.0206 134.686 70.9686 134.669C70.9165 134.651 70.8472 134.634 70.7778 134.634ZM65.4521 136.422C65.1572 136.404 64.8623 136.491 64.6021 136.647C64.3939 136.769 64.2378 136.96 64.151 137.185H64.1163V136.491H63.4918V142.375H64.151V140.205H64.1857C64.3939 140.691 64.8102 140.917 65.4347 140.917C65.6603 140.934 65.9031 140.882 66.1113 140.796C66.3195 140.709 66.5103 140.587 66.6838 140.414C67.0134 140.032 67.1695 139.563 67.1521 139.06V138.262C67.1868 137.776 67.0134 137.29 66.7011 136.908C66.545 136.734 66.3542 136.613 66.146 136.526C65.9031 136.439 65.6776 136.404 65.4521 136.422ZM66.4756 138.904C66.5103 139.286 66.3889 139.667 66.1633 139.962C66.0593 140.084 65.9378 140.171 65.7817 140.24C65.6429 140.31 65.4868 140.327 65.3307 140.327C65.1745 140.327 65.0184 140.31 64.8623 140.24C64.7062 140.188 64.5847 140.084 64.4633 139.98C64.3592 139.858 64.2725 139.719 64.2204 139.581C64.1684 139.424 64.1337 139.268 64.151 139.112V138.296C64.1337 137.949 64.2378 137.602 64.4633 137.342C64.5674 137.22 64.7062 137.133 64.8449 137.064C65.0011 137.012 65.1572 136.977 65.3133 136.977C65.4694 136.977 65.6429 136.995 65.7817 137.064C65.9378 137.133 66.0593 137.22 66.1633 137.342C66.3889 137.654 66.4929 138.019 66.4756 138.4V138.904ZM86.7721 131.805C87.1017 131.805 87.414 131.666 87.6568 131.441C87.8823 131.215 88.0211 130.885 88.0211 130.555V124.307C88.0211 123.977 87.8823 123.665 87.6568 123.422C87.4313 123.196 87.1017 123.058 86.7721 123.058H86.5813C86.5986 122.919 86.616 122.762 86.616 122.624V121.374C86.616 120.385 86.217 119.43 85.5231 118.718C84.8292 118.024 83.8751 117.625 82.8689 117.625H81.325C80.3362 117.625 79.3821 118.024 78.6708 118.718C77.977 119.413 77.578 120.367 77.578 121.374V122.624C77.578 122.762 77.5953 122.919 77.6127 123.058H77.4045C77.0749 123.058 76.7626 123.196 76.5198 123.422C76.2943 123.648 76.1555 123.977 76.1555 124.307V130.555C76.1555 130.885 76.2943 131.198 76.5198 131.441C76.7453 131.666 77.0749 131.805 77.4045 131.805H86.7721ZM82.8689 127.726V129.531C82.8689 129.74 82.7822 129.931 82.6434 130.087C82.5046 130.226 82.2965 130.312 82.0883 130.312C81.8801 130.312 81.6893 130.226 81.5332 130.087C81.3944 129.948 81.3077 129.74 81.3077 129.531V127.726C81.0128 127.553 80.7699 127.292 80.6485 126.98C80.5097 126.668 80.4923 126.303 80.5791 125.973C80.6658 125.644 80.8566 125.349 81.1342 125.14C81.4117 124.932 81.7413 124.81 82.0883 124.81C82.4352 124.81 82.7649 124.932 83.0424 125.14C83.32 125.349 83.5108 125.644 83.5975 125.973C83.6843 126.303 83.6669 126.65 83.5281 126.98C83.3894 127.275 83.1638 127.553 82.8689 127.726ZM78.827 121.374C78.827 120.714 79.0872 120.072 79.5556 119.604C80.024 119.135 80.6658 118.875 81.325 118.875H82.8689C83.5281 118.875 84.17 119.135 84.6384 119.604C85.1068 120.072 85.367 120.714 85.367 121.374V122.624C85.367 122.762 85.3496 122.919 85.3323 123.058H78.879C78.8443 122.919 78.8443 122.762 78.8443 122.624V121.374H78.827Z" fill="url(#paint0_linear_127_44161)"/>
<g filter="url(#filter2_d_127_44161)">
<path d="M184.178 54.5765C188.477 48.4745 197.523 48.4745 201.822 54.5765L204.887 58.9277C207.89 63.19 213.51 64.696 218.242 62.506L223.072 60.2704C229.845 57.1352 237.68 61.6585 238.352 69.0922L238.831 74.3931C239.3 79.5857 243.414 83.7002 248.607 84.1693L253.908 84.6483C261.341 85.3199 265.865 93.1546 262.73 99.9282L260.494 104.758C258.304 109.49 259.81 115.11 264.072 118.113L268.424 121.178C274.525 125.477 274.525 134.523 268.424 138.822L264.072 141.887C259.81 144.89 258.304 150.51 260.494 155.242L262.73 160.072C265.865 166.845 261.341 174.68 253.908 175.352L248.607 175.831C243.414 176.3 239.3 180.414 238.831 185.607L238.352 190.908C237.68 198.341 229.845 202.865 223.072 199.73L218.242 197.494C213.51 195.304 207.89 196.81 204.887 201.072L201.822 205.424C197.523 211.525 188.477 211.525 184.178 205.424L181.113 201.072C178.11 196.81 172.49 195.304 167.758 197.494L162.928 199.73C156.155 202.865 148.32 198.341 147.648 190.908L147.169 185.607C146.7 180.414 142.586 176.3 137.393 175.831L132.092 175.352C124.659 174.68 120.135 166.845 123.27 160.072L125.506 155.242C127.696 150.51 126.19 144.89 121.928 141.887L117.576 138.822C111.475 134.523 111.475 125.477 117.576 121.178L121.928 118.113C126.19 115.11 127.696 109.49 125.506 104.758L123.27 99.9282C120.135 93.1546 124.659 85.3199 132.092 84.6483L137.393 84.1693C142.586 83.7002 146.7 79.5857 147.169 74.3931L147.648 69.0922C148.32 61.6585 156.155 57.1352 162.928 60.2704L167.758 62.506C172.49 64.696 178.11 63.19 181.113 58.9277L184.178 54.5765Z" fill="white"/>
<path d="M184.724 54.96C188.757 49.2357 197.243 49.2357 201.276 54.96L204.342 59.3115C207.53 63.8371 213.498 65.4364 218.521 63.1113L223.352 60.875C229.707 57.9335 237.057 62.1779 237.688 69.1523L238.167 74.4531C238.665 79.9664 243.034 84.3349 248.547 84.833L253.848 85.3125C260.822 85.9426 265.067 93.2933 262.125 99.6484L259.889 104.479C257.564 109.502 259.163 115.47 263.688 118.658L268.04 121.723V121.724C273.764 125.757 273.764 134.243 268.04 138.276L263.688 141.342C259.163 144.53 257.564 150.498 259.889 155.521L262.125 160.352C265.067 166.707 260.822 174.057 253.848 174.688L248.547 175.167C243.034 175.665 238.665 180.034 238.167 185.547L237.688 190.848C237.057 197.822 229.707 202.067 223.352 199.125L218.521 196.889C213.498 194.564 207.53 196.163 204.342 200.688L201.276 205.04C197.243 210.764 188.757 210.764 184.724 205.04L181.658 200.688C178.47 196.163 172.502 194.564 167.479 196.889L162.648 199.125C156.293 202.067 148.943 197.822 148.312 190.848L147.833 185.547C147.335 180.034 142.966 175.665 137.453 175.167L132.152 174.688C125.178 174.057 120.933 166.707 123.875 160.352L126.111 155.521C128.436 150.498 126.837 144.53 122.312 141.342L117.96 138.276C112.236 134.243 112.236 125.757 117.96 121.724L122.312 118.658C126.837 115.47 128.436 109.502 126.111 104.479L123.875 99.6484C120.933 93.2933 125.178 85.9426 132.152 85.3125L137.453 84.833C142.966 84.3349 147.335 79.9664 147.833 74.4531L148.312 69.1523C148.943 62.1779 156.293 57.9335 162.648 60.875L167.479 63.1113C172.502 65.4364 178.47 63.8371 181.658 59.3115L184.723 54.96H184.724Z" stroke="url(#paint1_linear_127_44161)" stroke-width="1.33333"/>
</g>
<path fill-rule="evenodd" clip-rule="evenodd" d="M213.117 140.256C212.894 142.19 212.225 143.752 211.035 144.793C209.845 145.834 208.283 146.355 206.275 146.355C204.862 146.355 203.672 145.983 202.631 145.314C201.59 144.644 200.771 143.677 200.176 142.339C199.582 141.074 199.284 139.587 199.284 137.951V135.497C199.284 133.86 199.582 132.373 200.176 131.109C200.771 129.844 201.59 128.803 202.705 128.134C203.821 127.464 205.085 127.093 206.498 127.093C208.506 127.093 210.068 127.613 211.258 128.729C212.448 129.77 213.117 131.332 213.266 133.191H211.555C211.183 129.993 209.473 128.431 206.424 128.431C204.713 128.431 203.374 129.101 202.408 130.365C201.366 131.629 200.92 133.414 200.92 135.645V137.951C200.92 140.108 201.441 141.818 202.408 143.082C203.374 144.347 204.713 145.016 206.349 145.016C207.985 145.016 209.25 144.644 210.068 143.826C210.886 143.008 211.407 141.818 211.63 140.256H213.117ZM196.16 137.728C196.16 139.438 195.863 140.926 195.268 142.264C194.673 143.529 193.855 144.57 192.739 145.239C191.624 145.909 190.359 146.28 188.946 146.28C186.79 146.28 185.005 145.537 183.666 143.975C182.327 142.413 181.658 140.331 181.658 137.653V135.72C181.658 134.009 181.955 132.522 182.55 131.183C183.145 129.844 184.038 128.877 185.079 128.134C186.195 127.464 187.459 127.093 188.872 127.093C190.285 127.093 191.549 127.464 192.665 128.134C193.781 128.803 194.599 129.77 195.194 131.034C195.789 132.299 196.086 133.786 196.16 135.422V137.728ZM194.599 135.72C194.599 133.488 194.078 131.704 193.037 130.439C191.996 129.175 190.657 128.506 188.872 128.506C187.161 128.506 185.748 129.175 184.707 130.439C183.666 131.704 183.145 133.488 183.145 135.794V137.728C183.145 139.959 183.666 141.669 184.707 143.008C185.748 144.272 187.161 144.942 188.872 144.942C190.657 144.942 192.07 144.272 193.037 143.008C194.004 141.744 194.524 139.959 194.524 137.653L194.599 135.72ZM177.642 141.446C177.642 140.405 177.27 139.587 176.526 138.992C175.783 138.397 174.444 137.802 172.51 137.281C170.577 136.761 169.164 136.166 168.271 135.497C167.007 134.604 166.338 133.414 166.338 131.927C166.338 130.514 166.932 129.324 168.122 128.431C169.312 127.539 170.8 127.093 172.659 127.093C173.923 127.093 175.039 127.316 176.006 127.836C176.973 128.282 177.716 128.952 178.311 129.844C178.832 130.662 179.129 131.629 179.129 132.67H177.568C177.568 131.406 177.121 130.365 176.229 129.621C175.336 128.877 174.221 128.431 172.733 128.431C171.32 128.431 170.205 128.729 169.312 129.398C168.494 130.067 168.048 130.885 168.048 131.927C168.048 132.894 168.42 133.637 169.164 134.232C169.907 134.827 171.172 135.348 172.808 135.794C174.518 136.24 175.783 136.761 176.601 137.207C177.493 137.728 178.088 138.323 178.534 138.992C178.981 139.661 179.204 140.479 179.204 141.446C179.204 142.934 178.609 144.124 177.419 145.016C176.229 145.909 174.667 146.355 172.808 146.355C171.469 146.355 170.279 146.132 169.164 145.685C168.048 145.239 167.23 144.57 166.635 143.677C166.04 142.859 165.817 141.892 165.817 140.777H167.379C167.379 142.116 167.899 143.157 168.866 143.9C169.833 144.644 171.172 145.016 172.808 145.016C174.295 145.016 175.411 144.719 176.303 144.049C177.196 143.38 177.642 142.562 177.642 141.446ZM220.777 110.508H212.299L210.365 115.788H208.729L215.794 97.1209H217.282L224.347 115.788H222.711L220.777 110.508ZM212.82 109.169H220.331L216.613 98.9802L212.82 109.169ZM198.168 108.128V115.714H196.607V97.1209H202.928C204.862 97.1209 206.424 97.6415 207.539 98.6083C208.655 99.5751 209.25 100.988 209.25 102.699C209.25 104.484 208.729 105.822 207.614 106.789C206.498 107.756 204.936 108.202 202.928 108.202H198.168V108.128ZM198.168 106.789H202.928C204.49 106.789 205.606 106.417 206.424 105.674C207.242 104.93 207.614 103.963 207.614 102.624C207.614 101.36 207.242 100.319 206.424 99.5008C205.606 98.757 204.49 98.3108 203.003 98.3108H198.168V106.789ZM193.037 109.913C192.814 111.846 192.144 113.408 190.954 114.449C189.764 115.491 188.203 116.011 186.195 116.011C184.782 116.011 183.592 115.639 182.55 114.97C181.509 114.301 180.691 113.334 180.096 111.995C179.501 110.731 179.204 109.243 179.204 107.607V105.153C179.204 103.517 179.501 102.029 180.096 100.765C180.691 99.5008 181.509 98.4596 182.625 97.7902C183.74 97.1209 185.005 96.749 186.418 96.749C188.426 96.749 189.988 97.2696 191.178 98.3852C192.367 99.4264 193.037 100.988 193.186 102.847H191.624C191.252 99.6495 189.541 98.0877 186.492 98.0877C184.782 98.0877 183.443 98.7571 182.476 100.021C181.435 101.286 180.989 103.071 180.989 105.302V107.607C180.989 109.764 181.509 111.475 182.476 112.739C183.443 114.003 184.782 114.673 186.418 114.673C188.054 114.673 189.318 114.301 190.136 113.483C190.954 112.664 191.475 111.475 191.698 109.913H193.037ZM173.403 115.788H174.965V97.1209H173.403V115.788ZM167.007 110.508H158.529L156.595 115.788H154.959L162.024 97.1209H163.511L170.577 115.788H168.941L167.007 110.508ZM159.049 109.169H166.561L162.842 98.9802L159.049 109.169ZM240.56 107.756C240.411 107.756 240.337 107.83 240.337 107.979C240.337 108.128 240.263 108.277 240.337 108.5C240.337 108.723 240.337 108.946 240.337 109.095C240.263 109.467 240.114 109.69 239.816 109.764C239.593 109.838 239.296 109.764 239.073 109.615C238.85 109.467 238.701 109.169 238.552 108.872C238.478 108.5 238.478 108.202 238.552 107.905C238.626 107.607 238.85 107.458 239.147 107.384L239.37 108.053C239.221 108.053 239.147 108.202 239.073 108.277C238.998 108.425 238.998 108.5 239.073 108.723C239.147 108.872 239.221 108.946 239.296 109.02C239.37 109.095 239.519 109.095 239.593 109.095C239.668 109.095 239.742 109.02 239.816 108.872C239.816 108.797 239.816 108.574 239.816 108.277C239.816 107.979 239.816 107.756 239.816 107.607C239.816 107.458 239.891 107.31 240.04 107.161C240.114 107.012 240.263 106.938 240.411 106.938C240.709 106.864 240.932 106.938 241.155 107.087C241.378 107.235 241.527 107.533 241.676 107.905C241.75 108.128 241.75 108.351 241.75 108.574C241.75 108.797 241.676 108.946 241.527 109.095C241.378 109.243 241.229 109.318 241.081 109.392L240.858 108.723C241.006 108.648 241.081 108.574 241.155 108.425C241.229 108.277 241.229 108.128 241.155 107.979C241.081 107.83 241.006 107.682 240.932 107.607C240.783 107.682 240.634 107.682 240.56 107.756ZM239.519 112.516L239.816 112.441C239.519 112.293 239.296 111.995 239.221 111.623C239.073 111.028 239.37 110.582 240.114 110.433L242.122 109.987L242.271 110.656L240.337 111.103C240.114 111.177 240.04 111.251 239.965 111.326C239.891 111.4 239.891 111.549 239.891 111.772C239.965 112.07 240.114 112.218 240.411 112.293L242.568 111.772L242.717 112.441L239.668 113.111L239.519 112.516ZM241.75 116.309C241.453 116.383 241.155 116.309 240.932 116.234C240.709 116.16 240.486 116.011 240.263 115.862C240.114 115.639 239.965 115.416 239.965 115.119C239.891 114.673 239.965 114.375 240.188 114.078C240.411 113.78 240.709 113.557 241.155 113.483H241.304C241.601 113.408 241.899 113.408 242.122 113.557C242.345 113.631 242.568 113.78 242.791 113.929C242.94 114.152 243.089 114.375 243.089 114.673C243.163 115.119 243.089 115.491 242.866 115.788C242.568 116.011 242.271 116.234 241.75 116.309ZM241.676 115.639C241.973 115.565 242.196 115.491 242.345 115.342C242.494 115.193 242.568 114.97 242.494 114.747C242.494 114.524 242.345 114.375 242.122 114.226C241.899 114.152 241.676 114.078 241.304 114.152C241.006 114.226 240.783 114.301 240.635 114.449C240.486 114.598 240.411 114.821 240.486 115.044C240.486 115.267 240.634 115.416 240.858 115.565C241.081 115.639 241.304 115.639 241.676 115.639ZM239.593 118.019C239.519 118.019 239.37 118.019 239.296 117.945C239.221 117.87 239.147 117.796 239.147 117.647C239.147 117.499 239.147 117.424 239.221 117.35C239.296 117.276 239.37 117.201 239.445 117.201C239.519 117.201 239.668 117.201 239.742 117.276C239.816 117.35 239.891 117.424 239.891 117.573C239.891 117.722 239.891 117.796 239.816 117.87C239.742 117.945 239.668 117.945 239.593 118.019ZM243.386 116.829L243.461 117.499L240.411 117.87L240.337 117.201L243.386 116.829ZM239.742 118.986L240.486 118.912L240.411 118.391L240.932 118.317L241.006 118.837L242.717 118.689C242.866 118.689 242.94 118.614 242.94 118.614C243.014 118.54 243.014 118.465 243.014 118.391C243.014 118.317 243.014 118.242 242.94 118.168L243.461 118.094C243.535 118.242 243.535 118.391 243.535 118.54C243.609 119.06 243.312 119.358 242.717 119.432L241.006 119.581L241.081 120.102L240.56 120.176L240.486 119.655L239.742 119.73V118.986ZM243.758 120.994C243.684 121.068 243.535 121.068 243.461 121.068C243.684 121.292 243.832 121.515 243.832 121.887C243.832 122.184 243.758 122.482 243.609 122.63C243.461 122.853 243.238 122.928 242.94 122.928C242.643 122.928 242.345 122.853 242.196 122.556C242.048 122.333 241.899 121.961 241.899 121.515V121.068H241.676C241.527 121.068 241.378 121.143 241.304 121.217C241.229 121.292 241.155 121.44 241.155 121.663C241.155 121.812 241.229 121.961 241.304 122.035C241.378 122.11 241.453 122.184 241.601 122.184V122.853C241.453 122.853 241.229 122.779 241.155 122.705C241.006 122.556 240.858 122.407 240.783 122.258C240.709 122.035 240.635 121.812 240.635 121.589C240.635 121.217 240.709 120.92 240.858 120.697C241.006 120.473 241.304 120.325 241.601 120.325L243.014 120.25C243.312 120.25 243.535 120.176 243.684 120.102H243.758V120.994ZM243.238 121.812C243.238 121.663 243.163 121.515 243.089 121.44C243.014 121.292 242.94 121.217 242.791 121.143H242.196V121.515C242.196 121.738 242.271 121.961 242.345 122.11C242.419 122.258 242.568 122.258 242.717 122.258C242.866 122.258 242.94 122.184 243.014 122.11C243.238 122.035 243.238 121.961 243.238 121.812ZM243.238 125.159V123.523H243.758L243.684 126.051H243.238L241.155 124.415V125.977H240.56L240.635 123.523H241.081L243.238 125.159ZM239.742 127.316C239.668 127.316 239.519 127.241 239.519 127.167C239.445 127.093 239.445 127.018 239.445 126.869C239.445 126.721 239.519 126.646 239.593 126.572C239.668 126.498 239.742 126.498 239.891 126.498C239.965 126.498 240.114 126.572 240.114 126.646C240.188 126.721 240.188 126.795 240.188 126.944C240.188 127.093 240.114 127.167 240.04 127.241C239.965 127.241 239.891 127.316 239.742 127.316ZM243.684 126.795L243.609 127.464L240.56 127.316L240.635 126.646L243.684 126.795ZM240.337 129.919H240.709C240.486 129.696 240.337 129.324 240.411 128.952C240.486 128.282 240.858 128.059 241.601 128.059L243.609 128.282L243.535 128.952L241.527 128.729C241.304 128.729 241.155 128.729 241.081 128.803C241.006 128.877 240.932 129.026 240.932 129.175C240.932 129.472 241.006 129.696 241.229 129.844L243.386 130.067L243.312 130.737L240.263 130.439L240.337 129.919ZM243.163 132.373C243.089 132.373 243.014 132.373 242.866 132.373C243.089 132.596 243.089 132.894 243.089 133.265C243.014 133.563 242.94 133.786 242.717 133.935C242.494 134.083 242.271 134.158 242.048 134.083C241.75 134.009 241.527 133.86 241.378 133.563C241.229 133.265 241.229 132.968 241.304 132.447L241.378 132.001H241.155C241.006 132.001 240.858 132.001 240.783 132.075C240.709 132.15 240.634 132.299 240.56 132.447C240.56 132.596 240.56 132.745 240.635 132.819C240.709 132.968 240.783 132.968 240.932 133.042L240.783 133.712C240.635 133.712 240.486 133.563 240.337 133.488C240.188 133.34 240.114 133.191 240.04 132.968C239.965 132.745 239.965 132.522 240.04 132.299C240.114 131.927 240.263 131.704 240.486 131.48C240.709 131.332 241.006 131.257 241.304 131.257L242.717 131.48C243.014 131.555 243.238 131.555 243.386 131.48H243.461L243.163 132.373ZM242.494 133.042C242.494 132.894 242.494 132.745 242.494 132.67C242.419 132.522 242.345 132.447 242.271 132.373L241.676 132.299L241.601 132.67C241.527 132.894 241.601 133.117 241.601 133.265C241.676 133.414 241.75 133.488 241.973 133.488C242.122 133.488 242.196 133.488 242.345 133.414C242.419 133.265 242.494 133.191 242.494 133.042ZM240.486 137.356C240.04 137.281 239.668 137.058 239.445 136.761C239.221 136.463 239.147 136.166 239.221 135.794C239.296 135.422 239.519 135.199 239.742 135.05L239.445 134.976L239.593 134.381L242.494 135.05C242.866 135.125 243.163 135.348 243.312 135.645C243.461 135.943 243.535 136.315 243.386 136.686C243.312 136.91 243.237 137.133 243.089 137.281C242.94 137.505 242.791 137.579 242.643 137.653L242.345 137.207C242.643 137.058 242.791 136.835 242.866 136.538C242.94 136.315 242.866 136.091 242.791 135.943C242.717 135.794 242.568 135.645 242.271 135.645L242.048 135.571C242.196 135.794 242.271 136.091 242.196 136.463C242.122 136.835 241.899 137.058 241.601 137.207C241.378 137.43 241.006 137.43 240.486 137.356ZM240.709 136.686C241.006 136.761 241.229 136.761 241.453 136.686C241.676 136.612 241.824 136.463 241.824 136.24C241.899 135.943 241.824 135.72 241.601 135.571L240.263 135.273C240.04 135.348 239.816 135.497 239.742 135.794C239.668 136.017 239.742 136.24 239.891 136.389C240.114 136.463 240.411 136.612 240.709 136.686ZM239.519 137.43C239.445 137.505 239.445 137.579 239.445 137.728C239.37 138.025 239.445 138.248 239.593 138.471L241.601 139.066L241.378 139.736L238.403 138.843L238.552 138.174L238.924 138.248C238.701 138.025 238.626 137.728 238.701 137.43C238.701 137.356 238.775 137.281 238.775 137.207L239.519 137.43ZM239.37 139.81C239.742 139.959 240.04 140.108 240.337 140.331C240.56 140.554 240.709 140.851 240.783 141.149C240.858 141.446 240.858 141.744 240.709 142.116C240.634 142.413 240.411 142.711 240.188 142.859C239.965 143.082 239.668 143.157 239.296 143.231C238.924 143.231 238.626 143.231 238.255 143.082L238.032 143.008C237.66 142.859 237.362 142.711 237.065 142.413C236.842 142.19 236.693 141.892 236.618 141.595C236.544 141.297 236.544 141 236.693 140.628C236.842 140.331 236.99 140.033 237.213 139.884C237.437 139.661 237.734 139.587 238.106 139.513C238.478 139.513 238.775 139.513 239.221 139.661L239.37 139.81ZM238.924 140.405C238.478 140.256 238.106 140.182 237.808 140.331C237.511 140.405 237.288 140.628 237.213 140.926C237.139 141.223 237.139 141.521 237.288 141.744C237.437 141.967 237.734 142.19 238.18 142.339L238.403 142.413C238.85 142.562 239.221 142.562 239.519 142.487C239.816 142.413 240.04 142.19 240.114 141.892C240.188 141.595 240.188 141.297 240.04 141.074C239.891 140.851 239.593 140.628 239.147 140.479L238.924 140.405ZM238.775 146.875C238.626 147.247 238.329 147.545 237.957 147.693C237.585 147.842 237.213 147.768 236.767 147.619H236.693C236.395 147.47 236.172 147.322 236.023 147.098C235.875 146.875 235.726 146.652 235.726 146.429C235.726 146.206 235.726 145.908 235.875 145.685C236.023 145.314 236.321 145.09 236.618 144.942C236.99 144.867 237.362 144.867 237.808 145.09L238.032 145.239L237.139 147.098C237.362 147.173 237.585 147.173 237.808 147.098C238.032 147.024 238.18 146.875 238.255 146.652C238.403 146.355 238.403 146.057 238.255 145.76L238.701 145.537C238.85 145.76 238.85 145.909 238.85 146.132C238.924 146.429 238.85 146.652 238.775 146.875ZM236.321 145.834C236.247 145.983 236.247 146.132 236.321 146.355C236.395 146.503 236.544 146.652 236.767 146.801L237.362 145.611H237.288C237.065 145.537 236.916 145.537 236.767 145.537C236.544 145.537 236.395 145.685 236.321 145.834ZM236.767 149.553C236.842 149.404 236.842 149.255 236.842 149.106C236.842 148.958 236.693 148.809 236.618 148.735L236.916 148.14C237.065 148.214 237.213 148.363 237.288 148.586C237.362 148.735 237.437 148.958 237.437 149.181C237.437 149.404 237.362 149.627 237.288 149.776C237.065 150.148 236.767 150.371 236.395 150.445C236.023 150.52 235.652 150.445 235.205 150.222H235.131C234.685 149.999 234.462 149.701 234.313 149.33C234.164 148.958 234.239 148.586 234.462 148.214C234.61 147.917 234.908 147.693 235.205 147.545C235.503 147.47 235.8 147.47 236.098 147.619L235.8 148.214C235.652 148.14 235.503 148.14 235.354 148.14C235.205 148.214 235.057 148.288 234.982 148.437C234.908 148.66 234.834 148.809 234.982 149.032C235.057 149.181 235.28 149.404 235.577 149.553L235.652 149.627C235.949 149.776 236.172 149.85 236.395 149.85C236.544 149.925 236.693 149.776 236.767 149.553ZM232.454 150.296C232.379 150.222 232.305 150.148 232.305 150.073C232.305 149.999 232.305 149.85 232.379 149.776C232.454 149.701 232.528 149.627 232.602 149.553C232.677 149.553 232.826 149.553 232.9 149.627C232.974 149.701 233.049 149.776 233.049 149.85C233.049 149.925 233.049 150.073 232.974 150.148C232.9 150.222 232.826 150.296 232.751 150.371C232.677 150.371 232.528 150.371 232.454 150.296ZM236.172 151.709L235.8 152.304L233.123 150.743L233.495 150.148L236.172 151.709ZM234.015 153.494L232.528 151.709L232.9 151.114L234.908 153.717L234.61 154.238L231.412 153.42L231.784 152.825L234.015 153.494ZM231.859 153.941C231.784 154.015 231.71 154.089 231.71 154.164C231.487 154.387 231.487 154.684 231.636 154.907L233.346 156.172L232.974 156.767L230.446 154.982L230.817 154.461L231.115 154.684C230.966 154.387 231.041 154.089 231.189 153.866C231.264 153.792 231.264 153.717 231.338 153.717L231.859 153.941ZM231.784 158.254C231.487 158.626 231.189 158.775 230.817 158.849C230.446 158.923 230.074 158.775 229.702 158.477L229.628 158.403C229.404 158.254 229.256 158.031 229.107 157.734C228.958 157.51 228.958 157.213 228.958 156.99C228.958 156.767 229.107 156.544 229.256 156.32C229.553 156.023 229.851 155.8 230.148 155.8C230.52 155.8 230.892 155.949 231.264 156.246L231.487 156.395L230.223 157.957C230.446 158.105 230.669 158.18 230.892 158.105C231.115 158.105 231.264 157.957 231.412 157.808C231.636 157.585 231.71 157.287 231.636 156.99L232.156 156.915C232.231 157.139 232.231 157.362 232.156 157.585C232.007 157.808 231.933 158.031 231.784 158.254ZM229.628 156.618C229.479 156.767 229.479 156.915 229.479 157.139C229.479 157.287 229.628 157.51 229.776 157.659L230.594 156.618H230.52C230.297 156.469 230.148 156.395 229.999 156.469C229.925 156.395 229.776 156.469 229.628 156.618ZM229.107 159.593C228.958 159.444 228.809 159.444 228.661 159.444C228.512 159.444 228.289 159.593 227.991 159.742C227.694 159.89 227.396 160.039 227.173 160.113C226.727 160.262 226.355 160.188 226.132 159.89C225.909 159.667 225.76 159.37 225.835 158.998C225.835 158.626 225.983 158.329 226.281 157.957C226.504 157.734 226.727 157.585 226.95 157.51C227.173 157.436 227.396 157.362 227.62 157.436C227.843 157.51 228.066 157.585 228.214 157.734L227.694 158.254C227.545 158.105 227.396 158.031 227.173 158.031C227.025 158.031 226.801 158.18 226.653 158.329C226.504 158.477 226.43 158.7 226.43 158.849C226.43 158.998 226.504 159.147 226.578 159.295C226.727 159.37 226.801 159.444 227.025 159.37C227.173 159.37 227.396 159.221 227.694 159.072C227.991 158.923 228.214 158.775 228.438 158.7C228.661 158.626 228.884 158.626 229.033 158.7C229.181 158.775 229.404 158.849 229.553 158.998C229.776 159.221 229.925 159.518 229.925 159.816C229.925 160.188 229.702 160.485 229.404 160.857C229.181 161.08 228.958 161.229 228.735 161.378C228.512 161.452 228.214 161.526 227.991 161.526C227.768 161.526 227.545 161.378 227.322 161.229L227.843 160.708C227.991 160.857 228.214 160.932 228.438 160.932C228.661 160.932 228.809 160.783 229.033 160.56C229.181 160.411 229.256 160.188 229.33 160.039C229.256 159.89 229.256 159.742 229.107 159.593ZM226.058 165.319L225.835 165.543L222.562 161.898L222.785 161.675L226.058 165.319ZM221.521 167.03C221.447 166.881 221.298 166.807 221.149 166.807C221 166.807 220.777 166.881 220.48 166.956C220.257 167.104 220.034 167.179 219.811 167.179C219.662 167.179 219.513 167.179 219.364 167.179C219.216 167.104 219.141 167.03 219.067 166.956C218.918 166.732 218.918 166.509 218.918 166.286C218.992 166.063 219.141 165.84 219.439 165.617C219.736 165.394 219.959 165.319 220.257 165.319C220.554 165.319 220.777 165.468 220.926 165.691L220.629 165.914C220.554 165.766 220.331 165.691 220.182 165.691C219.959 165.691 219.811 165.766 219.587 165.914C219.439 166.063 219.29 166.212 219.216 166.361C219.141 166.509 219.216 166.658 219.29 166.807C219.364 166.956 219.513 167.03 219.662 167.03C219.811 167.03 220.034 166.956 220.331 166.881C220.629 166.732 220.852 166.658 221 166.658C221.149 166.658 221.298 166.658 221.447 166.658C221.595 166.732 221.67 166.807 221.744 166.956C221.893 167.179 221.967 167.402 221.893 167.625C221.819 167.848 221.67 168.071 221.372 168.294C221.075 168.517 220.777 168.592 220.48 168.592C220.182 168.592 219.959 168.443 219.811 168.294L220.108 168.071C220.257 168.22 220.406 168.294 220.554 168.294C220.777 168.294 220.926 168.22 221.149 168.071C221.372 167.922 221.447 167.774 221.521 167.625C221.67 167.253 221.595 167.104 221.521 167.03ZM216.315 167.848L216.613 168.294C216.613 168.071 216.613 167.848 216.761 167.699C216.836 167.551 216.984 167.402 217.133 167.253C217.431 167.104 217.654 167.03 217.877 167.104C218.1 167.179 218.323 167.327 218.546 167.699L219.662 169.41L219.364 169.559L218.249 167.848C218.1 167.625 217.951 167.476 217.728 167.402C217.579 167.327 217.356 167.402 217.133 167.551C216.984 167.699 216.836 167.848 216.761 167.997C216.687 168.22 216.687 168.443 216.761 168.666L217.951 170.451L217.654 170.6L215.943 167.997L216.315 167.848ZM213.786 171.046C213.638 170.823 213.563 170.525 213.563 170.228C213.563 169.93 213.563 169.707 213.712 169.484C213.861 169.261 214.01 169.112 214.233 168.964C214.605 168.741 214.976 168.741 215.348 168.815C215.72 168.964 216.018 169.187 216.241 169.633V169.707C216.389 169.93 216.464 170.228 216.464 170.525C216.464 170.749 216.464 171.046 216.315 171.269C216.166 171.492 216.018 171.641 215.794 171.79C215.423 172.013 215.051 172.013 214.679 171.938C214.307 171.79 214.01 171.492 213.786 171.046ZM214.084 170.972C214.233 171.269 214.53 171.492 214.753 171.641C215.051 171.79 215.348 171.715 215.571 171.567C215.869 171.418 216.018 171.195 216.018 170.897C216.092 170.6 216.018 170.302 215.794 169.93V169.856C215.646 169.633 215.497 169.484 215.348 169.335C215.2 169.187 214.976 169.112 214.828 169.112C214.605 169.112 214.456 169.112 214.307 169.261C214.01 169.41 213.861 169.633 213.861 169.93C213.861 170.228 213.861 170.525 214.084 170.972ZM211.63 169.41C211.63 169.335 211.63 169.261 211.63 169.261C211.63 169.187 211.704 169.187 211.778 169.112C211.853 169.112 211.927 169.038 211.927 169.112C212.002 169.112 212.002 169.187 212.076 169.261C212.076 169.335 212.076 169.41 212.076 169.41C212.076 169.484 212.002 169.484 211.927 169.559C211.853 169.559 211.778 169.633 211.778 169.559C211.704 169.559 211.63 169.484 211.63 169.41ZM213.786 172.831L213.489 172.98L212.076 170.228L212.373 170.079L213.786 172.831ZM210.514 170.079L210.886 170.823L211.481 170.525L211.63 170.749L211.035 171.046L211.927 172.905C212.002 173.054 212.076 173.128 212.15 173.203C212.225 173.277 212.373 173.277 212.448 173.203C212.522 173.203 212.597 173.128 212.671 173.054L212.82 173.277C212.745 173.352 212.597 173.426 212.522 173.5C212.299 173.575 212.15 173.575 212.002 173.5C211.853 173.426 211.704 173.277 211.63 173.054L210.737 171.195L210.217 171.418L210.068 171.195L210.588 170.972L210.217 170.228L210.514 170.079ZM210.514 174.393C210.44 174.318 210.365 174.17 210.291 174.021C210.217 174.244 210.142 174.393 209.993 174.541C209.845 174.69 209.696 174.839 209.473 174.913C209.175 175.062 208.952 175.062 208.729 174.988C208.506 174.913 208.357 174.765 208.209 174.541C208.06 174.244 208.134 174.021 208.283 173.723C208.432 173.5 208.729 173.277 209.175 173.054L209.77 172.831L209.622 172.533C209.547 172.31 209.399 172.162 209.25 172.162C209.101 172.087 208.878 172.087 208.655 172.236C208.432 172.31 208.283 172.459 208.209 172.608C208.134 172.757 208.06 172.98 208.134 173.128L207.837 173.277C207.762 173.054 207.762 172.831 207.911 172.533C208.06 172.31 208.283 172.087 208.58 171.938C208.878 171.79 209.175 171.79 209.399 171.864C209.622 171.938 209.845 172.162 209.993 172.385L210.588 173.723C210.737 174.021 210.812 174.17 210.96 174.318L210.514 174.393ZM209.399 174.541C209.622 174.467 209.77 174.318 209.919 174.17C210.068 174.021 210.142 173.798 210.142 173.575L209.919 172.98L209.324 173.203C209.027 173.352 208.804 173.5 208.655 173.649C208.506 173.798 208.506 174.021 208.58 174.244C208.655 174.393 208.729 174.541 208.952 174.541C209.027 174.616 209.175 174.616 209.399 174.541ZM205.977 175.806L207.911 175.136L207.985 175.434L205.68 176.252L205.606 176.029L206.572 172.98L204.862 173.575L204.788 173.277L206.944 172.533L207.019 172.757L205.977 175.806ZM203.3 172.757C203.3 172.682 203.3 172.608 203.3 172.608C203.3 172.533 203.374 172.533 203.449 172.459C203.523 172.459 203.598 172.459 203.598 172.459C203.672 172.459 203.672 172.533 203.672 172.608C203.672 172.682 203.672 172.757 203.672 172.757C203.672 172.831 203.598 172.831 203.523 172.905C203.449 172.905 203.374 172.905 203.374 172.905C203.374 172.831 203.374 172.757 203.3 172.757ZM204.862 176.401L204.564 176.475L203.672 173.5L203.969 173.426L204.862 176.401ZM200.846 174.318L200.995 174.839C201.069 174.616 201.143 174.467 201.292 174.318C201.441 174.17 201.59 174.095 201.813 174.021C202.11 173.947 202.408 173.946 202.631 174.095C202.854 174.244 203.003 174.467 203.077 174.839L203.598 176.773L203.3 176.847L202.779 174.913C202.705 174.616 202.631 174.467 202.482 174.393C202.333 174.318 202.11 174.244 201.887 174.318C201.664 174.393 201.515 174.467 201.366 174.616C201.218 174.765 201.143 174.988 201.143 175.211L201.664 177.293L201.366 177.368L200.623 174.393L200.846 174.318ZM199.953 177.665C199.879 177.591 199.879 177.442 199.805 177.219C199.73 177.368 199.582 177.516 199.433 177.665C199.284 177.814 199.061 177.888 198.912 177.888C198.615 177.963 198.392 177.888 198.168 177.814C197.945 177.665 197.797 177.516 197.797 177.219C197.722 176.921 197.797 176.698 198.02 176.475C198.243 176.252 198.54 176.103 198.987 176.029L199.582 175.88L199.507 175.508C199.433 175.285 199.358 175.136 199.21 175.062C199.061 174.988 198.838 174.913 198.615 174.988C198.392 175.062 198.168 175.136 198.094 175.285C197.945 175.434 197.945 175.583 197.945 175.731L197.573 175.806C197.499 175.583 197.573 175.36 197.797 175.136C198.02 174.913 198.243 174.765 198.54 174.69C198.912 174.616 199.135 174.69 199.358 174.765C199.582 174.913 199.73 175.136 199.805 175.434L200.102 176.847C200.176 177.144 200.251 177.368 200.325 177.516L199.953 177.665ZM198.838 177.665C199.061 177.591 199.284 177.516 199.433 177.368C199.582 177.219 199.656 177.07 199.73 176.847L199.582 176.178L198.987 176.326C198.689 176.401 198.392 176.475 198.243 176.698C198.094 176.847 198.02 177.07 198.02 177.219C198.02 177.368 198.168 177.516 198.317 177.591C198.466 177.665 198.689 177.665 198.838 177.665ZM194.301 176.996C194.227 176.55 194.301 176.103 194.45 175.806C194.599 175.508 194.896 175.285 195.268 175.285C195.714 175.211 196.012 175.36 196.309 175.657L196.235 175.211L196.532 175.136L196.904 178.111C196.979 178.483 196.904 178.855 196.681 179.078C196.458 179.301 196.235 179.524 195.863 179.524C195.64 179.524 195.417 179.524 195.268 179.45C195.045 179.376 194.896 179.301 194.747 179.153L194.896 178.929C195.194 179.227 195.491 179.301 195.789 179.227C196.086 179.227 196.309 179.078 196.384 178.855C196.532 178.632 196.607 178.409 196.532 178.111L196.458 177.739C196.309 178.037 196.012 178.26 195.565 178.334C195.194 178.409 194.896 178.26 194.673 178.037C194.524 177.888 194.376 177.516 194.301 176.996ZM194.673 176.996C194.747 177.368 194.822 177.665 195.045 177.888C195.194 178.111 195.491 178.186 195.789 178.111C196.235 178.037 196.458 177.814 196.607 177.442L196.458 176.029C196.384 175.88 196.235 175.731 196.086 175.657C195.937 175.583 195.714 175.508 195.491 175.583C195.194 175.583 194.97 175.731 194.896 176.029C194.673 176.252 194.599 176.55 194.673 176.996ZM193.781 175.806C193.706 175.806 193.632 175.806 193.557 175.806C193.334 175.806 193.186 175.88 193.037 176.029C192.888 176.178 192.814 176.326 192.739 176.549L192.888 178.632H192.516L192.293 175.583H192.591L192.665 176.103C192.814 175.731 193.111 175.508 193.483 175.508C193.557 175.508 193.632 175.508 193.706 175.508L193.781 175.806ZM191.549 176.921C191.549 177.293 191.475 177.665 191.401 177.963C191.252 178.26 191.103 178.483 190.88 178.632C190.657 178.781 190.359 178.855 190.062 178.855C189.541 178.855 189.17 178.706 188.872 178.334C188.575 177.963 188.426 177.516 188.426 176.921V176.475C188.426 176.103 188.5 175.731 188.575 175.434C188.723 175.136 188.872 174.913 189.095 174.765C189.318 174.616 189.616 174.541 189.913 174.541C190.211 174.541 190.508 174.616 190.731 174.765C190.954 174.913 191.178 175.136 191.326 175.434C191.475 175.731 191.549 176.029 191.549 176.401V176.921ZM191.252 176.475C191.252 175.955 191.103 175.583 190.88 175.285C190.657 174.988 190.359 174.839 189.913 174.913C189.541 174.913 189.244 175.062 189.021 175.36C188.798 175.657 188.723 176.029 188.723 176.549V176.996C188.723 177.516 188.872 177.888 189.095 178.186C189.318 178.483 189.616 178.632 190.062 178.632C190.434 178.632 190.731 178.483 190.954 178.186C191.178 177.888 191.252 177.516 191.252 176.996V176.475ZM185.005 178.781C184.41 178.781 184.038 178.483 183.815 177.963C183.74 177.739 183.666 177.442 183.666 177.144V176.996C183.666 176.698 183.74 176.401 183.889 176.178C184.038 175.955 184.187 175.806 184.41 175.657C184.633 175.508 184.856 175.508 185.079 175.508C185.451 175.508 185.748 175.657 185.972 175.955C186.195 176.252 186.269 176.55 186.195 176.996V177.219L183.964 177.07V177.144C183.964 177.516 184.038 177.814 184.187 178.037C184.335 178.26 184.633 178.409 184.93 178.409C185.079 178.409 185.228 178.409 185.451 178.334C185.6 178.26 185.748 178.186 185.823 178.037L186.046 178.186C185.823 178.632 185.451 178.781 185.005 178.781ZM185.079 175.88C184.856 175.88 184.633 175.955 184.41 176.103C184.187 176.252 184.112 176.55 184.038 176.847L185.897 176.996V176.921C185.897 176.624 185.823 176.401 185.674 176.178C185.6 175.955 185.377 175.88 185.079 175.88ZM181.807 178.186C182.03 178.186 182.253 178.186 182.402 178.037C182.55 177.888 182.699 177.739 182.699 177.516L182.997 177.591C182.997 177.739 182.848 177.963 182.774 178.111C182.625 178.26 182.476 178.334 182.327 178.409C182.104 178.483 181.955 178.483 181.732 178.483C181.361 178.409 181.063 178.26 180.84 177.963C180.617 177.665 180.542 177.293 180.617 176.773V176.698C180.617 176.401 180.766 176.178 180.84 175.88C180.989 175.657 181.137 175.508 181.361 175.434C181.584 175.36 181.807 175.285 182.104 175.36C182.476 175.434 182.699 175.508 182.922 175.731C183.145 175.955 183.22 176.252 183.145 176.549L182.848 176.475C182.848 176.252 182.774 176.029 182.699 175.88C182.55 175.731 182.402 175.583 182.104 175.583C181.807 175.508 181.509 175.657 181.361 175.806C181.137 176.029 181.063 176.326 180.989 176.698V176.773C180.914 177.144 180.989 177.516 181.137 177.739C181.286 178.037 181.509 178.111 181.807 178.186ZM179.576 178.111L179.204 178.037L179.724 174.988L180.096 175.062L179.576 178.111ZM179.873 174.095C179.873 173.946 180.022 173.872 180.171 173.872C180.245 173.872 180.319 173.947 180.319 173.947C180.319 174.021 180.394 174.021 180.319 174.095C180.319 174.17 180.245 174.244 180.245 174.244C180.171 174.318 180.096 174.318 180.096 174.244C180.022 174.244 179.947 174.17 179.947 174.17C179.873 174.244 179.873 174.17 179.873 174.095ZM177.419 177.219L178.906 174.839L179.278 174.913L177.493 177.739L177.196 177.665L176.675 174.393L177.047 174.467L177.419 177.219ZM176.378 174.616C176.303 174.616 176.229 174.541 176.155 174.541C175.931 174.467 175.783 174.467 175.56 174.541C175.411 174.616 175.262 174.765 175.113 174.988L174.593 177.07L174.295 176.996L175.039 174.021L175.336 174.095L175.188 174.541C175.485 174.244 175.783 174.095 176.155 174.244C176.229 174.244 176.303 174.318 176.378 174.318V174.616ZM172.362 176.475C171.841 176.326 171.544 175.955 171.395 175.434C171.32 175.136 171.395 174.913 171.469 174.616V174.467C171.544 174.17 171.692 173.947 171.841 173.723C171.99 173.5 172.213 173.426 172.436 173.352C172.659 173.277 172.882 173.277 173.105 173.352C173.477 173.5 173.7 173.649 173.849 174.021C173.998 174.318 173.998 174.69 173.849 175.136L173.775 175.285L171.692 174.616V174.69C171.618 175.062 171.618 175.36 171.692 175.583C171.841 175.88 171.99 176.029 172.287 176.178C172.436 176.252 172.659 176.252 172.808 176.252C172.957 176.252 173.105 176.178 173.254 176.029L173.403 176.252C173.254 176.549 172.882 176.624 172.362 176.475ZM173.18 173.649C172.957 173.575 172.733 173.575 172.51 173.723C172.287 173.872 172.138 174.095 171.99 174.318L173.775 174.839C173.849 174.541 173.849 174.318 173.775 174.095C173.626 173.872 173.477 173.723 173.18 173.649ZM170.502 174.69C170.577 174.467 170.577 174.244 170.502 174.095C170.428 173.946 170.13 173.723 169.833 173.426C169.461 173.128 169.238 172.905 169.089 172.682C168.866 172.385 168.866 172.087 168.941 171.79C169.089 171.492 169.238 171.269 169.61 171.195C169.907 171.12 170.279 171.12 170.651 171.269C170.874 171.344 171.097 171.492 171.32 171.715C171.469 171.864 171.618 172.087 171.618 172.31C171.692 172.533 171.618 172.757 171.544 172.98L171.246 172.831C171.32 172.533 171.32 172.31 171.246 172.087C171.097 171.864 170.949 171.715 170.577 171.567C170.279 171.418 169.982 171.418 169.759 171.492C169.535 171.567 169.387 171.715 169.312 171.938C169.238 172.162 169.238 172.31 169.387 172.533C169.461 172.682 169.684 172.905 170.056 173.128C170.354 173.352 170.577 173.575 170.725 173.723C170.874 173.872 170.949 174.095 171.023 174.244C171.023 174.467 171.023 174.616 170.949 174.765C170.8 175.062 170.651 175.285 170.279 175.36C169.982 175.434 169.61 175.434 169.238 175.285C168.941 175.211 168.717 175.062 168.569 174.839C168.346 174.69 168.271 174.467 168.197 174.244C168.122 174.021 168.197 173.798 168.271 173.575L168.569 173.723C168.494 174.021 168.494 174.244 168.643 174.467C168.792 174.69 169.015 174.913 169.387 174.988C169.684 175.136 169.982 175.136 170.205 175.062C170.279 175.062 170.428 174.913 170.502 174.69ZM167.081 171.418C167.007 171.344 166.932 171.344 166.858 171.269C166.709 171.195 166.486 171.12 166.263 171.195C166.114 171.269 165.891 171.343 165.743 171.492L164.85 173.426L164.553 173.277L165.891 170.451L166.189 170.6L165.966 171.046C166.263 170.823 166.635 170.749 167.007 170.897C167.081 170.972 167.156 170.972 167.23 171.046L167.081 171.418ZM162.173 170.228C162.321 169.93 162.47 169.782 162.693 169.633C162.916 169.484 163.14 169.41 163.363 169.41C163.586 169.41 163.883 169.484 164.106 169.559C164.478 169.782 164.701 170.005 164.776 170.451C164.85 170.823 164.776 171.195 164.553 171.641V171.715C164.404 171.938 164.255 172.162 164.032 172.31C163.809 172.459 163.586 172.533 163.363 172.533C163.14 172.533 162.842 172.459 162.619 172.385C162.247 172.162 162.024 171.938 161.95 171.492C161.801 171.12 161.875 170.674 162.173 170.228ZM162.396 170.451C162.247 170.749 162.173 171.12 162.247 171.418C162.321 171.715 162.47 171.938 162.768 172.087C163.065 172.236 163.288 172.236 163.586 172.162C163.883 172.013 164.106 171.79 164.255 171.492V171.418C164.404 171.195 164.404 170.972 164.478 170.749C164.478 170.525 164.478 170.377 164.404 170.154C164.329 170.005 164.181 169.856 164.032 169.782C163.735 169.633 163.511 169.633 163.214 169.707C162.842 169.856 162.619 170.079 162.396 170.451ZM160.016 170.749L161.503 168.369L161.057 168.071L161.206 167.848L161.652 168.146L161.875 167.848C162.024 167.551 162.247 167.402 162.47 167.327C162.693 167.253 162.916 167.327 163.214 167.476C163.288 167.551 163.437 167.625 163.511 167.699L163.363 167.922C163.288 167.848 163.214 167.774 163.14 167.699C162.991 167.625 162.842 167.551 162.693 167.625C162.545 167.699 162.396 167.774 162.321 167.997L162.098 168.294L162.693 168.666L162.545 168.889L161.95 168.517L160.462 170.897L160.016 170.749ZM158.529 168.294C158.231 168.592 157.934 168.815 157.562 168.815C157.19 168.815 156.818 168.741 156.52 168.443C156.297 168.294 156.074 168.071 156 167.774C155.926 167.476 155.851 167.179 155.926 166.956C156 166.658 156.149 166.361 156.297 166.063L156.595 165.617C156.818 165.319 157.041 165.096 157.339 164.948C157.562 164.799 157.859 164.724 158.157 164.724C158.454 164.724 158.752 164.873 158.975 165.022C159.347 165.319 159.57 165.617 159.644 165.914C159.718 166.286 159.644 166.584 159.421 166.956L159.123 166.732C159.495 166.138 159.347 165.617 158.826 165.171C158.529 164.948 158.157 164.873 157.859 164.948C157.487 165.022 157.19 165.319 156.892 165.691L156.595 166.138C156.297 166.509 156.149 166.881 156.223 167.253C156.223 167.625 156.372 167.922 156.669 168.146C156.967 168.369 157.264 168.443 157.487 168.443C157.71 168.443 158.008 168.294 158.231 167.997L158.529 168.294ZM155.702 165.543C155.479 165.84 155.182 166.063 154.884 166.212C154.587 166.361 154.289 166.361 153.992 166.361C153.694 166.286 153.397 166.212 153.174 165.989C152.802 165.691 152.579 165.319 152.579 164.799C152.579 164.353 152.728 163.906 153.174 163.46L153.471 163.163C153.694 162.865 153.992 162.642 154.289 162.493C154.587 162.345 154.884 162.27 155.182 162.345C155.479 162.419 155.702 162.493 156 162.716C156.223 162.94 156.446 163.163 156.52 163.46C156.595 163.758 156.595 164.055 156.52 164.353C156.446 164.65 156.297 164.948 156.074 165.245L155.702 165.543ZM155.702 164.948C156 164.576 156.223 164.204 156.223 163.832C156.223 163.46 156.074 163.163 155.777 162.94C155.479 162.716 155.182 162.568 154.81 162.642C154.438 162.716 154.141 162.94 153.769 163.311L153.471 163.609C153.174 163.981 153.025 164.353 152.951 164.724C152.951 165.096 153.099 165.394 153.397 165.691C153.694 165.914 154.066 166.063 154.364 165.989C154.736 165.914 155.033 165.691 155.405 165.319L155.702 164.948ZM151.909 163.386C152.058 163.237 152.133 163.014 152.133 162.791C152.133 162.568 151.984 162.27 151.761 161.898C151.538 161.526 151.389 161.229 151.389 160.932C151.314 160.56 151.389 160.337 151.612 160.039C151.835 159.816 152.133 159.742 152.43 159.742C152.728 159.816 153.099 159.965 153.397 160.262C153.62 160.485 153.769 160.634 153.843 160.857C153.917 161.08 153.917 161.303 153.917 161.526C153.843 161.75 153.769 161.973 153.62 162.121L153.397 161.898C153.62 161.675 153.694 161.452 153.694 161.229C153.694 161.006 153.546 160.708 153.323 160.485C153.099 160.262 152.876 160.113 152.653 160.113C152.43 160.039 152.207 160.113 152.058 160.337C151.909 160.485 151.835 160.708 151.909 160.857C151.909 161.08 152.058 161.378 152.281 161.675C152.504 161.973 152.579 162.27 152.653 162.493C152.728 162.716 152.728 162.865 152.728 163.088C152.653 163.311 152.579 163.46 152.43 163.609C152.207 163.832 151.909 163.981 151.612 163.906C151.314 163.832 150.943 163.683 150.645 163.386C150.422 163.163 150.273 162.94 150.199 162.716C150.125 162.493 150.05 162.27 150.125 162.047C150.199 161.824 150.273 161.601 150.422 161.452L150.645 161.675C150.422 161.898 150.348 162.121 150.422 162.419C150.496 162.716 150.645 162.94 150.868 163.237C151.091 163.46 151.314 163.609 151.612 163.609C151.538 163.609 151.761 163.535 151.909 163.386Z" fill="url(#paint2_linear_127_44161)"/>
<path d="M154.363 121.812H225.537" stroke="white" stroke-width="0.195299" stroke-linecap="round" stroke-linejoin="round"/>
<g filter="url(#filter3_d_127_44161)">
<rect x="283" y="85" width="90" height="90" rx="45" fill="white" shape-rendering="crispEdges"/>
<rect x="283.375" y="85.375" width="89.25" height="89.25" rx="44.625" stroke="#0B2404" stroke-opacity="0.1" stroke-width="0.75" shape-rendering="crispEdges"/>
<path d="M319.347 138.183C319.279 138.113 319.172 138.037 319.018 137.951C318.871 137.869 318.687 137.793 318.471 137.723C318.258 137.655 318.006 137.597 317.723 137.549C317.437 137.501 317.118 137.477 316.775 137.477C316.144 137.477 315.563 137.576 315.046 137.771C314.525 137.968 314.074 138.256 313.706 138.626C313.337 138.996 313.049 139.452 312.848 139.98C312.65 140.505 312.549 141.103 312.549 141.757C312.549 142.392 312.643 142.969 312.83 143.473C313.019 143.982 313.295 144.42 313.653 144.775C314.01 145.131 314.451 145.406 314.964 145.592C315.473 145.776 316.053 145.87 316.691 145.87C316.909 145.87 317.125 145.86 317.341 145.839C317.557 145.818 317.77 145.788 317.981 145.746C318.193 145.706 318.397 145.657 318.595 145.599C318.793 145.541 318.959 145.485 319.094 145.432C319.27 145.361 319.391 145.257 319.454 145.122C319.507 145.008 319.535 144.874 319.535 144.727V141.644C319.535 141.545 319.522 141.454 319.496 141.371C319.468 141.286 319.426 141.21 319.371 141.146C319.315 141.081 319.248 141.032 319.171 140.998C319.097 140.966 319.014 140.949 318.924 140.949H316.308C316.23 140.949 316.156 140.974 316.094 141.023C316.041 141.065 315.998 141.124 315.966 141.198C315.938 141.262 315.918 141.338 315.906 141.432C315.896 141.516 315.89 141.618 315.89 141.739C315.89 141.988 315.914 142.158 315.966 142.274C316.062 142.491 316.222 142.523 316.309 142.523H317.584V144.009C317.48 144.057 317.369 144.094 317.253 144.121C316.764 144.233 316.263 144.173 315.861 144.015C315.591 143.91 315.358 143.753 315.168 143.549C314.975 143.342 314.823 143.079 314.714 142.769C314.604 142.453 314.549 142.081 314.549 141.661C314.549 141.281 314.604 140.931 314.712 140.62C314.818 140.313 314.972 140.047 315.169 139.83C315.365 139.614 315.605 139.445 315.881 139.327C316.426 139.094 317.191 139.111 317.698 139.248C317.954 139.317 318.175 139.393 318.357 139.472C318.539 139.552 318.686 139.626 318.794 139.693C319.075 139.867 319.227 139.859 319.356 139.76C319.412 139.717 319.455 139.654 319.486 139.569C319.508 139.505 319.525 139.426 319.537 139.325C319.548 139.235 319.554 139.128 319.554 139.004C319.554 138.787 319.54 138.625 319.512 138.508C319.48 138.374 319.425 138.264 319.347 138.183Z" fill="url(#paint3_linear_127_44161)"/>
<path d="M327.286 138.624C326.938 138.288 326.505 138.032 325.999 137.862C325.5 137.695 324.889 137.61 324.181 137.61H322.194C322.016 137.61 321.861 137.665 321.736 137.773C321.603 137.889 321.535 138.065 321.535 138.298V145.051C321.535 145.284 321.603 145.461 321.736 145.576C321.861 145.684 322.016 145.74 322.194 145.74H324.044C324.745 145.74 325.361 145.661 325.874 145.507C326.397 145.35 326.848 145.099 327.215 144.761C327.583 144.422 327.869 143.981 328.064 143.45C328.257 142.926 328.354 142.291 328.354 141.561C328.354 140.928 328.264 140.359 328.084 139.873C327.903 139.379 327.635 138.96 327.286 138.624ZM324.116 144.111H323.487V139.226H324.092C324.545 139.226 324.913 139.287 325.186 139.404C325.454 139.522 325.675 139.685 325.845 139.892C326.016 140.102 326.143 140.353 326.221 140.641C326.302 140.939 326.343 141.266 326.343 141.614C326.343 142.04 326.296 142.417 326.204 142.734C326.114 143.042 325.979 143.3 325.801 143.502C325.625 143.703 325.402 143.855 325.138 143.955C324.864 144.059 324.52 144.111 324.116 144.111Z" fill="url(#paint4_linear_127_44161)"/>
<path d="M335.154 138.51C334.971 138.303 334.748 138.131 334.491 137.997C334.238 137.865 333.985 137.774 333.737 137.725C333.499 137.678 333.292 137.646 333.119 137.632C332.949 137.617 332.768 137.61 332.579 137.61H330.753C330.544 137.61 330.37 137.675 330.235 137.804C330.098 137.935 330.029 138.123 330.029 138.364V145.333C330.029 145.413 330.055 145.489 330.103 145.555C330.151 145.619 330.222 145.667 330.321 145.7C330.393 145.724 330.485 145.743 330.603 145.757C330.71 145.769 330.844 145.776 331.005 145.776C331.17 145.776 331.306 145.769 331.411 145.757C331.527 145.743 331.617 145.725 331.689 145.7C331.785 145.667 331.855 145.623 331.906 145.562C331.959 145.496 331.987 145.416 331.987 145.333V143.052H332.442C332.97 143.052 333.438 142.988 333.832 142.863C334.233 142.736 334.578 142.547 334.856 142.3C335.137 142.052 335.353 141.743 335.499 141.382C335.643 141.024 335.717 140.612 335.717 140.154C335.717 139.82 335.669 139.512 335.575 139.239C335.479 138.963 335.338 138.718 335.154 138.51ZM333.062 141.365C332.916 141.424 332.728 141.453 332.502 141.453H331.987V139.208H332.466C332.618 139.208 332.769 139.219 332.914 139.239C333.042 139.258 333.166 139.303 333.283 139.372C333.392 139.438 333.488 139.544 333.566 139.689C333.647 139.835 333.687 140.03 333.687 140.268C333.687 140.446 333.662 140.612 333.613 140.761C333.565 140.906 333.495 141.03 333.405 141.131C333.318 141.231 333.205 141.308 333.062 141.365Z" fill="url(#paint5_linear_127_44161)"/>
<path d="M343.414 145.127C343.392 145.054 343.351 144.937 343.286 144.772L342.635 143.247C342.556 143.058 342.475 142.886 342.391 142.735C342.307 142.58 342.216 142.44 342.12 142.319C342.022 142.195 341.914 142.087 341.8 141.997C341.794 141.992 341.788 141.988 341.783 141.983C341.896 141.93 342.002 141.87 342.102 141.805C342.306 141.671 342.481 141.509 342.621 141.324C342.763 141.14 342.871 140.927 342.943 140.692C343.014 140.462 343.05 140.204 343.05 139.927C343.05 139.597 343 139.298 342.9 139.04C342.799 138.778 342.649 138.548 342.459 138.357C342.269 138.167 342.035 138.012 341.765 137.894C341.503 137.781 341.203 137.699 340.869 137.652C340.759 137.64 340.635 137.63 340.5 137.622C340.365 137.614 340.194 137.61 339.986 137.61H337.981C337.802 137.61 337.649 137.664 337.523 137.773C337.39 137.889 337.322 138.065 337.322 138.298V145.332C337.322 145.413 337.348 145.489 337.396 145.555C337.444 145.619 337.515 145.666 337.614 145.7C337.686 145.724 337.778 145.743 337.896 145.756C338.113 145.782 338.496 145.782 338.704 145.756C338.82 145.743 338.91 145.724 338.982 145.7C339.078 145.667 339.148 145.622 339.198 145.561C339.252 145.495 339.28 145.416 339.28 145.332V142.573H339.579C339.721 142.573 339.846 142.594 339.951 142.636C340.053 142.678 340.142 142.739 340.223 142.822C340.306 142.91 340.386 143.023 340.458 143.159C340.535 143.307 340.615 143.476 340.694 143.661L341.385 145.38C341.407 145.446 341.435 145.504 341.47 145.554C341.517 145.62 341.589 145.671 341.682 145.707C341.757 145.735 341.851 145.753 341.97 145.763C342.073 145.772 342.212 145.776 342.387 145.776C342.592 145.776 342.754 145.772 342.873 145.763C343.01 145.753 343.109 145.738 343.185 145.712C343.295 145.675 343.367 145.62 343.407 145.545C343.437 145.486 343.453 145.42 343.453 145.345C343.451 145.285 343.439 145.214 343.414 145.127ZM341.038 140.089C341.038 140.231 341.015 140.359 340.969 140.47C340.924 140.58 340.858 140.671 340.768 140.75C340.678 140.829 340.559 140.893 340.417 140.939C340.269 140.987 340.092 141.011 339.889 141.011H339.278V139.197H339.793C339.963 139.197 340.096 139.202 340.193 139.213C340.286 139.224 340.368 139.239 340.437 139.256C340.656 139.315 340.807 139.411 340.896 139.548C340.99 139.69 341.038 139.872 341.038 140.089Z" fill="url(#paint6_linear_127_44161)"/>
<path d="M337.155 119.428C337.142 118.525 336.455 117.757 335.559 117.641C332.229 117.211 329.912 115.336 329.071 114.549C328.47 113.988 327.528 113.988 326.928 114.549C326.086 115.336 323.77 117.211 320.44 117.641C319.543 117.758 318.857 118.525 318.844 119.428C318.804 122.292 319.33 131.797 327.75 133.902C327.831 133.922 327.916 133.932 327.999 133.932C328.083 133.932 328.166 133.922 328.249 133.901C336.667 131.798 337.194 122.292 337.155 119.428ZM335.094 119.659C335.102 122.315 334.538 130.015 327.999 131.836C321.461 130.015 320.898 122.314 320.904 119.659C324.343 119.16 326.831 117.37 327.999 116.358C329.168 117.371 331.656 119.16 335.094 119.659Z" fill="url(#paint7_linear_127_44161)"/>
<path d="M325.464 123.85C325.357 123.738 325.115 123.547 324.668 123.539C324.371 123.539 324.088 123.642 323.859 123.854C323.669 124.059 323.564 124.325 323.564 124.6C323.564 124.904 323.68 125.177 323.891 125.382L325.722 127.219C325.929 127.431 326.196 127.543 326.496 127.543C326.786 127.543 327.071 127.429 327.283 127.222L332.12 122.395C332.533 121.975 332.536 121.281 332.127 120.848L332.108 120.83C331.671 120.409 330.972 120.415 330.554 120.841L326.506 124.889L325.464 123.85Z" fill="url(#paint8_linear_127_44161)"/>
</g>
</g>
<defs>
<filter id="filter0_f_127_44161" x="17" y="-112" width="387" height="485" filterUnits="userSpaceOnUse" color-interpolation-filters="sRGB">
<feFlood flood-opacity="0" result="BackgroundImageFix"/>
<feBlend mode="normal" in="SourceGraphic" in2="BackgroundImageFix" result="shape"/>
<feGaussianBlur stdDeviation="30" result="effect1_foregroundBlur_127_44161"/>
</filter>
<filter id="filter1_d_127_44161" x="-73.1667" y="26.3333" width="262.333" height="262.333" filterUnits="userSpaceOnUse" color-interpolation-filters="sRGB">
<feFlood flood-opacity="0" result="BackgroundImageFix"/>
<feColorMatrix in="SourceAlpha" type="matrix" values="0 0 0 0 0 0 0 0 0 0 0 0 0 0 0 0 0 0 127 0" result="hardAlpha"/>
<feOffset dy="27.5"/>
<feGaussianBlur stdDeviation="43.0833"/>
<feComposite in2="hardAlpha" operator="out"/>
<feColorMatrix type="matrix" values="0 0 0 0 0.027451 0 0 0 0 0.768627 0 0 0 0 0.305882 0 0 0 0.2 0"/>
<feBlend mode="normal" in2="BackgroundImageFix" result="effect1_dropShadow_127_44161"/>
<feBlend mode="normal" in="SourceGraphic" in2="effect1_dropShadow_127_44161" result="shape"/>
</filter>
<filter id="filter2_d_127_44161" x="-40.1852" y="-54.2963" width="466.37" height="466.37" filterUnits="userSpaceOnUse" color-interpolation-filters="sRGB">
<feFlood flood-opacity="0" result="BackgroundImageFix"/>
<feColorMatrix in="SourceAlpha" type="matrix" values="0 0 0 0 0 0 0 0 0 0 0 0 0 0 0 0 0 0 127 0" result="hardAlpha"/>
<feOffset dy="48.8889"/>
<feGaussianBlur stdDeviation="76.5926"/>
<feComposite in2="hardAlpha" operator="out"/>
<feColorMatrix type="matrix" values="0 0 0 0 0.027451 0 0 0 0 0.768627 0 0 0 0 0.305882 0 0 0 0.2 0"/>
<feBlend mode="normal" in2="BackgroundImageFix" result="effect1_dropShadow_127_44161"/>
<feBlend mode="normal" in="SourceGraphic" in2="effect1_dropShadow_127_44161" result="shape"/>
</filter>
<filter id="filter3_d_127_44161" x="196.833" y="26.3333" width="262.333" height="262.333" filterUnits="userSpaceOnUse" color-interpolation-filters="sRGB">
<feFlood flood-opacity="0" result="BackgroundImageFix"/>
<feColorMatrix in="SourceAlpha" type="matrix" values="0 0 0 0 0 0 0 0 0 0 0 0 0 0 0 0 0 0 127 0" result="hardAlpha"/>
<feOffset dy="27.5"/>
<feGaussianBlur stdDeviation="43.0833"/>
<feComposite in2="hardAlpha" operator="out"/>
<feColorMatrix type="matrix" values="0 0 0 0 0.027451 0 0 0 0 0.768627 0 0 0 0 0.305882 0 0 0 0.2 0"/>
<feBlend mode="normal" in2="BackgroundImageFix" result="effect1_dropShadow_127_44161"/>
<feBlend mode="normal" in="SourceGraphic" in2="effect1_dropShadow_127_44161" result="shape"/>
</filter>
<linearGradient id="paint0_linear_127_44161" x1="26.5905" y1="117.662" x2="43.391" y2="160.42" gradientUnits="userSpaceOnUse">
<stop stop-color="#5EDD4D"/>
<stop offset="1" stop-color="#05CE6C"/>
</linearGradient>
<linearGradient id="paint1_linear_127_44161" x1="113.23" y1="50.2383" x2="272.776" y2="209.76" gradientUnits="userSpaceOnUse">
<stop stop-color="#5EDD4D"/>
<stop offset="1" stop-color="#05CE6C"/>
</linearGradient>
<linearGradient id="paint2_linear_127_44161" x1="150.228" y1="96.8723" x2="232.136" y2="189.614" gradientUnits="userSpaceOnUse">
<stop stop-color="#5EDD4D"/>
<stop offset="1" stop-color="#05CE6C"/>
</linearGradient>
<linearGradient id="paint3_linear_127_44161" x1="312.559" y1="137.49" x2="320.792" y2="144.361" gradientUnits="userSpaceOnUse">
<stop stop-color="#5EDD4D"/>
<stop offset="1" stop-color="#05CE6C"/>
</linearGradient>
<linearGradient id="paint4_linear_127_44161" x1="321.545" y1="137.622" x2="329.528" y2="144.316" gradientUnits="userSpaceOnUse">
<stop stop-color="#5EDD4D"/>
<stop offset="1" stop-color="#05CE6C"/>
</linearGradient>
<linearGradient id="paint5_linear_127_44161" x1="330.037" y1="137.622" x2="337.675" y2="142.941" gradientUnits="userSpaceOnUse">
<stop stop-color="#5EDD4D"/>
<stop offset="1" stop-color="#05CE6C"/>
</linearGradient>
<linearGradient id="paint6_linear_127_44161" x1="337.331" y1="137.622" x2="345.15" y2="143.491" gradientUnits="userSpaceOnUse">
<stop stop-color="#5EDD4D"/>
<stop offset="1" stop-color="#05CE6C"/>
</linearGradient>
<linearGradient id="paint7_linear_127_44161" x1="318.868" y1="114.158" x2="338.555" y2="132.362" gradientUnits="userSpaceOnUse">
<stop stop-color="#5EDD4D"/>
<stop offset="1" stop-color="#05CE6C"/>
</linearGradient>
<linearGradient id="paint8_linear_127_44161" x1="323.577" y1="120.528" x2="330.398" y2="129.135" gradientUnits="userSpaceOnUse">
<stop stop-color="#5EDD4D"/>
<stop offset="1" stop-color="#05CE6C"/>
</linearGradient>
<clipPath id="clip0_127_44161">
<rect width="386" height="260" fill="white"/>
</clipPath>
<pattern id="pattern0_127_44161" patternUnits="userSpaceOnUse" viewBox="-20401.3 383.1 43.65 44.1" width="11.547619055601812%" height="17.500000007982766%" x="166.5" y="103.5" patternContentUnits="objectBoundingBox">
<g id="pattern0_127_44161_inner">
<rect x="-20444.5" y="339.5" width="44" height="44" rx="9.5" stroke="#D9D9D9"/>
</g>
<use xlink:href="#pattern0_127_44161_inner" transform="translate(43.65 0)"/>
<use xlink:href="#pattern0_127_44161_inner" transform="translate(0 44.1)"/>
<use xlink:href="#pattern0_127_44161_inner" transform="translate(43.65 44.1)"/>
</pattern></defs>
</svg>
