<svg width="386" height="260" viewBox="0 0 386 260" fill="none" xmlns="http://www.w3.org/2000/svg" xmlns:xlink="http://www.w3.org/1999/xlink">
<g clip-path="url(#clip0_127_44108)">
<rect x="4" y="4" width="378" height="252" rx="16" fill="url(#pattern0_127_44108)" fill-opacity="0.22"/>
<g opacity="0.3" filter="url(#filter0_i_127_44108)">
<rect x="258" y="18" width="45" height="45" rx="10" fill="#B1EC02"/>
</g>
<g opacity="0.3" filter="url(#filter1_i_127_44108)">
<rect x="-5" y="108" width="45" height="45" rx="10" fill="#B1EC02"/>
</g>
<g opacity="0.3" filter="url(#filter2_i_127_44108)">
<rect x="170" y="196" width="45" height="45" rx="10" fill="#B1EC02"/>
</g>
<g filter="url(#filter3_d_127_44108)">
<path d="M31 56C31 50.4772 35.4772 46 41 46H397C402.523 46 407 50.4772 407 56V97C407 102.523 402.523 107 397 107H41C35.4772 107 31 102.523 31 97V56Z" fill="white" shape-rendering="crispEdges"/>
<path d="M41 46.5H397C402.247 46.5 406.5 50.7533 406.5 56V97C406.5 102.247 402.247 106.5 397 106.5H41C35.7533 106.5 31.5 102.247 31.5 97V56L31.5127 55.5107C31.7673 50.4914 35.9174 46.5 41 46.5Z" stroke="url(#paint0_linear_127_44108)" shape-rendering="crispEdges"/>
<path d="M69.3759 85.2501L67.4973 83.3714M67.4973 83.3714C68.0596 82.8088 68.3756 82.0459 68.3758 81.2504C68.3758 80.5562 68.1352 79.8835 67.6948 79.3469C67.2545 78.8102 66.6417 78.4429 65.9608 78.3074C65.28 78.172 64.5733 78.2768 63.961 78.604C63.3488 78.9313 62.869 79.4606 62.6034 80.102C62.3377 80.7433 62.3027 81.457 62.5042 82.1212C62.7058 82.7855 63.1314 83.3594 63.7087 83.745C64.2859 84.1306 64.9789 84.3041 65.6698 84.236C66.3606 84.1679 67.0065 83.8624 67.4973 83.3714Z" stroke="black" stroke-width="1.3125" stroke-linecap="round" stroke-linejoin="round"/>
<path d="M60.625 85.25H60.3861C57.5336 85.25 56.1056 85.25 55.1151 84.5517C54.8332 84.3541 54.5813 84.1168 54.367 83.8474C53.625 82.9146 53.625 81.5724 53.625 78.8861V76.6593C53.625 74.0666 53.625 72.7699 54.0354 71.7347C54.6951 70.0696 56.0899 68.7571 57.8591 68.1359C58.9581 67.75 60.3345 67.75 63.0907 67.75C64.664 67.75 65.4515 67.75 66.0797 67.9705C67.0904 68.3258 67.8875 69.0756 68.2646 70.0268C68.5 70.6183 68.5 71.3594 68.5 72.8407V76.5" stroke="black" stroke-width="1.3125" stroke-linecap="round" stroke-linejoin="round"/>
<path d="M53.625 76.5C53.625 75.7265 53.9323 74.9847 54.4792 74.4378C55.0261 73.8909 55.7679 73.5836 56.5414 73.5836C57.1241 73.5836 57.811 73.6851 58.3771 73.5337C58.6245 73.4672 58.85 73.3367 59.0311 73.1555C59.2121 72.9743 59.3424 72.7487 59.4087 72.5012C59.5601 71.9351 59.4586 71.2482 59.4586 70.6655C59.4589 69.8922 59.7662 69.1506 60.3131 68.6039C60.86 68.0571 61.6017 67.75 62.375 67.75" stroke="black" stroke-width="1.3125" stroke-linecap="round" stroke-linejoin="round"/>
<path d="M84.3118 81.5H82.343L85.9276 71.3182H88.2045L91.794 81.5H89.8253L87.1058 73.4062H87.0263L84.3118 81.5ZM84.3764 77.5078H89.7457V78.9893H84.3764V77.5078ZM94.8553 77.0256V81.5H93.0556V73.8636H94.7757V75.1612H94.8652C95.0409 74.7337 95.321 74.3939 95.7054 74.142C96.0932 73.8902 96.5721 73.7642 97.1422 73.7642C97.6692 73.7642 98.1283 73.8769 98.5194 74.1023C98.9138 74.3277 99.2187 74.6541 99.4341 75.0817C99.6529 75.5092 99.7606 76.0279 99.7573 76.6378V81.5H97.9576V76.9162C97.9576 76.4058 97.825 76.0064 97.5598 75.718C97.298 75.4297 96.9351 75.2855 96.4711 75.2855C96.1562 75.2855 95.8761 75.3551 95.6309 75.4943C95.3889 75.6302 95.1983 75.8274 95.0591 76.0859C94.9232 76.3445 94.8553 76.6577 94.8553 77.0256ZM105.4 73.8636V75.2557H101.01V73.8636H105.4ZM102.094 72.0341H103.894V79.2031C103.894 79.4451 103.93 79.6307 104.003 79.7599C104.079 79.8859 104.179 79.9721 104.301 80.0185C104.424 80.0649 104.56 80.0881 104.709 80.0881C104.822 80.0881 104.924 80.0798 105.017 80.0632C105.113 80.0466 105.186 80.0317 105.236 80.0185L105.539 81.4254C105.443 81.4586 105.306 81.495 105.127 81.5348C104.951 81.5746 104.735 81.5978 104.48 81.6044C104.03 81.6177 103.624 81.5497 103.262 81.4006C102.901 81.2481 102.614 81.0128 102.402 80.6946C102.193 80.3764 102.091 79.9787 102.094 79.5014V72.0341ZM106.905 81.5V73.8636H108.705V81.5H106.905ZM107.81 72.7798C107.525 72.7798 107.28 72.6854 107.074 72.4964C106.869 72.3042 106.766 72.0739 106.766 71.8054C106.766 71.5336 106.869 71.3033 107.074 71.1143C107.28 70.9221 107.525 70.826 107.81 70.826C108.098 70.826 108.344 70.9221 108.546 71.1143C108.751 71.3033 108.854 71.5336 108.854 71.8054C108.854 72.0739 108.751 72.3042 108.546 72.4964C108.344 72.6854 108.098 72.7798 107.81 72.7798ZM115.184 76.5185V78H110.6V76.5185H115.184ZM117.157 71.3182H119.414L122.436 78.696H122.556L125.578 71.3182H127.836V81.5H126.066V74.505H125.971L123.157 81.4702H121.835L119.021 74.4901H118.926V81.5H117.157V71.3182ZM133.096 81.6491C132.35 81.6491 131.703 81.4851 131.157 81.157C130.61 80.8288 130.185 80.3698 129.884 79.7798C129.586 79.1899 129.436 78.5005 129.436 77.7116C129.436 76.9228 129.586 76.2318 129.884 75.6385C130.185 75.0452 130.61 74.5845 131.157 74.2564C131.703 73.9283 132.35 73.7642 133.096 73.7642C133.841 73.7642 134.488 73.9283 135.034 74.2564C135.581 74.5845 136.004 75.0452 136.302 75.6385C136.604 76.2318 136.755 76.9228 136.755 77.7116C136.755 78.5005 136.604 79.1899 136.302 79.7798C136.004 80.3698 135.581 80.8288 135.034 81.157C134.488 81.4851 133.841 81.6491 133.096 81.6491ZM133.105 80.2074C133.51 80.2074 133.848 80.0964 134.12 79.8743C134.391 79.6489 134.594 79.3473 134.726 78.9695C134.862 78.5916 134.93 78.1707 134.93 77.7067C134.93 77.2393 134.862 76.8168 134.726 76.4389C134.594 76.0578 134.391 75.7545 134.12 75.5291C133.848 75.3037 133.51 75.1911 133.105 75.1911C132.691 75.1911 132.346 75.3037 132.071 75.5291C131.8 75.7545 131.596 76.0578 131.46 76.4389C131.327 76.8168 131.261 77.2393 131.261 77.7067C131.261 78.1707 131.327 78.5916 131.46 78.9695C131.596 79.3473 131.8 79.6489 132.071 79.8743C132.346 80.0964 132.691 80.2074 133.105 80.2074ZM140.082 77.0256V81.5H138.282V73.8636H140.002V75.1612H140.092C140.267 74.7337 140.548 74.3939 140.932 74.142C141.32 73.8902 141.799 73.7642 142.369 73.7642C142.896 73.7642 143.355 73.8769 143.746 74.1023C144.14 74.3277 144.445 74.6541 144.661 75.0817C144.879 75.5092 144.987 76.0279 144.984 76.6378V81.5H143.184V76.9162C143.184 76.4058 143.052 76.0064 142.786 75.718C142.525 75.4297 142.162 75.2855 141.698 75.2855C141.383 75.2855 141.103 75.3551 140.857 75.4943C140.615 75.6302 140.425 75.8274 140.286 76.0859C140.15 76.3445 140.082 76.6577 140.082 77.0256ZM150.194 81.6491C149.428 81.6491 148.767 81.4901 148.21 81.1719C147.657 80.8504 147.231 80.3963 146.933 79.8097C146.634 79.2197 146.485 78.5253 146.485 77.7266C146.485 76.9411 146.634 76.2517 146.933 75.6584C147.234 75.0618 147.655 74.5978 148.195 74.2663C148.736 73.9316 149.37 73.7642 150.1 73.7642C150.57 73.7642 151.014 73.8404 151.432 73.9929C151.853 74.142 152.224 74.3741 152.546 74.6889C152.87 75.0038 153.126 75.4048 153.311 75.892C153.497 76.3759 153.59 76.9527 153.59 77.6222V78.174H147.33V76.9609H151.865C151.861 76.6162 151.787 76.3097 151.641 76.0412C151.495 75.7694 151.291 75.5556 151.029 75.3999C150.771 75.2441 150.469 75.1662 150.124 75.1662C149.757 75.1662 149.433 75.2557 149.155 75.4347C148.877 75.6103 148.66 75.8423 148.504 76.1307C148.351 76.4157 148.273 76.7289 148.27 77.0703V78.1293C148.27 78.5734 148.351 78.9545 148.514 79.2727C148.676 79.5876 148.903 79.8295 149.195 79.9986C149.486 80.1643 149.828 80.2472 150.219 80.2472C150.481 80.2472 150.718 80.2107 150.93 80.1378C151.142 80.0616 151.326 79.9505 151.482 79.8047C151.637 79.6589 151.755 79.4782 151.835 79.2628L153.515 79.4517C153.409 79.8958 153.207 80.2836 152.909 80.6151C152.614 80.9432 152.236 81.1984 151.775 81.3807C151.314 81.5597 150.787 81.6491 150.194 81.6491ZM156.012 84.3636C155.767 84.3636 155.54 84.3438 155.331 84.304C155.125 84.2675 154.961 84.2244 154.839 84.1747L155.256 82.7727C155.518 82.849 155.752 82.8854 155.957 82.8821C156.163 82.8788 156.344 82.8142 156.499 82.6882C156.658 82.5656 156.793 82.3601 156.902 82.0717L157.056 81.6591L154.287 73.8636H156.196L157.956 79.6307H158.036L159.8 73.8636H161.714L158.657 82.4247C158.514 82.8291 158.326 83.1754 158.09 83.4638C157.855 83.7554 157.567 83.9775 157.225 84.13C156.887 84.2857 156.483 84.3636 156.012 84.3636ZM166.512 81.5V71.3182H168.357V79.9538H172.841V81.5H166.512ZM176.56 81.6541C176.076 81.6541 175.64 81.5679 175.252 81.3956C174.868 81.2199 174.563 80.9614 174.337 80.62C174.115 80.2786 174.004 79.8577 174.004 79.3572C174.004 78.9264 174.084 78.5701 174.243 78.2884C174.402 78.0066 174.619 77.7812 174.894 77.6122C175.169 77.4432 175.479 77.3156 175.824 77.2294C176.172 77.1399 176.531 77.0753 176.903 77.0355C177.35 76.9891 177.713 76.9477 177.991 76.9112C178.27 76.8714 178.472 76.8118 178.598 76.7322C178.727 76.6494 178.792 76.5218 178.792 76.3494V76.3196C178.792 75.9451 178.681 75.6551 178.459 75.4496C178.237 75.2441 177.917 75.1413 177.499 75.1413C177.058 75.1413 176.709 75.2375 176.45 75.4297C176.195 75.6219 176.023 75.849 175.933 76.1108L174.253 75.8722C174.385 75.4081 174.604 75.0204 174.909 74.7088C175.214 74.3939 175.587 74.1586 176.028 74.0028C176.469 73.8438 176.956 73.7642 177.489 73.7642C177.857 73.7642 178.223 73.8073 178.588 73.8935C178.953 73.9796 179.286 74.1222 179.587 74.321C179.889 74.5166 180.131 74.7834 180.313 75.1214C180.499 75.4595 180.592 75.8821 180.592 76.3892V81.5H178.862V80.451H178.802C178.692 80.6631 178.538 80.862 178.339 81.0476C178.144 81.2299 177.897 81.3774 177.599 81.4901C177.304 81.5994 176.957 81.6541 176.56 81.6541ZM177.027 80.3317C177.388 80.3317 177.701 80.2604 177.967 80.1179C178.232 79.9721 178.436 79.7798 178.578 79.5412C178.724 79.3026 178.797 79.0424 178.797 78.7607V77.8608C178.741 77.9072 178.644 77.9503 178.509 77.9901C178.376 78.0298 178.227 78.0646 178.061 78.0945C177.895 78.1243 177.731 78.1508 177.569 78.174C177.406 78.1972 177.266 78.2171 177.146 78.2337C176.878 78.2701 176.638 78.3298 176.425 78.4126C176.213 78.4955 176.046 78.6115 175.923 78.7607C175.801 78.9065 175.739 79.0954 175.739 79.3274C175.739 79.6589 175.86 79.9091 176.102 80.0781C176.344 80.2472 176.652 80.3317 177.027 80.3317ZM187.268 78.2884V73.8636H189.068V81.5H187.323V80.1428H187.244C187.071 80.5703 186.788 80.92 186.393 81.1918C186.002 81.4635 185.52 81.5994 184.947 81.5994C184.446 81.5994 184.004 81.4884 183.619 81.2663C183.238 81.041 182.94 80.7145 182.724 80.2869C182.509 79.8561 182.401 79.3357 182.401 78.7259V73.8636H184.201V78.4474C184.201 78.9313 184.334 79.3158 184.599 79.6009C184.864 79.8859 185.212 80.0284 185.643 80.0284C185.908 80.0284 186.165 79.9638 186.413 79.8345C186.662 79.7053 186.866 79.513 187.025 79.2578C187.187 78.9993 187.268 78.6761 187.268 78.2884ZM192.719 77.0256V81.5H190.919V73.8636H192.639V75.1612H192.729C192.904 74.7337 193.184 74.3939 193.569 74.142C193.956 73.8902 194.435 73.7642 195.006 73.7642C195.532 73.7642 195.992 73.8769 196.383 74.1023C196.777 74.3277 197.082 74.6541 197.297 75.0817C197.516 75.5092 197.624 76.0279 197.621 76.6378V81.5H195.821V76.9162C195.821 76.4058 195.688 76.0064 195.423 75.718C195.161 75.4297 194.798 75.2855 194.334 75.2855C194.019 75.2855 193.739 75.3551 193.494 75.4943C193.252 75.6302 193.062 75.8274 192.922 76.0859C192.787 76.3445 192.719 76.6577 192.719 77.0256ZM202.284 81.6342C201.684 81.6342 201.147 81.4801 200.673 81.1719C200.199 80.8636 199.825 80.4162 199.55 79.8295C199.274 79.2429 199.137 78.5303 199.137 77.6918C199.137 76.8433 199.276 76.1274 199.555 75.544C199.836 74.9574 200.216 74.5149 200.693 74.2166C201.17 73.915 201.702 73.7642 202.289 73.7642C202.736 73.7642 203.104 73.8404 203.393 73.9929C203.681 74.142 203.91 74.3227 204.079 74.5348C204.248 74.7436 204.379 74.9408 204.471 75.1264H204.546V71.3182H206.351V81.5H204.581V80.2969H204.471C204.379 80.4825 204.244 80.6797 204.069 80.8885C203.893 81.094 203.661 81.2696 203.373 81.4155C203.084 81.5613 202.721 81.6342 202.284 81.6342ZM202.786 80.1577C203.167 80.1577 203.492 80.0549 203.76 79.8494C204.029 79.6406 204.233 79.3506 204.372 78.9794C204.511 78.6082 204.581 78.1757 204.581 77.6818C204.581 77.188 204.511 76.7588 204.372 76.3942C204.236 76.0296 204.034 75.7462 203.765 75.544C203.5 75.3419 203.174 75.2408 202.786 75.2408C202.385 75.2408 202.05 75.3452 201.782 75.554C201.513 75.7628 201.311 76.0511 201.175 76.419C201.039 76.7869 200.971 77.2079 200.971 77.6818C200.971 78.1591 201.039 78.585 201.175 78.9595C201.314 79.3307 201.518 79.6241 201.787 79.8395C202.059 80.0516 202.392 80.1577 202.786 80.1577ZM211.649 81.6491C210.884 81.6491 210.222 81.4901 209.665 81.1719C209.112 80.8504 208.686 80.3963 208.388 79.8097C208.089 79.2197 207.94 78.5253 207.94 77.7266C207.94 76.9411 208.089 76.2517 208.388 75.6584C208.689 75.0618 209.11 74.5978 209.651 74.2663C210.191 73.9316 210.826 73.7642 211.555 73.7642C212.025 73.7642 212.469 73.8404 212.887 73.9929C213.308 74.142 213.679 74.3741 214.001 74.6889C214.326 75.0038 214.581 75.4048 214.766 75.892C214.952 76.3759 215.045 76.9527 215.045 77.6222V78.174H208.786V76.9609H213.32C213.316 76.6162 213.242 76.3097 213.096 76.0412C212.95 75.7694 212.746 75.5556 212.484 75.3999C212.226 75.2441 211.924 75.1662 211.58 75.1662C211.212 75.1662 210.888 75.2557 210.61 75.4347C210.332 75.6103 210.115 75.8423 209.959 76.1307C209.806 76.4157 209.728 76.7289 209.725 77.0703V78.1293C209.725 78.5734 209.806 78.9545 209.969 79.2727C210.131 79.5876 210.358 79.8295 210.65 79.9986C210.942 80.1643 211.283 80.2472 211.674 80.2472C211.936 80.2472 212.173 80.2107 212.385 80.1378C212.597 80.0616 212.781 79.9505 212.937 79.8047C213.093 79.6589 213.21 79.4782 213.29 79.2628L214.97 79.4517C214.864 79.8958 214.662 80.2836 214.364 80.6151C214.069 80.9432 213.691 81.1984 213.23 81.3807C212.769 81.5597 212.242 81.6491 211.649 81.6491ZM216.567 81.5V73.8636H218.312V75.1364H218.392C218.531 74.6955 218.77 74.3558 219.108 74.1172C219.449 73.8752 219.839 73.7543 220.276 73.7543C220.376 73.7543 220.487 73.7592 220.609 73.7692C220.735 73.7758 220.84 73.7874 220.922 73.804V75.4595C220.846 75.433 220.725 75.4098 220.559 75.3899C220.397 75.3667 220.24 75.3551 220.087 75.3551C219.759 75.3551 219.464 75.4264 219.202 75.5689C218.944 75.7081 218.74 75.902 218.591 76.1506C218.442 76.3991 218.367 76.6858 218.367 77.0107V81.5H216.567ZM222.118 81.5V73.8636H223.918V81.5H222.118ZM223.023 72.7798C222.738 72.7798 222.493 72.6854 222.287 72.4964C222.082 72.3042 221.979 72.0739 221.979 71.8054C221.979 71.5336 222.082 71.3033 222.287 71.1143C222.493 70.9221 222.738 70.826 223.023 70.826C223.311 70.826 223.557 70.9221 223.759 71.1143C223.964 71.3033 224.067 71.5336 224.067 71.8054C224.067 72.0739 223.964 72.3042 223.759 72.4964C223.557 72.6854 223.311 72.7798 223.023 72.7798ZM227.568 77.0256V81.5H225.768V73.8636H227.489V75.1612H227.578C227.754 74.7337 228.034 74.3939 228.418 74.142C228.806 73.8902 229.285 73.7642 229.855 73.7642C230.382 73.7642 230.841 73.8769 231.232 74.1023C231.627 74.3277 231.932 74.6541 232.147 75.0817C232.366 75.5092 232.473 76.0279 232.47 76.6378V81.5H230.67V76.9162C230.67 76.4058 230.538 76.0064 230.273 75.718C230.011 75.4297 229.648 75.2855 229.184 75.2855C228.869 75.2855 228.589 75.3551 228.344 75.4943C228.102 75.6302 227.911 75.8274 227.772 76.0859C227.636 76.3445 227.568 76.6577 227.568 77.0256ZM237.621 84.5227C236.974 84.5227 236.419 84.4349 235.955 84.2592C235.491 84.0869 235.118 83.8549 234.837 83.5632C234.555 83.2715 234.359 82.9484 234.25 82.5938L235.871 82.201C235.944 82.3501 236.05 82.4976 236.189 82.6435C236.328 82.7926 236.515 82.9152 236.751 83.0114C236.989 83.1108 237.289 83.1605 237.651 83.1605C238.161 83.1605 238.584 83.0362 238.918 82.7876C239.253 82.5424 239.42 82.138 239.42 81.5746V80.1278H239.331C239.238 80.3134 239.102 80.504 238.923 80.6996C238.748 80.8951 238.514 81.0592 238.222 81.1918C237.934 81.3243 237.571 81.3906 237.134 81.3906C236.547 81.3906 236.015 81.2531 235.538 80.978C235.064 80.6996 234.686 80.2853 234.404 79.7351C234.126 79.1816 233.987 78.4889 233.987 77.657C233.987 76.8184 234.126 76.1108 234.404 75.5341C234.686 74.9541 235.065 74.5149 235.543 74.2166C236.02 73.915 236.552 73.7642 237.138 73.7642C237.586 73.7642 237.954 73.8404 238.242 73.9929C238.534 74.142 238.766 74.3227 238.938 74.5348C239.111 74.7436 239.241 74.9408 239.331 75.1264H239.43V73.8636H241.205V81.6243C241.205 82.2772 241.049 82.8175 240.738 83.245C240.426 83.6726 240 83.9924 239.46 84.2045C238.92 84.4167 238.307 84.5227 237.621 84.5227ZM237.636 79.9787C238.017 79.9787 238.342 79.8859 238.61 79.7003C238.879 79.5147 239.082 79.2479 239.222 78.8999C239.361 78.5518 239.43 78.1342 239.43 77.647C239.43 77.1664 239.361 76.7455 239.222 76.3842C239.086 76.023 238.884 75.7429 238.615 75.544C238.35 75.3419 238.023 75.2408 237.636 75.2408C237.235 75.2408 236.9 75.3452 236.631 75.554C236.363 75.7628 236.161 76.0495 236.025 76.4141C235.889 76.7753 235.821 77.1863 235.821 77.647C235.821 78.1143 235.889 78.5237 236.025 78.875C236.164 79.223 236.368 79.4948 236.636 79.6903C236.908 79.8826 237.241 79.9787 237.636 79.9787ZM249.525 79.8693V72.9886H251.086V79.8693H249.525ZM246.865 77.2095V75.6484H253.746V77.2095H246.865ZM261.555 74.1172C261.509 73.683 261.313 73.3449 260.969 73.103C260.627 72.861 260.183 72.7401 259.636 72.7401C259.252 72.7401 258.922 72.7981 258.647 72.9141C258.372 73.0301 258.161 73.1875 258.015 73.3864C257.87 73.5852 257.795 73.8123 257.792 74.0675C257.792 74.2796 257.84 74.4635 257.936 74.6193C258.035 74.7751 258.17 74.9077 258.339 75.017C258.508 75.1231 258.695 75.2126 258.9 75.2855C259.106 75.3584 259.313 75.4197 259.522 75.4695L260.476 75.7081C260.861 75.7976 261.23 75.9186 261.585 76.071C261.943 76.2235 262.263 76.4157 262.545 76.6477C262.83 76.8797 263.055 77.1598 263.221 77.4879C263.386 77.8161 263.469 78.2005 263.469 78.6413C263.469 79.2379 263.317 79.7633 263.012 80.2173C262.707 80.6681 262.266 81.0211 261.689 81.2763C261.116 81.5282 260.422 81.6541 259.606 81.6541C258.814 81.6541 258.126 81.5315 257.543 81.2862C256.963 81.041 256.509 80.683 256.181 80.2124C255.856 79.7417 255.68 79.1683 255.654 78.4922H257.469C257.495 78.8468 257.604 79.1418 257.797 79.3771C257.989 79.6125 258.239 79.7881 258.547 79.9041C258.859 80.0201 259.207 80.0781 259.591 80.0781C259.992 80.0781 260.344 80.0185 260.645 79.8991C260.95 79.7765 261.189 79.6075 261.361 79.392C261.534 79.1733 261.622 78.9181 261.625 78.6264C261.622 78.3613 261.544 78.1425 261.391 77.9702C261.239 77.7945 261.025 77.6487 260.75 77.5327C260.478 77.4134 260.16 77.3073 259.795 77.2145L258.637 76.9162C257.798 76.7008 257.135 76.3743 256.648 75.9368C256.164 75.496 255.922 74.911 255.922 74.1818C255.922 73.5819 256.085 73.0566 256.41 72.6058C256.738 72.1551 257.184 71.8054 257.747 71.5568C258.31 71.3049 258.948 71.179 259.661 71.179C260.384 71.179 261.017 71.3049 261.56 71.5568C262.107 71.8054 262.536 72.1518 262.848 72.5959C263.159 73.0367 263.32 73.5438 263.33 74.1172H261.555ZM267.232 81.6541C266.748 81.6541 266.312 81.5679 265.924 81.3956C265.54 81.2199 265.235 80.9614 265.009 80.62C264.787 80.2786 264.676 79.8577 264.676 79.3572C264.676 78.9264 264.756 78.5701 264.915 78.2884C265.074 78.0066 265.291 77.7812 265.566 77.6122C265.841 77.4432 266.151 77.3156 266.496 77.2294C266.844 77.1399 267.203 77.0753 267.575 77.0355C268.022 76.9891 268.385 76.9477 268.663 76.9112C268.942 76.8714 269.144 76.8118 269.27 76.7322C269.399 76.6494 269.464 76.5218 269.464 76.3494V76.3196C269.464 75.9451 269.353 75.6551 269.131 75.4496C268.909 75.2441 268.589 75.1413 268.171 75.1413C267.73 75.1413 267.381 75.2375 267.122 75.4297C266.867 75.6219 266.695 75.849 266.605 76.1108L264.925 75.8722C265.057 75.4081 265.276 75.0204 265.581 74.7088C265.886 74.3939 266.259 74.1586 266.7 74.0028C267.14 73.8438 267.628 73.7642 268.161 73.7642C268.529 73.7642 268.895 73.8073 269.26 73.8935C269.625 73.9796 269.958 74.1222 270.259 74.321C270.561 74.5166 270.803 74.7834 270.985 75.1214C271.171 75.4595 271.263 75.8821 271.263 76.3892V81.5H269.533V80.451H269.474C269.364 80.6631 269.21 80.862 269.011 81.0476C268.816 81.2299 268.569 81.3774 268.271 81.4901C267.976 81.5994 267.629 81.6541 267.232 81.6541ZM267.699 80.3317C268.06 80.3317 268.373 80.2604 268.638 80.1179C268.904 79.9721 269.107 79.7798 269.25 79.5412C269.396 79.3026 269.469 79.0424 269.469 78.7607V77.8608C269.412 77.9072 269.316 77.9503 269.18 77.9901C269.048 78.0298 268.899 78.0646 268.733 78.0945C268.567 78.1243 268.403 78.1508 268.241 78.174C268.078 78.1972 267.938 78.2171 267.818 78.2337C267.55 78.2701 267.309 78.3298 267.097 78.4126C266.885 78.4955 266.718 78.6115 266.595 78.7607C266.473 78.9065 266.411 79.0954 266.411 79.3274C266.411 79.6589 266.532 79.9091 266.774 80.0781C267.016 80.2472 267.324 80.3317 267.699 80.3317ZM274.873 77.0256V81.5H273.073V73.8636H274.793V75.1612H274.883C275.058 74.7337 275.339 74.3939 275.723 74.142C276.111 73.8902 276.59 73.7642 277.16 73.7642C277.687 73.7642 278.146 73.8769 278.537 74.1023C278.931 74.3277 279.236 74.6541 279.452 75.0817C279.67 75.5092 279.778 76.0279 279.775 76.6378V81.5H277.975V76.9162C277.975 76.4058 277.843 76.0064 277.577 75.718C277.316 75.4297 276.953 75.2855 276.489 75.2855C276.174 75.2855 275.894 75.3551 275.648 75.4943C275.406 75.6302 275.216 75.8274 275.077 76.0859C274.941 76.3445 274.873 76.6577 274.873 77.0256ZM284.935 81.6491C284.173 81.6491 283.518 81.4818 282.972 81.147C282.428 80.8123 282.009 80.3499 281.714 79.7599C281.422 79.1667 281.276 78.4839 281.276 77.7116C281.276 76.9361 281.425 76.2517 281.724 75.6584C282.022 75.0618 282.443 74.5978 282.987 74.2663C283.533 73.9316 284.18 73.7642 284.925 73.7642C285.545 73.7642 286.094 73.8786 286.571 74.1072C287.052 74.3326 287.434 74.6525 287.719 75.0668C288.004 75.4777 288.167 75.9583 288.207 76.5085H286.487C286.417 76.1406 286.251 75.834 285.989 75.5888C285.731 75.3402 285.384 75.2159 284.95 75.2159C284.582 75.2159 284.259 75.3153 283.981 75.5142C283.702 75.7098 283.485 75.9915 283.33 76.3594C283.177 76.7273 283.101 77.1681 283.101 77.6818C283.101 78.2022 283.177 78.6496 283.33 79.0241C283.482 79.3954 283.696 79.6821 283.971 79.8842C284.249 80.0831 284.576 80.1825 284.95 80.1825C285.215 80.1825 285.452 80.1328 285.661 80.0334C285.873 79.9306 286.051 79.7831 286.193 79.5909C286.336 79.3987 286.433 79.165 286.487 78.8899H288.207C288.164 79.4302 288.004 79.9091 287.729 80.3267C287.454 80.741 287.08 81.0658 286.606 81.3011C286.132 81.5331 285.575 81.6491 284.935 81.6491ZM293.498 73.8636V75.2557H289.108V73.8636H293.498ZM290.192 72.0341H291.991V79.2031C291.991 79.4451 292.028 79.6307 292.101 79.7599C292.177 79.8859 292.276 79.9721 292.399 80.0185C292.522 80.0649 292.657 80.0881 292.807 80.0881C292.919 80.0881 293.022 80.0798 293.115 80.0632C293.211 80.0466 293.284 80.0317 293.334 80.0185L293.637 81.4254C293.541 81.4586 293.403 81.495 293.224 81.5348C293.049 81.5746 292.833 81.5978 292.578 81.6044C292.127 81.6177 291.721 81.5497 291.36 81.4006C290.999 81.2481 290.712 81.0128 290.5 80.6946C290.291 80.3764 290.188 79.9787 290.192 79.5014V72.0341ZM295.003 81.5V73.8636H296.803V81.5H295.003ZM295.908 72.7798C295.623 72.7798 295.377 72.6854 295.172 72.4964C294.966 72.3042 294.864 72.0739 294.864 71.8054C294.864 71.5336 294.966 71.3033 295.172 71.1143C295.377 70.9221 295.623 70.826 295.908 70.826C296.196 70.826 296.441 70.9221 296.643 71.1143C296.849 71.3033 296.952 71.5336 296.952 71.8054C296.952 72.0739 296.849 72.3042 296.643 72.4964C296.441 72.6854 296.196 72.7798 295.908 72.7798ZM301.984 81.6491C301.238 81.6491 300.592 81.4851 300.045 81.157C299.498 80.8288 299.074 80.3698 298.773 79.7798C298.474 79.1899 298.325 78.5005 298.325 77.7116C298.325 76.9228 298.474 76.2318 298.773 75.6385C299.074 75.0452 299.498 74.5845 300.045 74.2564C300.592 73.9283 301.238 73.7642 301.984 73.7642C302.73 73.7642 303.376 73.9283 303.923 74.2564C304.47 74.5845 304.893 75.0452 305.191 75.6385C305.492 76.2318 305.643 76.9228 305.643 77.7116C305.643 78.5005 305.492 79.1899 305.191 79.7798C304.893 80.3698 304.47 80.8288 303.923 81.157C303.376 81.4851 302.73 81.6491 301.984 81.6491ZM301.994 80.2074C302.398 80.2074 302.737 80.0964 303.008 79.8743C303.28 79.6489 303.482 79.3473 303.615 78.9695C303.751 78.5916 303.819 78.1707 303.819 77.7067C303.819 77.2393 303.751 76.8168 303.615 76.4389C303.482 76.0578 303.28 75.7545 303.008 75.5291C302.737 75.3037 302.398 75.1911 301.994 75.1911C301.58 75.1911 301.235 75.3037 300.96 75.5291C300.688 75.7545 300.484 76.0578 300.349 76.4389C300.216 76.8168 300.15 77.2393 300.15 77.7067C300.15 78.1707 300.216 78.5916 300.349 78.9695C300.484 79.3473 300.688 79.6489 300.96 79.8743C301.235 80.0964 301.58 80.2074 301.994 80.2074ZM308.971 77.0256V81.5H307.171V73.8636H308.891V75.1612H308.98C309.156 74.7337 309.436 74.3939 309.821 74.142C310.208 73.8902 310.687 73.7642 311.257 73.7642C311.784 73.7642 312.243 73.8769 312.635 74.1023C313.029 74.3277 313.334 74.6541 313.549 75.0817C313.768 75.5092 313.876 76.0279 313.873 76.6378V81.5H312.073V76.9162C312.073 76.4058 311.94 76.0064 311.675 75.718C311.413 75.4297 311.05 75.2855 310.586 75.2855C310.271 75.2855 309.991 75.3551 309.746 75.4943C309.504 75.6302 309.314 75.8274 309.174 76.0859C309.038 76.3445 308.971 76.6577 308.971 77.0256ZM324.788 74.1172C324.741 73.683 324.546 73.3449 324.201 73.103C323.86 72.861 323.415 72.7401 322.869 72.7401C322.484 72.7401 322.154 72.7981 321.879 72.9141C321.604 73.0301 321.394 73.1875 321.248 73.3864C321.102 73.5852 321.027 73.8123 321.024 74.0675C321.024 74.2796 321.072 74.4635 321.168 74.6193C321.268 74.7751 321.402 74.9077 321.571 75.017C321.74 75.1231 321.927 75.2126 322.133 75.2855C322.338 75.3584 322.545 75.4197 322.754 75.4695L323.709 75.7081C324.093 75.7976 324.463 75.9186 324.817 76.071C325.175 76.2235 325.495 76.4157 325.777 76.6477C326.062 76.8797 326.287 77.1598 326.453 77.4879C326.619 77.8161 326.702 78.2005 326.702 78.6413C326.702 79.2379 326.549 79.7633 326.244 80.2173C325.939 80.6681 325.499 81.0211 324.922 81.2763C324.348 81.5282 323.654 81.6541 322.839 81.6541C322.047 81.6541 321.359 81.5315 320.776 81.2862C320.196 81.041 319.741 80.683 319.413 80.2124C319.089 79.7417 318.913 79.1683 318.886 78.4922H320.701C320.728 78.8468 320.837 79.1418 321.029 79.3771C321.221 79.6125 321.472 79.7881 321.78 79.9041C322.091 80.0201 322.439 80.0781 322.824 80.0781C323.225 80.0781 323.576 80.0185 323.878 79.8991C324.183 79.7765 324.421 79.6075 324.594 79.392C324.766 79.1733 324.854 78.9181 324.857 78.6264C324.854 78.3613 324.776 78.1425 324.624 77.9702C324.471 77.7945 324.257 77.6487 323.982 77.5327C323.71 77.4134 323.392 77.3073 323.028 77.2145L321.869 76.9162C321.031 76.7008 320.368 76.3743 319.881 75.9368C319.397 75.496 319.155 74.911 319.155 74.1818C319.155 73.5819 319.317 73.0566 319.642 72.6058C319.97 72.1551 320.416 71.8054 320.979 71.5568C321.543 71.3049 322.181 71.179 322.893 71.179C323.616 71.179 324.249 71.3049 324.793 71.5568C325.339 71.8054 325.769 72.1518 326.08 72.5959C326.392 73.0367 326.553 73.5438 326.562 74.1172H324.788ZM331.597 81.6491C330.835 81.6491 330.181 81.4818 329.634 81.147C329.09 80.8123 328.671 80.3499 328.376 79.7599C328.084 79.1667 327.938 78.4839 327.938 77.7116C327.938 76.9361 328.088 76.2517 328.386 75.6584C328.684 75.0618 329.105 74.5978 329.649 74.2663C330.195 73.9316 330.842 73.7642 331.588 73.7642C332.207 73.7642 332.756 73.8786 333.233 74.1072C333.714 74.3326 334.097 74.6525 334.382 75.0668C334.667 75.4777 334.829 75.9583 334.869 76.5085H333.149C333.079 76.1406 332.913 75.834 332.651 75.5888C332.393 75.3402 332.047 75.2159 331.612 75.2159C331.244 75.2159 330.921 75.3153 330.643 75.5142C330.365 75.7098 330.147 75.9915 329.992 76.3594C329.839 76.7273 329.763 77.1681 329.763 77.6818C329.763 78.2022 329.839 78.6496 329.992 79.0241C330.144 79.3954 330.358 79.6821 330.633 79.8842C330.911 80.0831 331.238 80.1825 331.612 80.1825C331.878 80.1825 332.115 80.1328 332.323 80.0334C332.535 79.9306 332.713 79.7831 332.855 79.5909C332.998 79.3987 333.096 79.165 333.149 78.8899H334.869C334.826 79.4302 334.667 79.9091 334.392 80.3267C334.116 80.741 333.742 81.0658 333.268 81.3011C332.794 81.5331 332.237 81.6491 331.597 81.6491ZM336.347 81.5V73.8636H338.092V75.1364H338.171C338.31 74.6955 338.549 74.3558 338.887 74.1172C339.228 73.8752 339.618 73.7543 340.055 73.7543C340.155 73.7543 340.266 73.7592 340.388 73.7692C340.514 73.7758 340.619 73.7874 340.702 73.804V75.4595C340.625 75.433 340.504 75.4098 340.339 75.3899C340.176 75.3667 340.019 75.3551 339.866 75.3551C339.538 75.3551 339.243 75.4264 338.982 75.5689C338.723 75.7081 338.519 75.902 338.37 76.1506C338.221 76.3991 338.146 76.6858 338.146 77.0107V81.5H336.347ZM344.964 81.6491C344.198 81.6491 343.537 81.4901 342.98 81.1719C342.426 80.8504 342.001 80.3963 341.702 79.8097C341.404 79.2197 341.255 78.5253 341.255 77.7266C341.255 76.9411 341.404 76.2517 341.702 75.6584C342.004 75.0618 342.425 74.5978 342.965 74.2663C343.505 73.9316 344.14 73.7642 344.869 73.7642C345.34 73.7642 345.784 73.8404 346.202 73.9929C346.622 74.142 346.994 74.3741 347.315 74.6889C347.64 75.0038 347.895 75.4048 348.081 75.892C348.266 76.3759 348.359 76.9527 348.359 77.6222V78.174H342.1V76.9609H346.634C346.631 76.6162 346.556 76.3097 346.41 76.0412C346.265 75.7694 346.061 75.5556 345.799 75.3999C345.54 75.2441 345.239 75.1662 344.894 75.1662C344.526 75.1662 344.203 75.2557 343.925 75.4347C343.646 75.6103 343.429 75.8423 343.273 76.1307C343.121 76.4157 343.043 76.7289 343.04 77.0703V78.1293C343.04 78.5734 343.121 78.9545 343.283 79.2727C343.446 79.5876 343.673 79.8295 343.964 79.9986C344.256 80.1643 344.597 80.2472 344.988 80.2472C345.25 80.2472 345.487 80.2107 345.699 80.1378C345.912 80.0616 346.095 79.9505 346.251 79.8047C346.407 79.6589 346.525 79.4782 346.604 79.2628L348.285 79.4517C348.179 79.8958 347.976 80.2836 347.678 80.6151C347.383 80.9432 347.005 81.1984 346.545 81.3807C346.084 81.5597 345.557 81.6491 344.964 81.6491ZM353.262 81.6491C352.497 81.6491 351.836 81.4901 351.279 81.1719C350.725 80.8504 350.299 80.3963 350.001 79.8097C349.703 79.2197 349.554 78.5253 349.554 77.7266C349.554 76.9411 349.703 76.2517 350.001 75.6584C350.303 75.0618 350.724 74.5978 351.264 74.2663C351.804 73.9316 352.439 73.7642 353.168 73.7642C353.639 73.7642 354.083 73.8404 354.5 73.9929C354.921 74.142 355.292 74.3741 355.614 74.6889C355.939 75.0038 356.194 75.4048 356.38 75.892C356.565 76.3759 356.658 76.9527 356.658 77.6222V78.174H350.399V76.9609H354.933C354.93 76.6162 354.855 76.3097 354.709 76.0412C354.563 75.7694 354.359 75.5556 354.098 75.3999C353.839 75.2441 353.538 75.1662 353.193 75.1662C352.825 75.1662 352.502 75.2557 352.223 75.4347C351.945 75.6103 351.728 75.8423 351.572 76.1307C351.42 76.4157 351.342 76.7289 351.338 77.0703V78.1293C351.338 78.5734 351.42 78.9545 351.582 79.2727C351.744 79.5876 351.971 79.8295 352.263 79.9986C352.555 80.1643 352.896 80.2472 353.287 80.2472C353.549 80.2472 353.786 80.2107 353.998 80.1378C354.21 80.0616 354.394 79.9505 354.55 79.8047C354.706 79.6589 354.824 79.4782 354.903 79.2628L356.583 79.4517C356.477 79.8958 356.275 80.2836 355.977 80.6151C355.682 80.9432 355.304 81.1984 354.843 81.3807C354.383 81.5597 353.856 81.6491 353.262 81.6491ZM359.98 77.0256V81.5H358.181V73.8636H359.901V75.1612H359.99C360.166 74.7337 360.446 74.3939 360.83 74.142C361.218 73.8902 361.697 73.7642 362.267 73.7642C362.794 73.7642 363.253 73.8769 363.644 74.1023C364.039 74.3277 364.344 74.6541 364.559 75.0817C364.778 75.5092 364.886 76.0279 364.882 76.6378V81.5H363.083V76.9162C363.083 76.4058 362.95 76.0064 362.685 75.718C362.423 75.4297 362.06 75.2855 361.596 75.2855C361.281 75.2855 361.001 75.3551 360.756 75.4943C360.514 75.6302 360.323 75.8274 360.184 76.0859C360.048 76.3445 359.98 76.6577 359.98 77.0256ZM366.712 81.5V73.8636H368.512V81.5H366.712ZM367.617 72.7798C367.332 72.7798 367.086 72.6854 366.881 72.4964C366.675 72.3042 366.573 72.0739 366.573 71.8054C366.573 71.5336 366.675 71.3033 366.881 71.1143C367.086 70.9221 367.332 70.826 367.617 70.826C367.905 70.826 368.15 70.9221 368.352 71.1143C368.558 71.3033 368.661 71.5336 368.661 71.8054C368.661 72.0739 368.558 72.3042 368.352 72.4964C368.15 72.6854 367.905 72.7798 367.617 72.7798ZM372.162 77.0256V81.5H370.362V73.8636H372.082V75.1612H372.172C372.348 74.7337 372.628 74.3939 373.012 74.142C373.4 73.8902 373.879 73.7642 374.449 73.7642C374.976 73.7642 375.435 73.8769 375.826 74.1023C376.22 74.3277 376.525 74.6541 376.741 75.0817C376.96 75.5092 377.067 76.0279 377.064 76.6378V81.5H375.264V76.9162C375.264 76.4058 375.132 76.0064 374.866 75.718C374.605 75.4297 374.242 75.2855 373.778 75.2855C373.463 75.2855 373.183 75.3551 372.938 75.4943C372.696 75.6302 372.505 75.8274 372.366 76.0859C372.23 76.3445 372.162 76.6577 372.162 77.0256ZM382.214 84.5227C381.568 84.5227 381.013 84.4349 380.549 84.2592C380.085 84.0869 379.712 83.8549 379.43 83.5632C379.149 83.2715 378.953 82.9484 378.844 82.5938L380.464 82.201C380.537 82.3501 380.643 82.4976 380.783 82.6435C380.922 82.7926 381.109 82.9152 381.344 83.0114C381.583 83.1108 381.883 83.1605 382.244 83.1605C382.755 83.1605 383.177 83.0362 383.512 82.7876C383.847 82.5424 384.014 82.138 384.014 81.5746V80.1278H383.925C383.832 80.3134 383.696 80.504 383.517 80.6996C383.341 80.8951 383.108 81.0592 382.816 81.1918C382.528 81.3243 382.165 81.3906 381.727 81.3906C381.141 81.3906 380.609 81.2531 380.131 80.978C379.657 80.6996 379.28 80.2853 378.998 79.7351C378.719 79.1816 378.58 78.4889 378.58 77.657C378.58 76.8184 378.719 76.1108 378.998 75.5341C379.28 74.9541 379.659 74.5149 380.136 74.2166C380.614 73.915 381.146 73.7642 381.732 73.7642C382.18 73.7642 382.548 73.8404 382.836 73.9929C383.128 74.142 383.36 74.3227 383.532 74.5348C383.704 74.7436 383.835 74.9408 383.925 75.1264H384.024V73.8636H385.799V81.6243C385.799 82.2772 385.643 82.8175 385.332 83.245C385.02 83.6726 384.594 83.9924 384.054 84.2045C383.514 84.4167 382.901 84.5227 382.214 84.5227ZM382.229 79.9787C382.611 79.9787 382.935 79.8859 383.204 79.7003C383.472 79.5147 383.676 79.2479 383.815 78.8999C383.955 78.5518 384.024 78.1342 384.024 77.647C384.024 77.1664 383.955 76.7455 383.815 76.3842C383.679 76.023 383.477 75.7429 383.209 75.544C382.944 75.3419 382.617 75.2408 382.229 75.2408C381.828 75.2408 381.494 75.3452 381.225 75.554C380.957 75.7628 380.754 76.0495 380.619 76.4141C380.483 76.7753 380.415 77.1863 380.415 77.647C380.415 78.1143 380.483 78.5237 380.619 78.875C380.758 79.223 380.962 79.4948 381.23 79.6903C381.502 79.8826 381.835 79.9787 382.229 79.9787Z" fill="#0B2404"/>
</g>
<g filter="url(#filter4_d_127_44108)">
<path d="M190.5 158C190.5 152.477 194.977 148 200.5 148H352.5C358.023 148 362.5 152.477 362.5 158V198C362.5 203.523 358.023 208 352.5 208H200.5C194.977 208 190.5 203.523 190.5 198V158Z" fill="white" shape-rendering="crispEdges"/>
<path d="M350.5 148V148.5H352.5C353.135 148.5 353.755 148.562 354.354 148.681L354.45 148.191C355.763 148.451 356.982 148.967 358.056 149.686L357.778 150.1C358.814 150.793 359.707 151.686 360.4 152.722L360.813 152.443C361.532 153.517 362.048 154.736 362.308 156.049L361.819 156.146C361.938 156.745 362 157.365 362 158V160H362.5V164H362V168H362.5V172H362V176H362.5V180H362V184H362.5V188H362V192H362.5V196H362V198C362 198.635 361.938 199.255 361.819 199.854L362.308 199.95C362.048 201.263 361.532 202.482 360.813 203.556L360.4 203.278C359.707 204.314 358.814 205.207 357.778 205.9L358.056 206.313C356.982 207.032 355.763 207.548 354.45 207.808L354.354 207.319C353.755 207.438 353.135 207.5 352.5 207.5H350.5V208H346.5V207.5H342.5V208H338.5V207.5H334.5V208H330.5V207.5H326.5V208H322.5V207.5H318.5V208H314.5V207.5H310.5V208H306.5V207.5H302.5V208H298.5V207.5H294.5V208H290.5V207.5H286.5V208H282.5V207.5H278.5V208H274.5V207.5H270.5V208H266.5V207.5H262.5V208H258.5V207.5H254.5V208H250.5V207.5H246.5V208H242.5V207.5H238.5V208H234.5V207.5H230.5V208H226.5V207.5H222.5V208H218.5V207.5H214.5V208H210.5V207.5H206.5V208H202.5V207.5H200.5C199.865 207.5 199.245 207.438 198.646 207.319L198.549 207.808C197.236 207.548 196.017 207.032 194.943 206.313L195.222 205.9C194.186 205.207 193.293 204.314 192.6 203.278L192.186 203.556C191.467 202.482 190.951 201.263 190.691 199.95L191.181 199.854C191.062 199.255 191 198.635 191 198V196H190.5V192H191V188H190.5V184H191V180H190.5V176H191V172H190.5V168H191V164H190.5V160H191V158C191 157.365 191.062 156.745 191.181 156.146L190.691 156.049C190.951 154.736 191.467 153.517 192.186 152.443L192.6 152.722C193.293 151.686 194.186 150.793 195.222 150.1L194.943 149.686C196.017 148.967 197.236 148.451 198.549 148.191L198.646 148.681C199.245 148.562 199.865 148.5 200.5 148.5H202.5V148H206.5V148.5H210.5V148H214.5V148.5H218.5V148H222.5V148.5H226.5V148H230.5V148.5H234.5V148H238.5V148.5H242.5V148H246.5V148.5H250.5V148H254.5V148.5H258.5V148H262.5V148.5H266.5V148H270.5V148.5H274.5V148H278.5V148.5H282.5V148H286.5V148.5H290.5V148H294.5V148.5H298.5V148H302.5V148.5H306.5V148H310.5V148.5H314.5V148H318.5V148.5H322.5V148H326.5V148.5H330.5V148H334.5V148.5H338.5V148H342.5V148.5H346.5V148H350.5Z" stroke="url(#paint1_linear_127_44108)" stroke-dasharray="4 4" shape-rendering="crispEdges"/>
<path d="M220.501 173.833V175.5M220.499 169.667C217.992 169.667 216.367 171.349 214.446 171.963C213.664 172.213 213.273 172.337 213.115 172.513C212.956 172.688 212.911 172.945 212.818 173.458C211.826 178.955 213.993 184.037 219.16 186.015C219.714 186.228 219.991 186.333 220.501 186.333C221.011 186.333 221.29 186.227 221.845 186.014C227.011 184.037 229.175 178.955 228.183 173.458C228.091 172.945 228.044 172.688 227.886 172.512C227.727 172.336 227.337 172.212 226.556 171.963C224.633 171.349 223.006 169.667 220.499 169.667Z" stroke="black" stroke-width="1.5" stroke-linecap="round" stroke-linejoin="round"/>
<path d="M242.812 183H240.843L244.428 172.818H246.705L250.294 183H248.325L245.606 174.906H245.526L242.812 183ZM242.876 179.008H248.246V180.489H242.876V179.008ZM254.157 183.134C253.557 183.134 253.02 182.98 252.546 182.672C252.072 182.364 251.698 181.916 251.423 181.33C251.147 180.743 251.01 180.03 251.01 179.192C251.01 178.343 251.149 177.627 251.428 177.044C251.709 176.457 252.089 176.015 252.566 175.717C253.043 175.415 253.575 175.264 254.162 175.264C254.609 175.264 254.977 175.34 255.266 175.493C255.554 175.642 255.783 175.823 255.952 176.035C256.121 176.244 256.252 176.441 256.344 176.626H256.419V172.818H258.224V183H256.454V181.797H256.344C256.252 181.982 256.117 182.18 255.942 182.388C255.766 182.594 255.534 182.77 255.246 182.915C254.957 183.061 254.594 183.134 254.157 183.134ZM254.659 181.658C255.04 181.658 255.365 181.555 255.634 181.349C255.902 181.141 256.106 180.851 256.245 180.479C256.384 180.108 256.454 179.676 256.454 179.182C256.454 178.688 256.384 178.259 256.245 177.894C256.109 177.53 255.907 177.246 255.638 177.044C255.373 176.842 255.047 176.741 254.659 176.741C254.258 176.741 253.923 176.845 253.655 177.054C253.386 177.263 253.184 177.551 253.048 177.919C252.912 178.287 252.844 178.708 252.844 179.182C252.844 179.659 252.912 180.085 253.048 180.46C253.188 180.831 253.391 181.124 253.66 181.339C253.932 181.552 254.265 181.658 254.659 181.658ZM262.975 183.134C262.375 183.134 261.838 182.98 261.365 182.672C260.891 182.364 260.516 181.916 260.241 181.33C259.966 180.743 259.828 180.03 259.828 179.192C259.828 178.343 259.968 177.627 260.246 177.044C260.528 176.457 260.907 176.015 261.384 175.717C261.862 175.415 262.394 175.264 262.98 175.264C263.428 175.264 263.796 175.34 264.084 175.493C264.372 175.642 264.601 175.823 264.77 176.035C264.939 176.244 265.07 176.441 265.163 176.626H265.237V172.818H267.042V183H265.272V181.797H265.163C265.07 181.982 264.936 182.18 264.76 182.388C264.584 182.594 264.352 182.77 264.064 182.915C263.776 183.061 263.413 183.134 262.975 183.134ZM263.477 181.658C263.859 181.658 264.183 181.555 264.452 181.349C264.72 181.141 264.924 180.851 265.063 180.479C265.203 180.108 265.272 179.676 265.272 179.182C265.272 178.688 265.203 178.259 265.063 177.894C264.927 177.53 264.725 177.246 264.457 177.044C264.192 176.842 263.865 176.741 263.477 176.741C263.076 176.741 262.742 176.845 262.473 177.054C262.205 177.263 262.003 177.551 261.867 177.919C261.731 178.287 261.663 178.708 261.663 179.182C261.663 179.659 261.731 180.085 261.867 180.46C262.006 180.831 262.21 181.124 262.478 181.339C262.75 181.552 263.083 181.658 263.477 181.658ZM268.96 183V175.364H270.76V183H268.96ZM269.865 174.28C269.58 174.28 269.334 174.185 269.129 173.996C268.923 173.804 268.821 173.574 268.821 173.305C268.821 173.034 268.923 172.803 269.129 172.614C269.334 172.422 269.58 172.326 269.865 172.326C270.153 172.326 270.398 172.422 270.6 172.614C270.806 172.803 270.909 173.034 270.909 173.305C270.909 173.574 270.806 173.804 270.6 173.996C270.398 174.185 270.153 174.28 269.865 174.28ZM276.423 175.364V176.756H272.034V175.364H276.423ZM273.117 173.534H274.917V180.703C274.917 180.945 274.954 181.131 275.026 181.26C275.103 181.386 275.202 181.472 275.325 181.518C275.447 181.565 275.583 181.588 275.732 181.588C275.845 181.588 275.948 181.58 276.041 181.563C276.137 181.547 276.21 181.532 276.259 181.518L276.563 182.925C276.467 182.959 276.329 182.995 276.15 183.035C275.974 183.075 275.759 183.098 275.504 183.104C275.053 183.118 274.647 183.05 274.286 182.901C273.924 182.748 273.638 182.513 273.426 182.195C273.217 181.876 273.114 181.479 273.117 181.001V173.534ZM277.929 183V175.364H279.728V183H277.929ZM278.833 174.28C278.548 174.28 278.303 174.185 278.098 173.996C277.892 173.804 277.789 173.574 277.789 173.305C277.789 173.034 277.892 172.803 278.098 172.614C278.303 172.422 278.548 172.326 278.833 172.326C279.122 172.326 279.367 172.422 279.569 172.614C279.775 172.803 279.877 173.034 279.877 173.305C279.877 173.574 279.775 173.804 279.569 173.996C279.367 174.185 279.122 174.28 278.833 174.28ZM284.91 183.149C284.164 183.149 283.518 182.985 282.971 182.657C282.424 182.329 282 181.87 281.698 181.28C281.4 180.69 281.251 180 281.251 179.212C281.251 178.423 281.4 177.732 281.698 177.138C282 176.545 282.424 176.085 282.971 175.756C283.518 175.428 284.164 175.264 284.91 175.264C285.656 175.264 286.302 175.428 286.849 175.756C287.396 176.085 287.818 176.545 288.117 177.138C288.418 177.732 288.569 178.423 288.569 179.212C288.569 180 288.418 180.69 288.117 181.28C287.818 181.87 287.396 182.329 286.849 182.657C286.302 182.985 285.656 183.149 284.91 183.149ZM284.92 181.707C285.324 181.707 285.662 181.596 285.934 181.374C286.206 181.149 286.408 180.847 286.541 180.469C286.677 180.092 286.744 179.671 286.744 179.207C286.744 178.739 286.677 178.317 286.541 177.939C286.408 177.558 286.206 177.254 285.934 177.029C285.662 176.804 285.324 176.691 284.92 176.691C284.506 176.691 284.161 176.804 283.886 177.029C283.614 177.254 283.41 177.558 283.274 177.939C283.142 178.317 283.075 178.739 283.075 179.207C283.075 179.671 283.142 180.092 283.274 180.469C283.41 180.847 283.614 181.149 283.886 181.374C284.161 181.596 284.506 181.707 284.92 181.707ZM291.896 178.526V183H290.097V175.364H291.817V176.661H291.906C292.082 176.234 292.362 175.894 292.746 175.642C293.134 175.39 293.613 175.264 294.183 175.264C294.71 175.264 295.169 175.377 295.56 175.602C295.955 175.828 296.26 176.154 296.475 176.582C296.694 177.009 296.802 177.528 296.798 178.138V183H294.999V178.416C294.999 177.906 294.866 177.506 294.601 177.218C294.339 176.93 293.976 176.786 293.512 176.786C293.197 176.786 292.917 176.855 292.672 176.994C292.43 177.13 292.239 177.327 292.1 177.586C291.964 177.844 291.896 178.158 291.896 178.526ZM300.825 183.154C300.341 183.154 299.906 183.068 299.518 182.896C299.133 182.72 298.828 182.461 298.603 182.12C298.381 181.779 298.27 181.358 298.27 180.857C298.27 180.426 298.349 180.07 298.509 179.788C298.668 179.507 298.885 179.281 299.16 179.112C299.435 178.943 299.745 178.816 300.089 178.729C300.438 178.64 300.797 178.575 301.168 178.536C301.616 178.489 301.979 178.448 302.257 178.411C302.536 178.371 302.738 178.312 302.864 178.232C302.993 178.149 303.058 178.022 303.058 177.849V177.82C303.058 177.445 302.946 177.155 302.724 176.95C302.502 176.744 302.183 176.641 301.765 176.641C301.324 176.641 300.974 176.737 300.716 176.93C300.461 177.122 300.288 177.349 300.199 177.611L298.518 177.372C298.651 176.908 298.87 176.52 299.175 176.209C299.48 175.894 299.853 175.659 300.293 175.503C300.734 175.344 301.221 175.264 301.755 175.264C302.123 175.264 302.489 175.307 302.854 175.393C303.218 175.48 303.551 175.622 303.853 175.821C304.155 176.017 304.397 176.283 304.579 176.621C304.764 176.96 304.857 177.382 304.857 177.889V183H303.127V181.951H303.067C302.958 182.163 302.804 182.362 302.605 182.548C302.41 182.73 302.163 182.877 301.864 182.99C301.569 183.099 301.223 183.154 300.825 183.154ZM301.293 181.832C301.654 181.832 301.967 181.76 302.232 181.618C302.497 181.472 302.701 181.28 302.844 181.041C302.99 180.803 303.062 180.542 303.062 180.261V179.361C303.006 179.407 302.91 179.45 302.774 179.49C302.642 179.53 302.492 179.565 302.327 179.594C302.161 179.624 301.997 179.651 301.835 179.674C301.672 179.697 301.531 179.717 301.412 179.734C301.143 179.77 300.903 179.83 300.691 179.913C300.479 179.996 300.312 180.112 300.189 180.261C300.066 180.406 300.005 180.595 300.005 180.827C300.005 181.159 300.126 181.409 300.368 181.578C300.61 181.747 300.918 181.832 301.293 181.832ZM308.467 172.818V183H306.667V172.818H308.467ZM313.869 183V172.818H315.714V177.496H315.838L319.811 172.818H322.063L318.125 177.387L322.097 183H319.88L316.843 178.635L315.714 179.967V183H313.869ZM322.648 172.818H324.731L327.222 177.322H327.321L329.812 172.818H331.895L328.191 179.202V183H326.352V179.202L322.648 172.818ZM341.343 176.254H339.483C339.43 175.949 339.332 175.679 339.19 175.443C339.047 175.205 338.87 175.002 338.658 174.837C338.446 174.671 338.204 174.547 337.932 174.464C337.664 174.378 337.374 174.335 337.062 174.335C336.508 174.335 336.018 174.474 335.59 174.752C335.163 175.027 334.828 175.432 334.586 175.965C334.344 176.496 334.223 177.143 334.223 177.909C334.223 178.688 334.344 179.344 334.586 179.878C334.831 180.408 335.166 180.809 335.59 181.081C336.018 181.349 336.507 181.484 337.057 181.484C337.362 181.484 337.647 181.444 337.912 181.364C338.181 181.281 338.421 181.161 338.633 181.001C338.848 180.842 339.029 180.647 339.175 180.415C339.324 180.183 339.427 179.918 339.483 179.619L341.343 179.629C341.273 180.113 341.122 180.567 340.89 180.991C340.661 181.416 340.361 181.79 339.99 182.115C339.619 182.437 339.185 182.688 338.688 182.871C338.191 183.05 337.639 183.139 337.032 183.139C336.137 183.139 335.338 182.932 334.636 182.518C333.933 182.103 333.38 181.505 332.975 180.723C332.571 179.941 332.369 179.003 332.369 177.909C332.369 176.812 332.573 175.874 332.98 175.095C333.388 174.313 333.943 173.715 334.646 173.3C335.348 172.886 336.144 172.679 337.032 172.679C337.599 172.679 338.126 172.759 338.613 172.918C339.1 173.077 339.535 173.31 339.916 173.619C340.297 173.924 340.61 174.298 340.855 174.742C341.104 175.183 341.266 175.687 341.343 176.254Z" fill="#0B2404"/>
</g>
</g>
<defs>
<filter id="filter0_i_127_44108" x="258" y="18" width="45" height="52" filterUnits="userSpaceOnUse" color-interpolation-filters="sRGB">
<feFlood flood-opacity="0" result="BackgroundImageFix"/>
<feBlend mode="normal" in="SourceGraphic" in2="BackgroundImageFix" result="shape"/>
<feColorMatrix in="SourceAlpha" type="matrix" values="0 0 0 0 0 0 0 0 0 0 0 0 0 0 0 0 0 0 127 0" result="hardAlpha"/>
<feOffset dy="7"/>
<feGaussianBlur stdDeviation="5"/>
<feComposite in2="hardAlpha" operator="arithmetic" k2="-1" k3="1"/>
<feColorMatrix type="matrix" values="0 0 0 0 0.976471 0 0 0 0 1 0 0 0 0 0.980392 0 0 0 0.6 0"/>
<feBlend mode="normal" in2="shape" result="effect1_innerShadow_127_44108"/>
</filter>
<filter id="filter1_i_127_44108" x="-5" y="108" width="45" height="52" filterUnits="userSpaceOnUse" color-interpolation-filters="sRGB">
<feFlood flood-opacity="0" result="BackgroundImageFix"/>
<feBlend mode="normal" in="SourceGraphic" in2="BackgroundImageFix" result="shape"/>
<feColorMatrix in="SourceAlpha" type="matrix" values="0 0 0 0 0 0 0 0 0 0 0 0 0 0 0 0 0 0 127 0" result="hardAlpha"/>
<feOffset dy="7"/>
<feGaussianBlur stdDeviation="5"/>
<feComposite in2="hardAlpha" operator="arithmetic" k2="-1" k3="1"/>
<feColorMatrix type="matrix" values="0 0 0 0 0.976471 0 0 0 0 1 0 0 0 0 0.980392 0 0 0 0.6 0"/>
<feBlend mode="normal" in2="shape" result="effect1_innerShadow_127_44108"/>
</filter>
<filter id="filter2_i_127_44108" x="170" y="196" width="45" height="52" filterUnits="userSpaceOnUse" color-interpolation-filters="sRGB">
<feFlood flood-opacity="0" result="BackgroundImageFix"/>
<feBlend mode="normal" in="SourceGraphic" in2="BackgroundImageFix" result="shape"/>
<feColorMatrix in="SourceAlpha" type="matrix" values="0 0 0 0 0 0 0 0 0 0 0 0 0 0 0 0 0 0 127 0" result="hardAlpha"/>
<feOffset dy="7"/>
<feGaussianBlur stdDeviation="5"/>
<feComposite in2="hardAlpha" operator="arithmetic" k2="-1" k3="1"/>
<feColorMatrix type="matrix" values="0 0 0 0 0.976471 0 0 0 0 1 0 0 0 0 0.980392 0 0 0 0.6 0"/>
<feBlend mode="normal" in2="shape" result="effect1_innerShadow_127_44108"/>
</filter>
<filter id="filter3_d_127_44108" x="-83.8889" y="-32.2222" width="605.778" height="290.778" filterUnits="userSpaceOnUse" color-interpolation-filters="sRGB">
<feFlood flood-opacity="0" result="BackgroundImageFix"/>
<feColorMatrix in="SourceAlpha" type="matrix" values="0 0 0 0 0 0 0 0 0 0 0 0 0 0 0 0 0 0 127 0" result="hardAlpha"/>
<feOffset dy="36.6667"/>
<feGaussianBlur stdDeviation="57.4444"/>
<feComposite in2="hardAlpha" operator="out"/>
<feColorMatrix type="matrix" values="0 0 0 0 0.027451 0 0 0 0 0.768627 0 0 0 0 0.305882 0 0 0 0.2 0"/>
<feBlend mode="normal" in2="BackgroundImageFix" result="effect1_dropShadow_127_44108"/>
<feBlend mode="normal" in="SourceGraphic" in2="effect1_dropShadow_127_44108" result="shape"/>
</filter>
<filter id="filter4_d_127_44108" x="75.6111" y="69.7778" width="401.778" height="289.778" filterUnits="userSpaceOnUse" color-interpolation-filters="sRGB">
<feFlood flood-opacity="0" result="BackgroundImageFix"/>
<feColorMatrix in="SourceAlpha" type="matrix" values="0 0 0 0 0 0 0 0 0 0 0 0 0 0 0 0 0 0 127 0" result="hardAlpha"/>
<feOffset dy="36.6667"/>
<feGaussianBlur stdDeviation="57.4444"/>
<feComposite in2="hardAlpha" operator="out"/>
<feColorMatrix type="matrix" values="0 0 0 0 0.027451 0 0 0 0 0.768627 0 0 0 0 0.305882 0 0 0 0.2 0"/>
<feBlend mode="normal" in2="BackgroundImageFix" result="effect1_dropShadow_127_44108"/>
<feBlend mode="normal" in="SourceGraphic" in2="effect1_dropShadow_127_44108" result="shape"/>
</filter>
<linearGradient id="paint0_linear_127_44108" x1="31.54" y1="46.0909" x2="50.7731" y2="164.624" gradientUnits="userSpaceOnUse">
<stop stop-color="#5EDD4D"/>
<stop offset="1" stop-color="#05CE6C"/>
</linearGradient>
<linearGradient id="paint1_linear_127_44108" x1="190.747" y1="148.089" x2="227.965" y2="254.764" gradientUnits="userSpaceOnUse">
<stop stop-color="#5EDD4D"/>
<stop offset="1" stop-color="#05CE6C"/>
</linearGradient>
<clipPath id="clip0_127_44108">
<rect width="386" height="260" fill="white"/>
</clipPath>
<pattern id="pattern0_127_44108" patternUnits="userSpaceOnUse" viewBox="-20807.3 795.1 43.65 44.1" width="11.547619055601812%" height="17.500000007982766%" x="166.5" y="103.5" patternContentUnits="objectBoundingBox">
<g id="pattern0_127_44108_inner">
<rect x="-20850.5" y="751.5" width="44" height="44" rx="9.5" stroke="#D9D9D9"/>
</g>
<use xlink:href="#pattern0_127_44108_inner" transform="translate(43.65 0)"/>
<use xlink:href="#pattern0_127_44108_inner" transform="translate(0 44.1)"/>
<use xlink:href="#pattern0_127_44108_inner" transform="translate(43.65 44.1)"/>
</pattern></defs>
</svg>
