<svg width="386" height="260" viewBox="0 0 386 260" fill="none" xmlns="http://www.w3.org/2000/svg" xmlns:xlink="http://www.w3.org/1999/xlink">
<g clip-path="url(#clip0_127_33748)">
<path d="M0 20C0 8.9543 8.95431 0 20 0H366C377.046 0 386 8.95431 386 20V260H0V20Z" fill="white"/>
<rect width="386" height="260" fill="url(#pattern0_127_33748)" fill-opacity="0.49"/>
<rect width="386" height="260" fill="url(#paint0_radial_127_33748)" fill-opacity="0.93"/>
<g filter="url(#filter0_f_127_33748)">
<ellipse cx="20.0004" cy="13" rx="53" ry="159" transform="rotate(64.387 20.0004 13)" fill="#B1EC02" fill-opacity="0.1"/>
</g>
<g filter="url(#filter1_f_127_33748)">
<ellipse cx="149.006" cy="121.979" rx="53" ry="336.493" transform="rotate(47.7009 149.006 121.979)" fill="url(#paint1_linear_127_33748)" fill-opacity="0.14"/>
</g>
<g filter="url(#filter2_f_127_33748)">
<ellipse cx="321.385" cy="183.508" rx="53" ry="245.068" transform="rotate(47.7009 321.385 183.508)" fill="url(#paint2_linear_127_33748)" fill-opacity="0.14"/>
</g>
<g filter="url(#filter3_d_127_33748)">
<path d="M100.282 140.33C100.206 137.803 101.654 135.476 103.955 134.427L191.102 94.7049C192.76 93.949 194.665 93.9507 196.322 94.7098L282.523 134.211C284.755 135.234 286.187 137.465 286.187 139.921L286.187 147.303C286.187 149.486 285.053 151.512 283.193 152.655L196.948 205.621C194.958 206.843 192.454 206.86 190.448 205.665L103.598 153.933C101.754 152.835 100.6 150.871 100.535 148.726L100.282 140.33Z" fill="white" stroke="#E8E8E8" stroke-width="0.52"/>
<path d="M103.908 142.96C100.442 140.904 100.707 135.803 104.367 134.117L191.518 93.9877C194.249 92.73 197.402 92.7682 200.102 94.0917L282.338 134.402C285.903 136.15 286.108 141.155 282.697 143.187L198.82 193.167C195.673 195.043 191.752 195.047 188.601 193.178L103.908 142.96Z" fill="#E8E8E8"/>
</g>
<g filter="url(#filter4_d_127_33748)">
<path d="M118.316 120.603C118.24 118.075 119.687 115.749 121.988 114.7L191.427 83.0493C193.085 82.2934 194.99 82.295 196.647 83.0542L265.346 114.536C267.578 115.559 269.009 117.789 269.009 120.244L269.009 124.777C269.009 126.946 267.89 128.962 266.048 130.109L197.306 172.894C195.3 174.143 192.763 174.16 190.74 172.939L121.507 131.13C119.681 130.028 118.541 128.074 118.476 125.943L118.316 120.603Z" fill="white" stroke="#E8E8E8" stroke-width="0.52"/>
<path d="M122.304 122.395C118.855 120.35 119.095 115.282 122.721 113.572L188.573 82.5094C191.271 81.2368 194.396 81.2351 197.095 82.5045L265.512 114.681C268.413 116.045 268.611 120.096 265.857 121.737L198.81 161.689C195.663 163.564 191.742 163.569 188.591 161.7L122.304 122.395Z" fill="#E8E8E8"/>
</g>
<g filter="url(#filter5_f_127_33748)">
<path d="M132 119L182.878 87.6857L258.5 119L189 155.5L132 119Z" fill="url(#paint3_radial_127_33748)"/>
</g>
<path d="M137.901 106.42C136.465 105.534 135.571 103.987 135.52 102.301L135.396 98.1723C135.335 96.1525 136.492 94.2933 138.33 93.4552L191.61 69.1699C192.935 68.5658 194.458 68.5673 195.782 69.1741L248.493 93.3291C250.277 94.1466 251.421 95.9288 251.421 97.8911L251.421 101.4C251.421 103.117 250.543 104.714 249.095 105.635L196.349 139.165C194.727 140.196 192.658 140.21 191.022 139.2L137.901 106.42Z" fill="#2BB007"/>
<path d="M138.512 93.3669L191.445 62.7758C192.835 61.9725 194.55 61.9794 195.934 62.7932L248.287 93.5838C250.426 94.8414 250.434 97.9308 248.303 99.2007L195.362 130.747C194.335 131.359 193.055 131.36 192.027 130.751L138.48 98.9992C136.334 97.7266 136.352 94.6152 138.512 93.3669Z" fill="#2BCD00" stroke="#83DE6A"/>
<g style="mix-blend-mode:hard-light" clip-path="url(#clip1_127_33748)" filter="url(#filter6_d_127_33748)">
<path d="M205.958 83.7025C206.925 83.7025 207.801 83.9966 208.435 84.472C209.068 84.9475 209.461 85.6041 209.461 86.3295C209.461 87.0547 209.068 87.7115 208.435 88.1869C207.801 88.6622 206.925 88.9564 205.958 88.9564C205.454 88.9564 204.976 88.8745 204.543 88.7308L193.688 95.8988L198.944 98.5531C199.647 98.0335 200.612 97.7134 201.677 97.7133C202.751 97.7133 203.725 98.0395 204.43 98.5677C205.134 99.096 205.569 99.8262 205.569 100.632C205.569 101.438 205.134 102.168 204.43 102.697C203.725 103.225 202.751 103.551 201.677 103.551C200.602 103.551 199.629 103.225 198.925 102.697C198.22 102.168 197.785 101.438 197.785 100.632C197.785 100.238 197.889 99.862 198.078 99.5189L192.484 96.6937L185.147 101.539C185.814 102.217 186.208 103.055 186.208 103.961C186.208 105.09 185.598 106.111 184.612 106.851C183.626 107.59 182.264 108.048 180.76 108.048C179.255 108.048 177.892 107.591 176.906 106.851C175.92 106.111 175.311 105.09 175.311 103.961C175.311 102.833 175.92 101.811 176.906 101.072C177.892 100.332 179.255 99.8754 180.76 99.8754C181.998 99.8754 183.14 100.185 184.055 100.707L191.15 96.0209L183.988 92.4037C183.942 92.441 183.897 92.4791 183.849 92.515C182.933 93.2018 181.668 93.6263 180.271 93.6263C178.874 93.6263 177.609 93.2016 176.693 92.515C175.778 91.8283 175.211 90.8792 175.211 89.8314C175.211 88.7838 175.778 87.8354 176.693 87.1488C177.609 86.4621 178.874 86.0375 180.271 86.0375C181.668 86.0375 182.933 86.4621 183.849 87.1488C184.764 87.8354 185.33 88.7839 185.33 89.8314C185.33 90.4059 185.158 90.9498 184.854 91.4379L191.785 94.9379L192.65 88.8744C192.026 88.7572 191.467 88.5176 191.026 88.1869C190.392 87.7115 190 87.0547 190 86.3295C190 85.6041 190.392 84.9475 191.026 84.472C191.66 83.9966 192.536 83.7025 193.503 83.7025C194.47 83.7025 195.346 83.9966 195.979 84.472C196.613 84.9475 197.006 85.6041 197.006 86.3295C197.006 87.0547 196.613 87.7115 195.979 88.1869C195.504 88.5433 194.893 88.7967 194.209 88.9017L193.405 94.5306L203.272 88.015C202.763 87.5587 202.455 86.9712 202.455 86.3295C202.455 85.6041 202.848 84.9475 203.481 84.472C204.115 83.9966 204.991 83.7025 205.958 83.7025Z" fill="white"/>
</g>
</g>
<defs>
<filter id="filter0_f_127_33748" x="-229.217" y="-174.724" width="498.434" height="375.448" filterUnits="userSpaceOnUse" color-interpolation-filters="sRGB">
<feFlood flood-opacity="0" result="BackgroundImageFix"/>
<feBlend mode="normal" in="SourceGraphic" in2="BackgroundImageFix" result="shape"/>
<feGaussianBlur stdDeviation="52" result="effect1_foregroundBlur_127_33748"/>
</filter>
<filter id="filter1_f_127_33748" x="-206.453" y="-211.886" width="710.918" height="667.731" filterUnits="userSpaceOnUse" color-interpolation-filters="sRGB">
<feFlood flood-opacity="0" result="BackgroundImageFix"/>
<feBlend mode="normal" in="SourceGraphic" in2="BackgroundImageFix" result="shape"/>
<feGaussianBlur stdDeviation="52" result="effect1_foregroundBlur_127_33748"/>
</filter>
<filter id="filter2_f_127_33748" x="32.6113" y="-90.0569" width="577.547" height="547.129" filterUnits="userSpaceOnUse" color-interpolation-filters="sRGB">
<feFlood flood-opacity="0" result="BackgroundImageFix"/>
<feBlend mode="normal" in="SourceGraphic" in2="BackgroundImageFix" result="shape"/>
<feGaussianBlur stdDeviation="52" result="effect1_foregroundBlur_127_33748"/>
</filter>
<filter id="filter3_d_127_33748" x="46.8884" y="50.5662" width="292.69" height="220" filterUnits="userSpaceOnUse" color-interpolation-filters="sRGB">
<feFlood flood-opacity="0" result="BackgroundImageFix"/>
<feColorMatrix in="SourceAlpha" type="matrix" values="0 0 0 0 0 0 0 0 0 0 0 0 0 0 0 0 0 0 127 0" result="hardAlpha"/>
<feOffset dy="10.6262"/>
<feGaussianBlur stdDeviation="26.5655"/>
<feComposite in2="hardAlpha" operator="out"/>
<feColorMatrix type="matrix" values="0 0 0 0 1 0 0 0 0 1 0 0 0 0 1 0 0 0 1 0"/>
<feBlend mode="normal" in2="BackgroundImageFix" result="effect1_dropShadow_127_33748"/>
<feBlend mode="normal" in="SourceGraphic" in2="effect1_dropShadow_127_33748" result="shape"/>
</filter>
<filter id="filter4_d_127_33748" x="105.672" y="74.1254" width="175.978" height="117.31" filterUnits="userSpaceOnUse" color-interpolation-filters="sRGB">
<feFlood flood-opacity="0" result="BackgroundImageFix"/>
<feColorMatrix in="SourceAlpha" type="matrix" values="0 0 0 0 0 0 0 0 0 0 0 0 0 0 0 0 0 0 127 0" result="hardAlpha"/>
<feOffset dy="4.95223"/>
<feGaussianBlur stdDeviation="6.19029"/>
<feComposite in2="hardAlpha" operator="out"/>
<feColorMatrix type="matrix" values="0 0 0 0 1 0 0 0 0 1 0 0 0 0 1 0 0 0 0.3 0"/>
<feBlend mode="normal" in2="BackgroundImageFix" result="effect1_dropShadow_127_33748"/>
<feBlend mode="normal" in="SourceGraphic" in2="effect1_dropShadow_127_33748" result="shape"/>
</filter>
<filter id="filter5_f_127_33748" x="95" y="50.6857" width="200.5" height="141.814" filterUnits="userSpaceOnUse" color-interpolation-filters="sRGB">
<feFlood flood-opacity="0" result="BackgroundImageFix"/>
<feBlend mode="normal" in="SourceGraphic" in2="BackgroundImageFix" result="shape"/>
<feGaussianBlur stdDeviation="18.5" result="effect1_foregroundBlur_127_33748"/>
</filter>
<filter id="filter6_d_127_33748" x="165.934" y="78.0365" width="52.8014" height="41.3854" filterUnits="userSpaceOnUse" color-interpolation-filters="sRGB">
<feFlood flood-opacity="0" result="BackgroundImageFix"/>
<feColorMatrix in="SourceAlpha" type="matrix" values="0 0 0 0 0 0 0 0 0 0 0 0 0 0 0 0 0 0 127 0" result="hardAlpha"/>
<feOffset dy="2.85417"/>
<feGaussianBlur stdDeviation="1.78385"/>
<feComposite in2="hardAlpha" operator="out"/>
<feColorMatrix type="matrix" values="0 0 0 0 0.184314 0 0 0 0 0.427451 0 0 0 0 0.117647 0 0 0 0.13 0"/>
<feBlend mode="normal" in2="BackgroundImageFix" result="effect1_dropShadow_127_33748"/>
<feBlend mode="normal" in="SourceGraphic" in2="effect1_dropShadow_127_33748" result="shape"/>
</filter>
<radialGradient id="paint0_radial_127_33748" cx="0" cy="0" r="1" gradientUnits="userSpaceOnUse" gradientTransform="translate(193 130) rotate(90) scale(130 130)">
<stop stop-color="white" stop-opacity="0"/>
<stop offset="1" stop-color="white"/>
</radialGradient>
<linearGradient id="paint1_linear_127_33748" x1="146.044" y1="-226.145" x2="112.379" y2="298.222" gradientUnits="userSpaceOnUse">
<stop stop-color="#2BCD00"/>
<stop offset="1" stop-color="white"/>
</linearGradient>
<linearGradient id="paint2_linear_127_33748" x1="318.423" y1="-70.0321" x2="300.532" y2="312.603" gradientUnits="userSpaceOnUse">
<stop offset="0.796005" stop-color="#87E36F"/>
<stop offset="1" stop-color="white"/>
</linearGradient>
<radialGradient id="paint3_radial_127_33748" cx="0" cy="0" r="1" gradientUnits="userSpaceOnUse" gradientTransform="translate(196.077 126.488) rotate(28.1081) scale(41.6639 0.744428)">
<stop stop-color="#07C44E" stop-opacity="0"/>
<stop offset="0.5" stop-color="#07C44E"/>
<stop offset="1" stop-color="#07C44E"/>
</radialGradient>
<clipPath id="clip0_127_33748">
<path d="M0 20C0 8.9543 8.95431 0 20 0H366C377.046 0 386 8.95431 386 20V260H0V20Z" fill="white"/>
</clipPath>
<clipPath id="clip1_127_33748">
<rect width="45.6667" height="34.25" fill="white" transform="translate(169.502 78.75)"/>
</clipPath>
<pattern id="pattern0_127_33748" patternUnits="userSpaceOnUse" viewBox="-19873.5 718 39.68 39.68" width="3.0839378274786249%" height="4.5784615438720992%" x="189.606" y="126.606" patternContentUnits="objectBoundingBox">
<path d="M-19848.7 722.95L-19847.3 724.364L-19852.3 729.314L-19847.3 734.263L-19848.7 735.678L-19853.7 730.728L-19858.6 735.678L-19860.1 734.263L-19855.1 729.314L-19860.1 724.364L-19858.6 722.95L-19853.7 727.899L-19848.7 722.95Z" fill="#2BCD00"/>
</pattern></defs>
</svg>
