<svg width="590" height="260" viewBox="0 0 590 260" fill="none" xmlns="http://www.w3.org/2000/svg" xmlns:xlink="http://www.w3.org/1999/xlink">
<g clip-path="url(#clip0_127_34057)">
<g filter="url(#filter0_f_127_34057)">
<ellipse cx="20.0004" cy="13" rx="53" ry="159" transform="rotate(64.387 20.0004 13)" fill="#B1EC02" fill-opacity="0.1"/>
</g>
<rect width="597" height="260" fill="url(#pattern0_127_34057)" fill-opacity="0.49"/>
<rect width="597" height="260" fill="url(#paint0_radial_127_34057)" fill-opacity="0.93"/>
<circle cx="295.5" cy="130.5" r="98" stroke="url(#paint1_linear_127_34057)" stroke-opacity="0.2"/>
<circle cx="295.5" cy="130.5" r="138" stroke="url(#paint2_linear_127_34057)" stroke-opacity="0.2"/>
<circle cx="295.5" cy="130.5" r="178" stroke="url(#paint3_linear_127_34057)" stroke-opacity="0.2"/>
<g filter="url(#filter1_f_127_34057)">
<ellipse cx="53" cy="159" rx="53" ry="159" transform="matrix(-0.43229 0.901735 0.901735 0.43229 473 -103.526)" fill="#B1EC02" fill-opacity="0.1"/>
</g>
<g filter="url(#filter2_d_127_34057)">
<rect x="255" y="90" width="80" height="80" rx="20" fill="#2BCD00"/>
<rect x="255.5" y="90.5" width="79" height="79" rx="19.5" stroke="url(#paint4_linear_127_34057)"/>
<g filter="url(#filter3_d_127_34057)">
<path d="M304.64 135.825C304.769 135.817 304.897 135.853 305.003 135.928C305.112 135.997 305.194 136.102 305.235 136.224L305.593 137.306C305.703 137.645 305.892 137.954 306.144 138.207C306.395 138.46 306.703 138.651 307.041 138.763L308.104 139.133C308.223 139.17 308.327 139.246 308.399 139.349C308.476 139.449 308.522 139.57 308.529 139.696C308.528 139.823 308.486 139.945 308.412 140.047C308.338 140.149 308.234 140.226 308.114 140.266L307.047 140.618C306.71 140.734 306.407 140.929 306.161 141.188C305.905 141.437 305.711 141.743 305.593 142.081L305.225 143.146C305.183 143.263 305.107 143.366 305.009 143.441C304.904 143.515 304.779 143.555 304.65 143.556C304.524 143.558 304.4 143.518 304.299 143.441C304.195 143.367 304.118 143.261 304.077 143.14L303.72 142.07C303.609 141.734 303.421 141.428 303.172 141.177C302.923 140.926 302.618 140.736 302.283 140.624L301.215 140.272C301.095 140.229 300.99 140.151 300.914 140.049C300.858 139.972 300.82 139.882 300.805 139.787C300.79 139.692 300.798 139.594 300.828 139.503C300.858 139.412 300.909 139.329 300.978 139.262C301.046 139.194 301.129 139.144 301.221 139.115L302.283 138.763C302.622 138.652 302.93 138.463 303.183 138.211C303.435 137.959 303.625 137.651 303.736 137.312L304.089 136.253C304.123 136.135 304.195 136.03 304.293 135.956C304.391 135.875 304.513 135.829 304.64 135.825ZM294.546 116.448C294.986 116.42 295.423 116.542 295.783 116.796C296.154 117.031 296.433 117.386 296.575 117.801L297.793 121.474C298.169 122.627 298.811 123.677 299.667 124.536C300.523 125.396 301.57 126.042 302.722 126.422L306.337 127.678C306.744 127.805 307.097 128.063 307.342 128.412C307.606 128.751 307.761 129.163 307.786 129.592C307.78 130.02 307.641 130.437 307.389 130.783C307.136 131.129 306.781 131.388 306.375 131.525L302.741 132.723C301.596 133.115 300.562 133.778 299.727 134.655C298.856 135.504 298.194 136.543 297.793 137.691L296.537 141.305C296.394 141.703 296.139 142.052 295.803 142.31C295.446 142.56 295.021 142.695 294.585 142.696C294.154 142.705 293.732 142.569 293.387 142.31C293.034 142.056 292.77 141.697 292.633 141.285L291.415 137.651C291.038 136.509 290.4 135.471 289.551 134.618C288.702 133.766 287.665 133.124 286.524 132.742L282.891 131.544C282.482 131.4 282.125 131.137 281.866 130.79C281.673 130.527 281.546 130.221 281.494 129.899C281.443 129.576 281.469 129.246 281.571 128.936C281.674 128.626 281.848 128.344 282.081 128.115C282.314 127.886 282.598 127.717 282.91 127.62L286.524 126.422C287.678 126.046 288.727 125.404 289.587 124.548C290.446 123.692 291.093 122.645 291.473 121.493L292.671 117.898C292.788 117.496 293.033 117.144 293.367 116.893C293.7 116.617 294.114 116.461 294.546 116.448ZM285.311 116.445C285.44 116.437 285.568 116.473 285.674 116.548C285.783 116.617 285.865 116.722 285.907 116.844L286.265 117.925C286.375 118.265 286.564 118.574 286.816 118.827C287.067 119.08 287.375 119.271 287.713 119.383L288.774 119.753C288.894 119.791 288.998 119.866 289.069 119.969C289.147 120.069 289.193 120.19 289.2 120.316C289.198 120.443 289.157 120.565 289.083 120.667C289.009 120.769 288.905 120.845 288.786 120.885L287.718 121.238C287.381 121.354 287.077 121.549 286.832 121.808C286.577 122.057 286.382 122.363 286.265 122.701L285.896 123.766C285.854 123.883 285.779 123.986 285.68 124.062C285.575 124.135 285.45 124.176 285.322 124.176C285.196 124.178 285.071 124.138 284.97 124.062C284.866 123.987 284.788 123.881 284.748 123.76L284.391 122.69C284.28 122.353 284.092 122.047 283.843 121.796C283.594 121.545 283.289 121.357 282.954 121.244L281.887 120.891C281.767 120.848 281.662 120.771 281.586 120.669C281.529 120.592 281.492 120.501 281.477 120.406C281.462 120.311 281.469 120.214 281.499 120.123C281.529 120.032 281.58 119.948 281.649 119.881C281.717 119.814 281.801 119.764 281.893 119.735L282.954 119.383C283.293 119.272 283.601 119.083 283.854 118.831C284.106 118.579 284.297 118.27 284.408 117.931L284.76 116.872C284.794 116.754 284.866 116.65 284.964 116.576C285.062 116.495 285.184 116.449 285.311 116.445Z" fill="url(#paint5_linear_127_34057)" shape-rendering="crispEdges"/>
</g>
</g>
<g filter="url(#filter4_d_127_34057)">
<rect x="430" y="23" width="60" height="60" rx="16" fill="white"/>
<rect x="430.5" y="23.5" width="59" height="59" rx="15.5" stroke="url(#paint6_linear_127_34057)" stroke-opacity="0.4"/>
<path d="M472.586 55.0001H472C472 52.8783 471.157 50.8435 469.657 49.3432C468.157 47.8429 466.122 47.0001 464 47.0001H462V45.4451C462.763 45.0048 463.359 44.3252 463.696 43.5117C464.032 42.6982 464.092 41.7962 463.864 40.9457C463.636 40.0951 463.134 39.3436 462.435 38.8075C461.736 38.2715 460.881 37.981 460 37.981C459.119 37.981 458.264 38.2715 457.565 38.8075C456.866 39.3436 456.364 40.0951 456.136 40.9457C455.908 41.7962 455.968 42.6982 456.304 43.5117C456.641 44.3252 457.237 45.0048 458 45.4451V47.0001H456C453.878 47.0001 451.843 47.8429 450.343 49.3432C448.843 50.8435 448 52.8783 448 55.0001H447.414C447.039 55.0001 446.679 55.149 446.414 55.4142C446.149 55.6794 446 56.039 446 56.4141V59.5861C446 59.9611 446.149 60.3207 446.414 60.5859C446.679 60.8511 447.039 61.0001 447.414 61.0001H448V62.0001C448 62.7957 448.316 63.5588 448.879 64.1214C449.441 64.684 450.204 65.0001 451 65.0001H469C469.796 65.0001 470.559 64.684 471.121 64.1214C471.684 63.5588 472 62.7957 472 62.0001V61.0001H472.586C472.772 61.0001 472.956 60.9635 473.127 60.8924C473.299 60.8214 473.455 60.7172 473.586 60.5859C473.717 60.4546 473.821 60.2987 473.892 60.1272C473.963 59.9556 474 59.7717 474 59.5861V56.4141C474 56.2284 473.963 56.0445 473.892 55.8729C473.821 55.7014 473.717 55.5455 473.586 55.4142C473.455 55.2829 473.299 55.1788 473.127 55.1077C472.956 55.0366 472.772 55.0001 472.586 55.0001ZM455 59.0001C454.407 59.0001 453.827 58.8241 453.333 58.4945C452.84 58.1648 452.455 57.6963 452.228 57.1481C452.001 56.5999 451.942 55.9967 452.058 55.4148C452.173 54.8328 452.459 54.2983 452.879 53.8787C453.298 53.4592 453.833 53.1735 454.415 53.0577C454.997 52.9419 455.6 53.0014 456.148 53.2284C456.696 53.4555 457.165 53.84 457.494 54.3333C457.824 54.8267 458 55.4067 458 56.0001C458 56.7957 457.684 57.5588 457.121 58.1214C456.559 58.684 455.796 59.0001 455 59.0001ZM465 59.0001C464.407 59.0001 463.827 58.8241 463.333 58.4945C462.84 58.1648 462.455 57.6963 462.228 57.1481C462.001 56.5999 461.942 55.9967 462.058 55.4148C462.173 54.8328 462.459 54.2983 462.879 53.8787C463.298 53.4592 463.833 53.1735 464.415 53.0577C464.997 52.9419 465.6 53.0014 466.148 53.2284C466.696 53.4555 467.165 53.84 467.494 54.3333C467.824 54.8267 468 55.4067 468 56.0001C468 56.7957 467.684 57.5588 467.121 58.1214C466.559 58.684 465.796 59.0001 465 59.0001Z" fill="url(#paint7_linear_127_34057)"/>
</g>
<g filter="url(#filter5_d_127_34057)">
<path d="M103 193C103 184.163 110.163 177 119 177H147C155.837 177 163 184.163 163 193V221C163 229.837 155.837 237 147 237H119C110.163 237 103 229.837 103 221V193Z" fill="white"/>
<path d="M119 177.5H147C155.56 177.5 162.5 184.44 162.5 193V221C162.5 229.56 155.56 236.5 147 236.5H119C110.44 236.5 103.5 229.56 103.5 221V193C103.5 184.44 110.44 177.5 119 177.5Z" stroke="url(#paint8_linear_127_34057)" stroke-opacity="0.4"/>
<path d="M130.454 197.526C130.152 197.828 129.913 198.186 129.749 198.581C129.586 198.975 129.502 199.398 129.502 199.825C129.502 200.251 129.586 200.674 129.749 201.069C129.913 201.463 130.152 201.821 130.454 202.123L137.88 209.547C138.49 210.156 139.316 210.499 140.178 210.499C141.04 210.499 141.867 210.156 142.476 209.547L142.512 209.51C143.984 208.039 144.865 206.078 144.987 204.001C145.11 201.923 144.466 199.873 143.178 198.238L146.708 194.708C146.896 194.52 147.001 194.266 147.001 194.001C147.001 193.735 146.895 193.481 146.708 193.294C146.52 193.106 146.266 193.001 146 193.001C145.735 193.001 145.481 193.106 145.293 193.294L141.763 196.824C140.129 195.536 138.078 194.892 136.001 195.015C133.923 195.138 131.963 196.018 130.491 197.49L130.454 197.526ZM135.549 211.877C136.159 212.487 136.501 213.313 136.501 214.175C136.501 215.037 136.159 215.864 135.549 216.473L135.513 216.51C134.042 217.982 132.081 218.863 130.003 218.986C127.925 219.108 125.875 218.465 124.24 217.176L120.711 220.706C120.523 220.894 120.269 220.999 120.004 220.999C119.738 220.999 119.484 220.893 119.297 220.706C119.109 220.518 119.004 220.263 119.004 219.998C119.004 219.733 119.109 219.479 119.297 219.291L122.827 215.761C121.539 214.127 120.895 212.076 121.017 209.999C121.14 207.921 122.021 205.961 123.492 204.489L123.528 204.453C124.138 203.844 124.964 203.501 125.826 203.501C126.688 203.501 127.515 203.844 128.124 204.453L135.549 211.877Z" fill="url(#paint9_linear_127_34057)"/>
</g>
</g>
<defs>
<filter id="filter0_f_127_34057" x="-229.217" y="-174.724" width="498.434" height="375.448" filterUnits="userSpaceOnUse" color-interpolation-filters="sRGB">
<feFlood flood-opacity="0" result="BackgroundImageFix"/>
<feBlend mode="normal" in="SourceGraphic" in2="BackgroundImageFix" result="shape"/>
<feGaussianBlur stdDeviation="52" result="effect1_foregroundBlur_127_34057"/>
</filter>
<filter id="filter1_f_127_34057" x="344.248" y="-174.724" width="498.434" height="375.448" filterUnits="userSpaceOnUse" color-interpolation-filters="sRGB">
<feFlood flood-opacity="0" result="BackgroundImageFix"/>
<feBlend mode="normal" in="SourceGraphic" in2="BackgroundImageFix" result="shape"/>
<feGaussianBlur stdDeviation="52" result="effect1_foregroundBlur_127_34057"/>
</filter>
<filter id="filter2_d_127_34057" x="140.111" y="11.7778" width="309.778" height="309.778" filterUnits="userSpaceOnUse" color-interpolation-filters="sRGB">
<feFlood flood-opacity="0" result="BackgroundImageFix"/>
<feColorMatrix in="SourceAlpha" type="matrix" values="0 0 0 0 0 0 0 0 0 0 0 0 0 0 0 0 0 0 127 0" result="hardAlpha"/>
<feOffset dy="36.6667"/>
<feGaussianBlur stdDeviation="57.4444"/>
<feComposite in2="hardAlpha" operator="out"/>
<feColorMatrix type="matrix" values="0 0 0 0 0.027451 0 0 0 0 0.768627 0 0 0 0 0.305882 0 0 0 1 0"/>
<feBlend mode="normal" in2="BackgroundImageFix" result="effect1_dropShadow_127_34057"/>
<feBlend mode="normal" in="SourceGraphic" in2="effect1_dropShadow_127_34057" result="shape"/>
</filter>
<filter id="filter3_d_127_34057" x="277.469" y="116.444" width="35.0605" height="35.1117" filterUnits="userSpaceOnUse" color-interpolation-filters="sRGB">
<feFlood flood-opacity="0" result="BackgroundImageFix"/>
<feColorMatrix in="SourceAlpha" type="matrix" values="0 0 0 0 0 0 0 0 0 0 0 0 0 0 0 0 0 0 127 0" result="hardAlpha"/>
<feOffset dy="4"/>
<feGaussianBlur stdDeviation="2"/>
<feComposite in2="hardAlpha" operator="out"/>
<feColorMatrix type="matrix" values="0 0 0 0 0 0 0 0 0 0 0 0 0 0 0 0 0 0 0.08 0"/>
<feBlend mode="normal" in2="BackgroundImageFix" result="effect1_dropShadow_127_34057"/>
<feBlend mode="normal" in="SourceGraphic" in2="effect1_dropShadow_127_34057" result="shape"/>
</filter>
<filter id="filter4_d_127_34057" x="315.111" y="-55.2222" width="289.778" height="289.778" filterUnits="userSpaceOnUse" color-interpolation-filters="sRGB">
<feFlood flood-opacity="0" result="BackgroundImageFix"/>
<feColorMatrix in="SourceAlpha" type="matrix" values="0 0 0 0 0 0 0 0 0 0 0 0 0 0 0 0 0 0 127 0" result="hardAlpha"/>
<feOffset dy="36.6667"/>
<feGaussianBlur stdDeviation="57.4444"/>
<feComposite in2="hardAlpha" operator="out"/>
<feColorMatrix type="matrix" values="0 0 0 0 0.027451 0 0 0 0 0.768627 0 0 0 0 0.305882 0 0 0 0.2 0"/>
<feBlend mode="normal" in2="BackgroundImageFix" result="effect1_dropShadow_127_34057"/>
<feBlend mode="normal" in="SourceGraphic" in2="effect1_dropShadow_127_34057" result="shape"/>
</filter>
<filter id="filter5_d_127_34057" x="-11.8889" y="98.7778" width="289.778" height="289.778" filterUnits="userSpaceOnUse" color-interpolation-filters="sRGB">
<feFlood flood-opacity="0" result="BackgroundImageFix"/>
<feColorMatrix in="SourceAlpha" type="matrix" values="0 0 0 0 0 0 0 0 0 0 0 0 0 0 0 0 0 0 127 0" result="hardAlpha"/>
<feOffset dy="36.6667"/>
<feGaussianBlur stdDeviation="57.4444"/>
<feComposite in2="hardAlpha" operator="out"/>
<feColorMatrix type="matrix" values="0 0 0 0 0.027451 0 0 0 0 0.768627 0 0 0 0 0.305882 0 0 0 0.2 0"/>
<feBlend mode="normal" in2="BackgroundImageFix" result="effect1_dropShadow_127_34057"/>
<feBlend mode="normal" in="SourceGraphic" in2="effect1_dropShadow_127_34057" result="shape"/>
</filter>
<radialGradient id="paint0_radial_127_34057" cx="0" cy="0" r="1" gradientUnits="userSpaceOnUse" gradientTransform="translate(298.5 130) rotate(90) scale(130 201.062)">
<stop stop-color="white" stop-opacity="0"/>
<stop offset="1" stop-color="white"/>
</radialGradient>
<linearGradient id="paint1_linear_127_34057" x1="197.283" y1="32.2934" x2="393.724" y2="228.704" gradientUnits="userSpaceOnUse">
<stop stop-color="#5EDD4D"/>
<stop offset="1" stop-color="#05CE6C"/>
</linearGradient>
<linearGradient id="paint2_linear_127_34057" x1="157.398" y1="-7.5874" x2="433.612" y2="268.584" gradientUnits="userSpaceOnUse">
<stop stop-color="#5EDD4D"/>
<stop offset="1" stop-color="#05CE6C"/>
</linearGradient>
<linearGradient id="paint3_linear_127_34057" x1="117.513" y1="-47.4682" x2="473.5" y2="308.464" gradientUnits="userSpaceOnUse">
<stop stop-color="#5EDD4D"/>
<stop offset="1" stop-color="#05CE6C"/>
</linearGradient>
<linearGradient id="paint4_linear_127_34057" x1="295" y1="90" x2="295" y2="170" gradientUnits="userSpaceOnUse">
<stop stop-color="white"/>
<stop offset="1" stop-color="white" stop-opacity="0"/>
</linearGradient>
<linearGradient id="paint5_linear_127_34057" x1="294.999" y1="116.444" x2="294.999" y2="143.556" gradientUnits="userSpaceOnUse">
<stop stop-color="white"/>
<stop offset="1" stop-color="white" stop-opacity="0.8"/>
</linearGradient>
<linearGradient id="paint6_linear_127_34057" x1="430.086" y1="23.0894" x2="489.916" y2="82.9098" gradientUnits="userSpaceOnUse">
<stop stop-color="#5EDD4D"/>
<stop offset="1" stop-color="#05CE6C"/>
</linearGradient>
<linearGradient id="paint7_linear_127_34057" x1="475.4" y1="37.981" x2="444.6" y2="37.981" gradientUnits="userSpaceOnUse">
<stop stop-color="#2BCD00" stop-opacity="0.2"/>
<stop offset="0.5" stop-color="#2BCD00"/>
<stop offset="1" stop-color="#2BCD00" stop-opacity="0.1"/>
</linearGradient>
<linearGradient id="paint8_linear_127_34057" x1="103.086" y1="177.089" x2="162.916" y2="236.91" gradientUnits="userSpaceOnUse">
<stop stop-color="#5EDD4D"/>
<stop offset="1" stop-color="#05CE6C"/>
</linearGradient>
<linearGradient id="paint9_linear_127_34057" x1="148.401" y1="193.001" x2="117.604" y2="193.001" gradientUnits="userSpaceOnUse">
<stop stop-color="#2BCD00" stop-opacity="0.2"/>
<stop offset="0.5" stop-color="#2BCD00"/>
<stop offset="1" stop-color="#2BCD00" stop-opacity="0.1"/>
</linearGradient>
<clipPath id="clip0_127_34057">
<path d="M0 20C0 8.9543 8.95431 0 20 0H570C581.046 0 590 8.95431 590 20V260H0V20Z" fill="white"/>
</clipPath>
<pattern id="pattern0_127_34057" patternUnits="userSpaceOnUse" viewBox="-20483.5 281 39.68 39.68" width="1.993969851602595%" height="4.5784615438721064%" x="295.106" y="126.606" patternContentUnits="objectBoundingBox">
<path d="M-20458.7 285.95L-20457.3 287.364L-20462.3 292.314L-20457.3 297.263L-20458.7 298.678L-20463.7 293.728L-20468.6 298.678L-20470.1 297.263L-20465.1 292.314L-20470.1 287.364L-20468.6 285.95L-20463.7 290.899L-20458.7 285.95Z" fill="#2BCD00"/>
</pattern></defs>
</svg>
