<svg width="14" height="14" viewBox="0 0 14 14" fill="none" xmlns="http://www.w3.org/2000/svg">
<path d="M0.635964 11.9497L2.05018 13.3639L10.5355 4.87859L11.9497 6.29281L13.3639 4.87859L11.9497 3.46438L13.3639 2.05016L11.9497 0.635951L10.5355 2.05016L9.12124 0.635951L7.70703 2.05016L9.12124 3.46438L0.635964 11.9497ZM4.8786 2.05016L6.29282 0.635951L7.70703 2.05016L6.29282 3.46438L4.8786 2.05016ZM4.8786 2.05016L3.46439 3.46438L2.05018 2.05016L3.46439 0.635951L4.8786 2.05016ZM11.9497 9.12123L13.3639 7.70702L11.9497 6.29281L10.5355 7.70702L11.9497 9.12123ZM11.9497 9.12123L10.5355 10.5354L11.9497 11.9497L13.3639 10.5354L11.9497 9.12123Z" fill="#B1EC02"/>
</svg>
