<svg width="12" height="12" viewBox="0 0 12 12" fill="none" xmlns="http://www.w3.org/2000/svg">
<path d="M0.697288 10.1248L1.8758 11.3033L8.94687 4.2322L10.1254 5.41071L11.3039 4.2322L10.1254 3.05369L11.3039 1.87518L10.1254 0.696667L8.94687 1.87518L7.76836 0.696667L6.58984 1.87518L7.76836 3.05369L0.697288 10.1248ZM4.23282 1.87518L5.41133 0.696667L6.58984 1.87518L5.41133 3.05369L4.23282 1.87518ZM4.23282 1.87518L3.05431 3.05369L1.8758 1.87518L3.05431 0.696667L4.23282 1.87518ZM10.1254 7.76773L11.3039 6.58922L10.1254 5.41071L8.94687 6.58922L10.1254 7.76773ZM10.1254 7.76773L8.94687 8.94625L10.1254 10.1248L11.3039 8.94625L10.1254 7.76773Z" fill="#0B2404"/>
</svg>
