<svg width="14" height="14" viewBox="0 0 14 14" fill="none" xmlns="http://www.w3.org/2000/svg">
<path d="M0.635964 11.9494L2.05018 13.3636L10.5355 4.87835L11.9497 6.29256L13.3639 4.87835L11.9497 3.46413L13.3639 2.04992L11.9497 0.635707L10.5355 2.04992L9.12124 0.635707L7.70703 2.04992L9.12124 3.46413L0.635964 11.9494ZM4.8786 2.04992L6.29282 0.635707L7.70703 2.04992L6.29282 3.46413L4.8786 2.04992ZM4.8786 2.04992L3.46439 3.46413L2.05018 2.04992L3.46439 0.635707L4.8786 2.04992ZM11.9497 9.12099L13.3639 7.70677L11.9497 6.29256L10.5355 7.70677L11.9497 9.12099ZM11.9497 9.12099L10.5355 10.5352L11.9497 11.9494L13.3639 10.5352L11.9497 9.12099Z" fill="white" fill-opacity="0.4"/>
</svg>
