<svg width="164" height="42" viewBox="0 0 164 42" fill="none" xmlns="http://www.w3.org/2000/svg">
<g filter="url(#filter0_i_384_27)">
<path d="M0.5 21C0.5 9.40202 9.90202 0 21.5 0H142.5C154.098 0 163.5 9.40202 163.5 21C163.5 32.598 154.098 42 142.5 42H21.5C9.90202 42 0.5 32.598 0.5 21Z" fill="#B1EC02"/>
<path d="M29.8885 19.0795C29.7938 18.7727 29.6631 18.4981 29.4964 18.2557C29.3336 18.0095 29.1366 17.7992 28.9055 17.625C28.6783 17.4508 28.4169 17.3201 28.1214 17.233C27.826 17.142 27.504 17.0966 27.1555 17.0966C26.5305 17.0966 25.9737 17.2538 25.4851 17.5682C24.9964 17.8826 24.612 18.3447 24.3317 18.9545C24.0552 19.5606 23.9169 20.2992 23.9169 21.1705C23.9169 22.0492 24.0552 22.7936 24.3317 23.4034C24.6082 24.0133 24.9927 24.4773 25.4851 24.7955C25.9775 25.1098 26.5495 25.267 27.201 25.267C27.7919 25.267 28.3033 25.1534 28.7351 24.9261C29.1707 24.6989 29.5059 24.3769 29.7408 23.9602C29.9756 23.5398 30.093 23.0473 30.093 22.483L30.5703 22.5568H27.4112V20.9091H32.1328V22.3068C32.1328 23.303 31.9207 24.1648 31.4964 24.892C31.0722 25.6193 30.4889 26.1799 29.7464 26.5739C29.004 26.964 28.1518 27.1591 27.1896 27.1591C26.1177 27.1591 25.1764 26.9186 24.3658 26.4375C23.5589 25.9527 22.9283 25.2652 22.4737 24.375C22.023 23.4811 21.7976 22.4205 21.7976 21.1932C21.7976 20.2538 21.9302 19.4148 22.1953 18.6761C22.4643 17.9375 22.8393 17.3106 23.3203 16.7955C23.8014 16.2765 24.3658 15.8826 25.0135 15.6136C25.6612 15.3409 26.3658 15.2045 27.1271 15.2045C27.7711 15.2045 28.3714 15.2992 28.9283 15.4886C29.4851 15.6742 29.9794 15.9394 30.4112 16.2841C30.8468 16.6288 31.2048 17.0379 31.4851 17.5114C31.7654 17.9848 31.9491 18.5076 32.0362 19.0795H29.8885ZM37.9439 27.1705C37.0689 27.1705 36.3132 26.9886 35.6768 26.625C35.0443 26.2576 34.5575 25.7386 34.2166 25.0682C33.8757 24.3939 33.7053 23.6004 33.7053 22.6875C33.7053 21.7898 33.8757 21.0019 34.2166 20.3239C34.5613 19.642 35.0424 19.1117 35.6598 18.733C36.2772 18.3504 37.0026 18.1591 37.8359 18.1591C38.3738 18.1591 38.8814 18.2462 39.3587 18.4205C39.8397 18.5909 40.264 18.8561 40.6314 19.2159C41.0026 19.5758 41.2943 20.0341 41.5064 20.5909C41.7185 21.1439 41.8246 21.803 41.8246 22.5682V23.1989H34.6712V21.8125H39.853C39.8492 21.4186 39.764 21.0682 39.5973 20.7614C39.4306 20.4508 39.1977 20.2064 38.8984 20.0284C38.603 19.8504 38.2583 19.7614 37.8643 19.7614C37.4439 19.7614 37.0746 19.8636 36.7564 20.0682C36.4382 20.2689 36.1901 20.5341 36.0121 20.8636C35.8378 21.1894 35.7488 21.5473 35.745 21.9375V23.1477C35.745 23.6553 35.8378 24.0909 36.0234 24.4545C36.209 24.8144 36.4685 25.0909 36.8018 25.2841C37.1352 25.4735 37.5253 25.5682 37.9723 25.5682C38.2715 25.5682 38.5424 25.5265 38.7848 25.4432C39.0272 25.3561 39.2375 25.2292 39.4155 25.0625C39.5935 24.8958 39.728 24.6894 39.8189 24.4432L41.7393 24.6591C41.6181 25.1667 41.3871 25.6098 41.0462 25.9886C40.709 26.3636 40.2772 26.6553 39.7507 26.8636C39.2242 27.0682 38.6219 27.1705 37.9439 27.1705ZM47.9226 18.2727V19.8636H42.9055V18.2727H47.9226ZM44.1442 16.1818H46.201V24.375C46.201 24.6515 46.2427 24.8636 46.326 25.0114C46.4131 25.1553 46.5268 25.2538 46.6669 25.3068C46.8071 25.3598 46.9624 25.3864 47.1328 25.3864C47.2616 25.3864 47.379 25.3769 47.4851 25.358C47.5949 25.339 47.6783 25.322 47.7351 25.3068L48.0817 26.9148C47.9718 26.9527 47.8146 26.9943 47.6101 27.0398C47.4093 27.0852 47.1631 27.1117 46.8714 27.1193C46.3563 27.1345 45.8923 27.0568 45.4794 26.8864C45.0665 26.7121 44.7389 26.4432 44.4964 26.0795C44.2578 25.7159 44.1404 25.2614 44.1442 24.7159V16.1818ZM56.1229 27.1761C55.5698 27.1761 55.0717 27.0777 54.6286 26.8807C54.1892 26.6799 53.8407 26.3845 53.5831 25.9943C53.3293 25.6042 53.2024 25.1231 53.2024 24.5511C53.2024 24.0587 53.2933 23.6515 53.4751 23.3295C53.657 23.0076 53.9051 22.75 54.2195 22.5568C54.5339 22.3636 54.888 22.2178 55.282 22.1193C55.6797 22.017 56.0907 21.9432 56.5149 21.8977C57.0263 21.8447 57.4411 21.7973 57.7592 21.7557C58.0774 21.7102 58.3085 21.642 58.4524 21.5511C58.6001 21.4564 58.674 21.3106 58.674 21.1136V21.0795C58.674 20.6515 58.5471 20.3201 58.2933 20.0852C58.0395 19.8504 57.674 19.733 57.1967 19.733C56.6929 19.733 56.2933 19.8428 55.9979 20.0625C55.7062 20.2822 55.5092 20.5417 55.407 20.8409L53.4865 20.5682C53.638 20.0379 53.888 19.5947 54.2365 19.2386C54.585 18.8788 55.0111 18.6098 55.5149 18.4318C56.0187 18.25 56.5755 18.1591 57.1854 18.1591C57.6058 18.1591 58.0244 18.2083 58.4411 18.3068C58.8577 18.4053 59.2384 18.5682 59.5831 18.7955C59.9278 19.0189 60.2043 19.3239 60.4126 19.7102C60.6248 20.0966 60.7308 20.5795 60.7308 21.1591V27H58.7536V25.8011H58.6854C58.5604 26.0436 58.3842 26.2708 58.157 26.483C57.9335 26.6913 57.6513 26.8598 57.3104 26.9886C56.9732 27.1136 56.5774 27.1761 56.1229 27.1761ZM56.657 25.6648C57.0698 25.6648 57.4278 25.5833 57.7308 25.4205C58.0339 25.2538 58.2668 25.0341 58.4297 24.7614C58.5964 24.4886 58.6797 24.1913 58.6797 23.8693V22.8409C58.6153 22.8939 58.5054 22.9432 58.3501 22.9886C58.1986 23.0341 58.0282 23.0739 57.8388 23.108C57.6494 23.142 57.4619 23.1723 57.2763 23.1989C57.0907 23.2254 56.9297 23.2481 56.7933 23.267C56.4865 23.3087 56.2119 23.3769 55.9695 23.4716C55.727 23.5663 55.5357 23.6989 55.3956 23.8693C55.2554 24.036 55.1854 24.2519 55.1854 24.517C55.1854 24.8958 55.3236 25.1818 55.6001 25.375C55.8767 25.5682 56.2289 25.6648 56.657 25.6648ZM71.1939 23.0909H73.103L74.2337 24.5568L75.0405 25.5114L76.978 28H74.9325L73.6143 26.3295L73.0518 25.5341L71.1939 23.0909ZM77.2564 21.1818C77.2564 22.4356 77.0215 23.5095 76.5518 24.4034C76.0859 25.2936 75.4496 25.9754 74.6428 26.4489C73.8397 26.9223 72.9287 27.1591 71.9098 27.1591C70.8909 27.1591 69.978 26.9223 69.1712 26.4489C68.3681 25.9716 67.7318 25.2879 67.2621 24.3977C66.7962 23.5038 66.5632 22.4318 66.5632 21.1818C66.5632 19.928 66.7962 18.8561 67.2621 17.9659C67.7318 17.072 68.3681 16.3883 69.1712 15.9148C69.978 15.4413 70.8909 15.2045 71.9098 15.2045C72.9287 15.2045 73.8397 15.4413 74.6428 15.9148C75.4496 16.3883 76.0859 17.072 76.5518 17.9659C77.0215 18.8561 77.2564 19.928 77.2564 21.1818ZM75.1371 21.1818C75.1371 20.2992 74.9988 19.5549 74.7223 18.9489C74.4496 18.339 74.0708 17.8788 73.5859 17.5682C73.1011 17.2538 72.5424 17.0966 71.9098 17.0966C71.2772 17.0966 70.7185 17.2538 70.2337 17.5682C69.7488 17.8788 69.3681 18.339 69.0916 18.9489C68.8189 19.5549 68.6825 20.2992 68.6825 21.1818C68.6825 22.0644 68.8189 22.8106 69.0916 23.4205C69.3681 24.0265 69.7488 24.4867 70.2337 24.8011C70.7185 25.1117 71.2772 25.267 71.9098 25.267C72.5424 25.267 73.1011 25.1117 73.5859 24.8011C74.0708 24.4867 74.4496 24.0265 74.7223 23.4205C74.9988 22.8106 75.1371 22.0644 75.1371 21.1818ZM84.7365 23.3295V18.2727H86.7933V27H84.799V25.4489H84.7081C84.5111 25.9375 84.1873 26.3371 83.7365 26.6477C83.2895 26.9583 82.7384 27.1136 82.0831 27.1136C81.5111 27.1136 81.0054 26.9867 80.5661 26.733C80.1304 26.4754 79.7895 26.1023 79.5433 25.6136C79.2971 25.1212 79.174 24.5265 79.174 23.8295V18.2727H81.2308V23.5114C81.2308 24.0644 81.3823 24.5038 81.6854 24.8295C81.9884 25.1553 82.3861 25.3182 82.8786 25.3182C83.1816 25.3182 83.4751 25.2443 83.7592 25.0966C84.0433 24.9489 84.2763 24.7292 84.4581 24.4375C84.6437 24.142 84.7365 23.7727 84.7365 23.3295ZM92.7152 27.1705C91.8629 27.1705 91.1243 26.983 90.4993 26.608C89.8743 26.233 89.3894 25.7083 89.0447 25.0341C88.7038 24.3598 88.5334 23.572 88.5334 22.6705C88.5334 21.7689 88.7038 20.9792 89.0447 20.3011C89.3894 19.6231 89.8743 19.0966 90.4993 18.7216C91.1243 18.3466 91.8629 18.1591 92.7152 18.1591C93.5675 18.1591 94.3061 18.3466 94.9311 18.7216C95.5561 19.0966 96.0391 19.6231 96.38 20.3011C96.7247 20.9792 96.897 21.7689 96.897 22.6705C96.897 23.572 96.7247 24.3598 96.38 25.0341C96.0391 25.7083 95.5561 26.233 94.9311 26.608C94.3061 26.983 93.5675 27.1705 92.7152 27.1705ZM92.7266 25.5227C93.1887 25.5227 93.575 25.3958 93.8857 25.142C94.1963 24.8845 94.4273 24.5398 94.5788 24.108C94.7341 23.6761 94.8118 23.1951 94.8118 22.6648C94.8118 22.1307 94.7341 21.6477 94.5788 21.2159C94.4273 20.7803 94.1963 20.4337 93.8857 20.1761C93.575 19.9186 93.1887 19.7898 92.7266 19.7898C92.2531 19.7898 91.8591 19.9186 91.5447 20.1761C91.2341 20.4337 91.0012 20.7803 90.8459 21.2159C90.6944 21.6477 90.6186 22.1307 90.6186 22.6648C90.6186 23.1951 90.6944 23.6761 90.8459 24.108C91.0012 24.5398 91.2341 24.8845 91.5447 25.142C91.8591 25.3958 92.2531 25.5227 92.7266 25.5227ZM103.001 18.2727V19.8636H97.9837V18.2727H103.001ZM99.2223 16.1818H101.279V24.375C101.279 24.6515 101.321 24.8636 101.404 25.0114C101.491 25.1553 101.605 25.2538 101.745 25.3068C101.885 25.3598 102.04 25.3864 102.211 25.3864C102.34 25.3864 102.457 25.3769 102.563 25.358C102.673 25.339 102.756 25.322 102.813 25.3068L103.16 26.9148C103.05 26.9527 102.893 26.9943 102.688 27.0398C102.487 27.0852 102.241 27.1117 101.95 27.1193C101.434 27.1345 100.97 27.0568 100.558 26.8864C100.145 26.7121 99.817 26.4432 99.5746 26.0795C99.3359 25.7159 99.2185 25.2614 99.2223 24.7159V16.1818ZM108.491 27.1705C107.616 27.1705 106.86 26.9886 106.224 26.625C105.591 26.2576 105.104 25.7386 104.763 25.0682C104.423 24.3939 104.252 23.6004 104.252 22.6875C104.252 21.7898 104.423 21.0019 104.763 20.3239C105.108 19.642 105.589 19.1117 106.207 18.733C106.824 18.3504 107.549 18.1591 108.383 18.1591C108.921 18.1591 109.428 18.2462 109.906 18.4205C110.387 18.5909 110.811 18.8561 111.178 19.2159C111.549 19.5758 111.841 20.0341 112.053 20.5909C112.265 21.1439 112.371 21.803 112.371 22.5682V23.1989H105.218V21.8125H110.4C110.396 21.4186 110.311 21.0682 110.144 20.7614C109.978 20.4508 109.745 20.2064 109.445 20.0284C109.15 19.8504 108.805 19.7614 108.411 19.7614C107.991 19.7614 107.621 19.8636 107.303 20.0682C106.985 20.2689 106.737 20.5341 106.559 20.8636C106.385 21.1894 106.296 21.5473 106.292 21.9375V23.1477C106.292 23.6553 106.385 24.0909 106.57 24.4545C106.756 24.8144 107.015 25.0909 107.349 25.2841C107.682 25.4735 108.072 25.5682 108.519 25.5682C108.818 25.5682 109.089 25.5265 109.332 25.4432C109.574 25.3561 109.784 25.2292 109.962 25.0625C110.14 24.8958 110.275 24.6894 110.366 24.4432L112.286 24.6591C112.165 25.1667 111.934 25.6098 111.593 25.9886C111.256 26.3636 110.824 26.6553 110.298 26.8636C109.771 27.0682 109.169 27.1705 108.491 27.1705Z" fill="#0B2404"/>
<path d="M128.197 25.1248L129.376 26.3033L136.447 19.2322L137.625 20.4107L138.804 19.2322L137.625 18.0537L138.804 16.8752L137.625 15.6967L136.447 16.8752L135.268 15.6967L134.09 16.8752L135.268 18.0537L128.197 25.1248ZM131.733 16.8752L132.911 15.6967L134.09 16.8752L132.911 18.0537L131.733 16.8752ZM131.733 16.8752L130.554 18.0537L129.376 16.8752L130.554 15.6967L131.733 16.8752ZM137.625 22.7677L138.804 21.5892L137.625 20.4107L136.447 21.5892L137.625 22.7677ZM137.625 22.7677L136.447 23.9462L137.625 25.1248L138.804 23.9462L137.625 22.7677Z" fill="#0B2404"/>
</g>
<defs>
<filter id="filter0_i_384_27" x="0.5" y="0" width="163" height="49" filterUnits="userSpaceOnUse" color-interpolation-filters="sRGB">
<feFlood flood-opacity="0" result="BackgroundImageFix"/>
<feBlend mode="normal" in="SourceGraphic" in2="BackgroundImageFix" result="shape"/>
<feColorMatrix in="SourceAlpha" type="matrix" values="0 0 0 0 0 0 0 0 0 0 0 0 0 0 0 0 0 0 127 0" result="hardAlpha"/>
<feOffset dy="7"/>
<feGaussianBlur stdDeviation="5"/>
<feComposite in2="hardAlpha" operator="arithmetic" k2="-1" k3="1"/>
<feColorMatrix type="matrix" values="0 0 0 0 0.976471 0 0 0 0 1 0 0 0 0 0.980392 0 0 0 0.6 0"/>
<feBlend mode="normal" in2="shape" result="effect1_innerShadow_384_27"/>
</filter>
</defs>
</svg>
