<svg width="48" height="60" viewBox="0 0 48 60" fill="none" xmlns="http://www.w3.org/2000/svg">
<path d="M42.3465 36.9226C47.8153 35.2786 45.0672 42.7546 44.1512 45.0788C43.2352 47.4028 38.6558 54.2385 34.9617 56.4382C24.415 62.7173 16.6717 59.6101 16.6717 51.9958C16.6717 44.3814 23.1755 42.6338 26.99 41.3649C27.0173 41.3572 36.8848 38.5643 42.3465 36.9226ZM38.5574 18.6335C42.3672 17.476 46.3938 19.6256 47.5515 23.4353C48.7092 27.2452 46.5588 31.2727 42.7488 32.4304L11.2742 41.9929C7.46432 43.1504 3.43762 41.0001 2.28006 37.1901C1.12261 33.3802 3.27291 29.3536 7.0828 28.196L38.5574 18.6335ZM36.7254 0.313187C40.5352 -0.844177 44.562 1.30608 45.7195 5.11592C46.877 8.92581 44.7267 12.9525 40.9168 14.1101L9.44217 23.6726C5.63237 24.83 1.60573 22.6805 0.448033 18.8708C-0.709529 15.0609 1.44083 11.0332 5.25077 9.87569L36.7254 0.313187Z" fill="#2BCD00"/>
</svg>
