<svg width="149" height="30" viewBox="0 0 149 30" fill="none" xmlns="http://www.w3.org/2000/svg">
<g clip-path="url(#clip0_384_16)">
<path d="M21.531 18.1095C18.9166 18.8787 14.1902 20.1881 14.1902 20.1881C12.3668 20.7818 9.25781 21.5992 9.25781 25.1619C9.25781 28.7244 12.9591 30.1784 18.0008 27.2405C19.7667 26.2114 21.956 23.0131 22.3939 21.9257C22.8318 20.8383 24.1454 17.3403 21.531 18.1095Z" fill="#2BCD00"/>
<path d="M18.8434 0.980657L3.79768 5.45488C1.97642 5.99648 0.948577 7.8806 1.50192 9.66318C2.05527 11.4458 3.98027 12.4518 5.80153 11.9102L20.8473 7.43596C22.6685 6.89436 23.6964 5.01024 23.143 3.22766C22.5897 1.44508 20.6647 0.43906 18.8434 0.980657Z" fill="#2BCD00"/>
<path d="M2.37827 18.2346C1.82493 16.452 2.85277 14.5679 4.67403 14.0263L19.7198 9.55208C21.541 9.01045 23.466 10.0165 24.0194 11.7991C24.5728 13.5817 23.5449 15.4658 21.7236 16.0074L6.67788 20.4816C4.85663 21.0232 2.93163 20.0172 2.37827 18.2346Z" fill="#2BCD00"/>
<path d="M30.9492 24V6.54546H42.7567V9.58809H34.7196V13.7472H41.9731V16.7898H34.7196V24H30.9492ZM48.9326 6.54546V24H45.2232V6.54546H48.9326ZM57.9472 24.2557C56.5946 24.2557 55.4249 23.9745 54.438 23.4119C53.457 22.8437 52.6994 22.0539 52.1653 21.0426C51.6313 20.0256 51.3643 18.8466 51.3643 17.5057C51.3643 16.1534 51.6313 14.9716 52.1653 13.9602C52.6994 12.9432 53.457 12.1534 54.438 11.5909C55.4249 11.0227 56.5946 10.7386 57.9472 10.7386C59.2998 10.7386 60.4666 11.0227 61.4477 11.5909C62.4346 12.1534 63.195 12.9432 63.7291 13.9602C64.2631 14.9716 64.5302 16.1534 64.5302 17.5057C64.5302 18.8466 64.2631 20.0256 63.7291 21.0426C63.195 22.0539 62.4346 22.8437 61.4477 23.4119C60.4666 23.9745 59.2998 24.2557 57.9472 24.2557ZM57.9646 21.4431C58.58 21.4431 59.0937 21.2727 59.5059 20.9319C59.9181 20.5852 60.2286 20.1136 60.4376 19.5171C60.6524 18.9205 60.7598 18.2415 60.7598 17.4801C60.7598 16.7187 60.6524 16.0398 60.4376 15.4431C60.2286 14.8466 59.9181 14.375 59.5059 14.0284C59.0937 13.6818 58.58 13.5085 57.9646 13.5085C57.3435 13.5085 56.821 13.6818 56.3972 14.0284C55.9793 14.375 55.6629 14.8466 55.4481 15.4431C55.2392 16.0398 55.1347 16.7187 55.1347 17.4801C55.1347 18.2415 55.2392 18.9205 55.4481 19.5171C55.6629 20.1136 55.9793 20.5852 56.3972 20.9319C56.821 21.2727 57.3435 21.4431 57.9646 21.4431ZM69.2454 24L65.6057 10.9091H69.3586L71.431 19.7045H71.5529L73.7125 10.9091H77.3957L79.5901 19.6534H79.7033L81.7409 10.9091H85.4851L81.854 24H77.927L75.6281 15.7671H75.4626L73.1638 24H69.2454Z" fill="white"/>
<path d="M90.4331 24L88.291 6.54546H92.4096L93.3151 18.6733H93.4631L98.7666 6.54546H102.293L103.495 18.6988H103.651L108.649 6.54546H112.769L104.705 24H101.03L99.5854 12.5881H99.4453L94.1077 24H90.4331ZM111.756 24L113.985 10.9091H117.695L115.465 24H111.756ZM116.223 9.20452C115.672 9.20452 115.216 9.02555 114.856 8.66761C114.502 8.30398 114.357 7.87216 114.42 7.37216C114.484 6.8608 114.734 6.42898 115.169 6.07671C115.605 5.71875 116.098 5.53978 116.65 5.53978C117.201 5.53978 117.651 5.71875 118 6.07671C118.348 6.42898 118.493 6.8608 118.435 7.37216C118.377 7.87216 118.13 8.30398 117.695 8.66761C117.265 9.02555 116.774 9.20452 116.223 9.20452ZM123.453 16.4319L122.164 24H118.463L120.693 10.9091H124.219L123.836 13.2188H123.984C124.407 12.4517 125.006 11.8466 125.778 11.4034C126.556 10.9602 127.441 10.7386 128.433 10.7386C129.362 10.7386 130.137 10.9375 130.758 11.3352C131.385 11.7329 131.827 12.2983 132.081 13.0312C132.343 13.7642 132.386 14.6421 132.213 15.6648L130.785 24H127.075L128.39 16.3125C128.523 15.5114 128.419 14.8863 128.077 14.4375C127.74 13.9829 127.197 13.7557 126.448 13.7557C125.949 13.7557 125.49 13.8608 125.072 14.071C124.654 14.2813 124.303 14.5881 124.019 14.9915C123.74 15.3892 123.551 15.8693 123.453 16.4319ZM138.881 29.1819C137.673 29.1819 136.666 29.0199 135.859 28.696C135.058 28.3779 134.449 27.9432 134.03 27.3921C133.618 26.8409 133.392 26.2216 133.351 25.5341L136.869 25.0824C136.933 25.3494 137.055 25.5966 137.234 25.8238C137.42 26.0511 137.684 26.2329 138.027 26.3693C138.375 26.5057 138.826 26.5738 139.376 26.5738C140.184 26.5738 140.886 26.3807 141.484 25.9943C142.082 25.6137 142.45 24.9744 142.59 24.0767L142.991 21.6819H142.834C142.613 22.0455 142.311 22.3892 141.928 22.7131C141.551 23.0369 141.089 23.3012 140.544 23.5057C140.003 23.7102 139.38 23.8125 138.671 23.8125C137.662 23.8125 136.785 23.5852 136.042 23.1307C135.304 22.6705 134.77 21.9687 134.44 21.0255C134.114 20.0767 134.074 18.8778 134.317 17.429C134.573 15.946 135.032 14.7074 135.693 13.7131C136.355 12.7187 137.139 11.9745 138.044 11.4801C138.95 10.9858 139.893 10.7386 140.875 10.7386C141.624 10.7386 142.227 10.8636 142.686 11.1136C143.15 11.3579 143.507 11.6648 143.757 12.0341C144.006 12.3977 144.183 12.7557 144.288 13.1079H144.436L144.802 10.9091H148.485L146.239 24.1278C146.058 25.2471 145.626 26.1789 144.941 26.9233C144.262 27.6733 143.4 28.2358 142.355 28.6108C141.31 28.9915 140.151 29.1819 138.881 29.1819ZM140.274 21.0852C140.866 21.0852 141.397 20.9403 141.867 20.6505C142.343 20.3551 142.741 19.9347 143.06 19.3892C143.379 18.838 143.603 18.179 143.731 17.4119C143.858 16.6449 143.855 15.9801 143.722 15.4176C143.594 14.8494 143.344 14.4091 142.973 14.0966C142.607 13.7841 142.125 13.6278 141.527 13.6278C140.912 13.6278 140.372 13.7898 139.908 14.1136C139.444 14.4318 139.058 14.875 138.749 15.4431C138.448 16.0113 138.236 16.6676 138.114 17.4119C137.987 18.1676 137.98 18.8211 138.097 19.3722C138.219 19.9176 138.46 20.3409 138.819 20.6421C139.179 20.9375 139.665 21.0852 140.274 21.0852Z" fill="#2BCD00"/>
</g>
<defs>
<clipPath id="clip0_384_16">
<rect width="148" height="30" fill="white" transform="translate(0.5)"/>
</clipPath>
</defs>
</svg>
