<svg width="10" height="10" viewBox="0 0 10 10" fill="none" xmlns="http://www.w3.org/2000/svg">
<path d="M2 6.14258C3.05181 6.14258 3.90502 6.99512 3.90527 8.04688C3.90527 9.09885 3.05197 9.95215 2 9.95215C0.948243 9.9519 0.0957031 9.09869 0.0957031 8.04688C0.095958 6.99528 0.9484 6.14283 2 6.14258ZM8 6.14258C9.05182 6.14258 9.90502 6.99512 9.90527 8.04688C9.90527 9.09885 9.05197 9.95215 8 9.95215C6.94824 9.9519 6.0957 9.09869 6.0957 8.04688C6.09595 6.99527 6.9484 6.14283 8 6.14258ZM2 0.0478516C3.05197 0.0478516 3.90527 0.900177 3.90527 1.95215C3.90526 3.00411 3.05196 3.85645 2 3.85645C0.948251 3.85619 0.0957157 3.00395 0.0957031 1.95215C0.0957031 0.900333 0.948243 0.0481029 2 0.0478516ZM8 0.0478516C9.05197 0.0478516 9.90527 0.900177 9.90527 1.95215C9.90526 3.00411 9.05196 3.85645 8 3.85645C6.94825 3.85619 6.09572 3.00395 6.0957 1.95215C6.0957 0.900333 6.94824 0.0481029 8 0.0478516Z" fill="#0B2404"/>
</svg>
