<svg width="1440" height="632" viewBox="0 0 1440 632" fill="none" xmlns="http://www.w3.org/2000/svg">
<g filter="url(#filter0_f_301_451)">
<rect width="115.47" height="1848.66" rx="57.7349" transform="matrix(-0.889541 -0.456856 0.456617 -0.889663 -517.645 291.383)" fill="url(#paint0_linear_301_451)"/>
<rect width="115.47" height="1848.66" rx="57.7349" transform="matrix(-0.889541 -0.456856 0.456617 -0.889663 -242.662 256.863)" fill="url(#paint1_linear_301_451)"/>
<rect width="115.47" height="1848.66" rx="57.7349" transform="matrix(-0.889541 -0.456856 0.456617 -0.889663 16.2246 246.386)" fill="url(#paint2_linear_301_451)"/>
<rect width="166.114" height="1848.66" rx="83.0571" transform="matrix(-0.889541 -0.456856 0.456617 -0.889663 216.082 490.419)" fill="url(#paint3_linear_301_451)"/>
<rect width="115.47" height="1848.66" rx="57.7349" transform="matrix(-0.889541 -0.456856 0.456617 -0.889663 525.139 430.343)" fill="url(#paint4_linear_301_451)"/>
<rect width="115.47" height="1848.66" rx="57.7349" transform="matrix(-0.889541 -0.456856 0.456617 -0.889663 865.08 378.181)" fill="url(#paint5_linear_301_451)"/>
<rect width="46.7553" height="1848.66" rx="23.3776" transform="matrix(-0.889541 -0.456856 0.456617 -0.889663 1197.27 158.183)" fill="url(#paint6_linear_301_451)"/>
</g>
<defs>
<filter id="filter0_f_301_451" x="-770.381" y="-1669.76" width="2973.69" height="2301.43" filterUnits="userSpaceOnUse" color-interpolation-filters="sRGB">
<feFlood flood-opacity="0" result="BackgroundImageFix"/>
<feBlend mode="normal" in="SourceGraphic" in2="BackgroundImageFix" result="shape"/>
<feGaussianBlur stdDeviation="85" result="effect1_foregroundBlur_301_451"/>
</filter>
<linearGradient id="paint0_linear_301_451" x1="57.7349" y1="0" x2="57.7349" y2="1848.66" gradientUnits="userSpaceOnUse">
<stop stop-color="#0AAB15" stop-opacity="0"/>
<stop offset="0.5" stop-color="#0AAB15"/>
<stop offset="1" stop-color="#0AAB15" stop-opacity="0.4"/>
</linearGradient>
<linearGradient id="paint1_linear_301_451" x1="57.7349" y1="0" x2="57.7349" y2="1848.66" gradientUnits="userSpaceOnUse">
<stop stop-color="#55AD09" stop-opacity="0"/>
<stop offset="0.5" stop-color="#55AD09"/>
<stop offset="1" stop-color="#55AD09" stop-opacity="0.4"/>
</linearGradient>
<linearGradient id="paint2_linear_301_451" x1="57.7349" y1="0" x2="57.7349" y2="1848.66" gradientUnits="userSpaceOnUse">
<stop stop-color="#0AAB15" stop-opacity="0"/>
<stop offset="0.5" stop-color="#0AAB15"/>
<stop offset="1" stop-color="#0AAB15" stop-opacity="0.4"/>
</linearGradient>
<linearGradient id="paint3_linear_301_451" x1="83.0571" y1="0" x2="83.0571" y2="1848.66" gradientUnits="userSpaceOnUse">
<stop stop-color="#55AD09" stop-opacity="0"/>
<stop offset="0.5" stop-color="#55AD09"/>
<stop offset="1" stop-color="#55AD09" stop-opacity="0.4"/>
</linearGradient>
<linearGradient id="paint4_linear_301_451" x1="57.7349" y1="0" x2="57.7349" y2="1848.66" gradientUnits="userSpaceOnUse">
<stop stop-color="#0AAB15" stop-opacity="0"/>
<stop offset="0.5" stop-color="#0AAB15"/>
<stop offset="1" stop-color="#0AAB15" stop-opacity="0.4"/>
</linearGradient>
<linearGradient id="paint5_linear_301_451" x1="57.7349" y1="0" x2="57.7349" y2="1848.66" gradientUnits="userSpaceOnUse">
<stop stop-color="#55AD09" stop-opacity="0"/>
<stop offset="0.5" stop-color="#55AD09"/>
<stop offset="1" stop-color="#55AD09" stop-opacity="0.4"/>
</linearGradient>
<linearGradient id="paint6_linear_301_451" x1="23.3776" y1="0" x2="23.3776" y2="1848.66" gradientUnits="userSpaceOnUse">
<stop stop-color="#0AAB15" stop-opacity="0"/>
<stop offset="0.5" stop-color="#0AAB15"/>
<stop offset="1" stop-color="#0AAB15" stop-opacity="0.4"/>
</linearGradient>
</defs>
</svg>
